<svg xmlns="http://www.w3.org/2000/svg" xmlns:xlink="http://www.w3.org/1999/xlink" preserveAspectRatio="xMidYMid meet" width="520" height="400" viewBox="0 0 520 400" style="width:100%;height:100%"><defs><animateMotion repeatCount="indefinite" dur="2.335669s" begin="0s" xlink:href="#_R_G_L_4_G" fill="freeze" keyTimes="0;0.2857143;0.4285714;1" path="M245 197.5 C245,197.5 265,197.5 265,197.5 C265,197.5 245,197.5 245,197.5 C245,197.5 245,197.5 245,197.5 " keyPoints="0;0.5;1;1" keySplines="0.904 0 1 1;0 0 0.197 1;0 0 0 0" calcMode="spline"/><animateTransform repeatCount="indefinite" dur="2.335669s" begin="0s" xlink:href="#_R_G_L_4_G" fill="freeze" attributeName="transform" from="1.35 1.35" to="1.35 1.35" type="scale" additive="sum" keyTimes="0;1" values="1.35 1.35;1.35 1.35" keySplines="0 0 1 1" calcMode="spline"/><animateTransform repeatCount="indefinite" dur="2.335669s" begin="0s" xlink:href="#_R_G_L_4_G" fill="freeze" attributeName="transform" from="-175 -137.5" to="-175 -137.5" type="translate" additive="sum" keyTimes="0;1" values="-175 -137.5;-175 -137.5" keySplines="0 0 1 1" calcMode="spline"/><animateMotion repeatCount="indefinite" dur="2.335669s" begin="0s" xlink:href="#_R_G_L_3_G" fill="freeze" keyTimes="0;0.2428571;0.3142857;0.4285714;0.5714286;1" path="M245 197.5 C245,197.5 255,197.5 255,197.5 C255,197.5 279.32,197.5 279.32,197.5 C279.32,197.5 261.57,197.5 261.57,197.5 C261.57,197.5 245,197.5 245,197.5 C245,197.5 245,197.5 245,197.5 " keyPoints="0;0.15;0.5;0.76;1;1" keySplines="1 0 1 1;0 0 0.269 0.341;0.286 0.565 1 1;0 0 0.298 1;0 0 0 0" calcMode="spline"/><animateTransform repeatCount="indefinite" dur="2.335669s" begin="0s" xlink:href="#_R_G_L_3_G" fill="freeze" attributeName="transform" from="1.35 1.35" to="1.35 1.35" type="scale" additive="sum" keyTimes="0;1" values="1.35 1.35;1.35 1.35" keySplines="0 0 1 1" calcMode="spline"/><animateTransform repeatCount="indefinite" dur="2.335669s" begin="0s" xlink:href="#_R_G_L_3_G" fill="freeze" attributeName="transform" from="-175 -137.5" to="-175 -137.5" type="translate" additive="sum" keyTimes="0;1" values="-175 -137.5;-175 -137.5" keySplines="0 0 1 1" calcMode="spline"/><animateMotion repeatCount="indefinite" dur="2.335669s" begin="0s" xlink:href="#_R_G_L_2_G" fill="freeze" keyTimes="0;0.2857143;0.4285714;1" path="M275 197.5 C275,197.5 256,197.5 256,197.5 C256,197.5 275,197.5 275,197.5 C275,197.5 275,197.5 275,197.5 " keyPoints="0;0.5;1;1" keySplines="0.904 0 1 1;0 0 0.197 1;0 0 0 0" calcMode="spline"/><animateTransform repeatCount="indefinite" dur="2.335669s" begin="0s" xlink:href="#_R_G_L_2_G" fill="freeze" attributeName="transform" from="1.35 1.35" to="1.35 1.35" type="scale" additive="sum" keyTimes="0;1" values="1.35 1.35;1.35 1.35" keySplines="0 0 1 1" calcMode="spline"/><animateTransform repeatCount="indefinite" dur="2.335669s" begin="0s" xlink:href="#_R_G_L_2_G" fill="freeze" attributeName="transform" from="-175 -137.5" to="-175 -137.5" type="translate" additive="sum" keyTimes="0;1" values="-175 -137.5;-175 -137.5" keySplines="0 0 1 1" calcMode="spline"/><animateMotion repeatCount="indefinite" dur="2.335669s" begin="0s" xlink:href="#_R_G_L_1_G" fill="freeze" keyTimes="0;0.2571428;0.3142857;0.4285714;0.5714286;1" path="M275 197.5 C275,197.5 261,197.5 261,197.5 C261,197.5 244.04,197.5 244.04,197.5 C244.04,197.5 260,197.5 260,197.5 C260,197.5 275,197.5 275,197.5 C275,197.5 275,197.5 275,197.5 " keyPoints="0;0.23;0.5;0.76;1;1" keySplines="0.904 0 1 1;0 0 0.233 0.671;0 0 0.231 1;0 0 0.283 1;0 0 0 0" calcMode="spline"/><animateTransform repeatCount="indefinite" dur="2.335669s" begin="0s" xlink:href="#_R_G_L_1_G" fill="freeze" attributeName="transform" from="1.35 1.35" to="1.35 1.35" type="scale" additive="sum" keyTimes="0;1" values="1.35 1.35;1.35 1.35" keySplines="0 0 1 1" calcMode="spline"/><animateTransform repeatCount="indefinite" dur="2.335669s" begin="0s" xlink:href="#_R_G_L_1_G" fill="freeze" attributeName="transform" from="-175 -137.5" to="-175 -137.5" type="translate" additive="sum" keyTimes="0;1" values="-175 -137.5;-175 -137.5" keySplines="0 0 1 1" calcMode="spline"/><animate repeatCount="indefinite" dur="2.335669s" begin="0s" xlink:href="#_R_G_L_0_G_D_0_P_0" fill="freeze" attributeName="d" attributeType="XML" from="M175.96 35.44 C175.96,35.44 185.99,62.58 185.99,62.58 C185.99,62.58 213.13,72.61 213.13,72.61 C213.13,72.61 185.99,82.65 185.99,82.65 C185.99,82.65 175.96,109.79 175.96,109.79 C175.96,109.79 165.92,82.65 165.92,82.65 C165.92,82.65 138.78,72.61 138.78,72.61 C138.78,72.61 165.92,62.58 165.92,62.58 C165.92,62.58 175.96,35.44 175.96,35.44z " to="M175.96 35.44 C175.96,35.44 178.13,70.43 178.13,70.43 C178.13,70.43 213.13,72.61 213.13,72.61 C213.13,72.61 178.13,74.8 178.13,74.8 C178.13,74.8 175.96,109.79 175.96,109.79 C175.96,109.79 173.77,74.8 173.77,74.8 C173.77,74.8 138.78,72.61 138.78,72.61 C138.78,72.61 173.77,70.43 173.77,70.43 C173.77,70.43 175.96,35.44 175.96,35.44z " keyTimes="0;0.4285714;0.5285714;0.6285714;1" values="M175.96 35.44 C175.96,35.44 185.99,62.58 185.99,62.58 C185.99,62.58 213.13,72.61 213.13,72.61 C213.13,72.61 185.99,82.65 185.99,82.65 C185.99,82.65 175.96,109.79 175.96,109.79 C175.96,109.79 165.92,82.65 165.92,82.65 C165.92,82.65 138.78,72.61 138.78,72.61 C138.78,72.61 165.92,62.58 165.92,62.58 C165.92,62.58 175.96,35.44 175.96,35.44z ;M175.96 35.44 C175.96,35.44 185.99,62.58 185.99,62.58 C185.99,62.58 213.13,72.61 213.13,72.61 C213.13,72.61 185.99,82.65 185.99,82.65 C185.99,82.65 175.96,109.79 175.96,109.79 C175.96,109.79 165.92,82.65 165.92,82.65 C165.92,82.65 138.78,72.61 138.78,72.61 C138.78,72.61 165.92,62.58 165.92,62.58 C165.92,62.58 175.96,35.44 175.96,35.44z ;M175.96 35.44 C175.96,35.44 180.75,67.82 180.75,67.82 C180.75,67.82 213.13,72.61 213.13,72.61 C213.13,72.61 180.75,77.41 180.75,77.41 C180.75,77.41 175.96,109.79 175.96,109.79 C175.96,109.79 171.15,77.41 171.15,77.41 C171.15,77.41 138.78,72.61 138.78,72.61 C138.78,72.61 171.15,67.82 171.15,67.82 C171.15,67.82 175.96,35.44 175.96,35.44z ;M175.96 35.44 C175.96,35.44 178.13,70.43 178.13,70.43 C178.13,70.43 213.13,72.61 213.13,72.61 C213.13,72.61 178.13,74.8 178.13,74.8 C178.13,74.8 175.96,109.79 175.96,109.79 C175.96,109.79 173.77,74.8 173.77,74.8 C173.77,74.8 138.78,72.61 138.78,72.61 C138.78,72.61 173.77,70.43 173.77,70.43 C173.77,70.43 175.96,35.44 175.96,35.44z ;M175.96 35.44 C175.96,35.44 178.13,70.43 178.13,70.43 C178.13,70.43 213.13,72.61 213.13,72.61 C213.13,72.61 178.13,74.8 178.13,74.8 C178.13,74.8 175.96,109.79 175.96,109.79 C175.96,109.79 173.77,74.8 173.77,74.8 C173.77,74.8 138.78,72.61 138.78,72.61 C138.78,72.61 173.77,70.43 173.77,70.43 C173.77,70.43 175.96,35.44 175.96,35.44z " keySplines="0.167 0.167 0.833 0.833;0.167 0.167 0.833 0.833;0.167 0.167 0.833 0.833;0 0 0 0" calcMode="spline"/><animate repeatCount="indefinite" dur="2.335669s" begin="0s" xlink:href="#_R_G_L_0_G_D_1_P_0" fill="freeze" attributeName="d" attributeType="XML" from="M175.96 35.44 C175.96,35.44 185.99,62.58 185.99,62.58 C185.99,62.58 213.13,72.61 213.13,72.61 C213.13,72.61 185.99,82.65 185.99,82.65 C185.99,82.65 175.96,109.79 175.96,109.79 C175.96,109.79 165.92,82.65 165.92,82.65 C165.92,82.65 138.78,72.61 138.78,72.61 C138.78,72.61 165.92,62.58 165.92,62.58 C165.92,62.58 175.96,35.44 175.96,35.44z " to="M175.96 35.44 C175.96,35.44 178.13,70.43 178.13,70.43 C178.13,70.43 213.13,72.61 213.13,72.61 C213.13,72.61 178.13,74.8 178.13,74.8 C178.13,74.8 175.96,109.79 175.96,109.79 C175.96,109.79 173.77,74.8 173.77,74.8 C173.77,74.8 138.78,72.61 138.78,72.61 C138.78,72.61 173.77,70.43 173.77,70.43 C173.77,70.43 175.96,35.44 175.96,35.44z " keyTimes="0;0.4285714;0.5285714;0.6285714;1" values="M175.96 35.44 C175.96,35.44 185.99,62.58 185.99,62.58 C185.99,62.58 213.13,72.61 213.13,72.61 C213.13,72.61 185.99,82.65 185.99,82.65 C185.99,82.65 175.96,109.79 175.96,109.79 C175.96,109.79 165.92,82.65 165.92,82.65 C165.92,82.65 138.78,72.61 138.78,72.61 C138.78,72.61 165.92,62.58 165.92,62.58 C165.92,62.58 175.96,35.44 175.96,35.44z ;M175.96 35.44 C175.96,35.44 185.99,62.58 185.99,62.58 C185.99,62.58 213.13,72.61 213.13,72.61 C213.13,72.61 185.99,82.65 185.99,82.65 C185.99,82.65 175.96,109.79 175.96,109.79 C175.96,109.79 165.92,82.65 165.92,82.65 C165.92,82.65 138.78,72.61 138.78,72.61 C138.78,72.61 165.92,62.58 165.92,62.58 C165.92,62.58 175.96,35.44 175.96,35.44z ;M175.96 35.44 C175.96,35.44 180.75,67.82 180.75,67.82 C180.75,67.82 213.13,72.61 213.13,72.61 C213.13,72.61 180.75,77.41 180.75,77.41 C180.75,77.41 175.96,109.79 175.96,109.79 C175.96,109.79 171.15,77.41 171.15,77.41 C171.15,77.41 138.78,72.61 138.78,72.61 C138.78,72.61 171.15,67.82 171.15,67.82 C171.15,67.82 175.96,35.44 175.96,35.44z ;M175.96 35.44 C175.96,35.44 178.13,70.43 178.13,70.43 C178.13,70.43 213.13,72.61 213.13,72.61 C213.13,72.61 178.13,74.8 178.13,74.8 C178.13,74.8 175.96,109.79 175.96,109.79 C175.96,109.79 173.77,74.8 173.77,74.8 C173.77,74.8 138.78,72.61 138.78,72.61 C138.78,72.61 173.77,70.43 173.77,70.43 C173.77,70.43 175.96,35.44 175.96,35.44z ;M175.96 35.44 C175.96,35.44 178.13,70.43 178.13,70.43 C178.13,70.43 213.13,72.61 213.13,72.61 C213.13,72.61 178.13,74.8 178.13,74.8 C178.13,74.8 175.96,109.79 175.96,109.79 C175.96,109.79 173.77,74.8 173.77,74.8 C173.77,74.8 138.78,72.61 138.78,72.61 C138.78,72.61 173.77,70.43 173.77,70.43 C173.77,70.43 175.96,35.44 175.96,35.44z " keySplines="0.167 0.167 0.833 0.833;0.167 0.167 0.833 0.833;0.167 0.167 0.833 0.833;0 0 0 0" calcMode="spline"/><animateMotion repeatCount="indefinite" dur="2.335669s" begin="0s" xlink:href="#_R_G_L_0_G" fill="freeze" keyTimes="0;0.2857143;0.4285714;1" path="M261 210 C261,210 261,210 261,210 C261,210 261,110 261,110 C261,110 261,110 261,110 " keyPoints="0;0;1;1" keySplines="0 0 0.352 1;0 0 0.352 1;0 0 0 0" calcMode="spline"/><animateTransform repeatCount="indefinite" dur="2.335669s" begin="0s" xlink:href="#_R_G_L_0_G" fill="freeze" attributeName="transform" from="0" to="1080" type="rotate" additive="sum" keyTimes="0;0.2857143;1" values="0;0;1080" keySplines="0.167 0.167 0.833 0.833;0.167 0.167 0.833 0.833" calcMode="spline"/><animateTransform repeatCount="indefinite" dur="2.335669s" begin="0s" xlink:href="#_R_G_L_0_G" fill="freeze" attributeName="transform" from="0.05 0.05" to="1.35 1.35" type="scale" additive="sum" keyTimes="0;0.2857143;0.4285714;1" values="0.05 0.05;0.05 0.05;1.35 1.35;1.35 1.35" keySplines="0.167 0.167 0.203 1;0.167 0.167 0.203 1;0 0 0 0" calcMode="spline"/><animateTransform repeatCount="indefinite" dur="2.335669s" begin="0s" xlink:href="#_R_G_L_0_G" fill="freeze" attributeName="transform" from="-175.741 -72.685" to="-175.741 -72.685" type="translate" additive="sum" keyTimes="0;1" values="-175.741 -72.685;-175.741 -72.685" keySplines="0 0 1 1" calcMode="spline"/><animate repeatCount="indefinite" dur="2.335669s" begin="0s" xlink:href="#_R_G_L_0_G_M" fill="freeze" attributeName="opacity" from="0" to="0" keyTimes="0;0.2857143;0.2857157;0.6285714;0.6285714;1" values="0;0;1;1;0;0" keySplines="0 0 0 0;0 0 0 0;0 0 0 0;0 0 0 0;0 0 0 0" calcMode="spline"/><animate attributeType="XML" attributeName="opacity" dur="2s" from="0" to="1" xlink:href="#time_group"/></defs><g id="_R_G"><g id="_R_G_L_4_G"><path id="_R_G_L_4_G_D_0_P_0" fill="#ffffff" fill-opacity="1" fill-rule="nonzero" d=" M170.96 208.52 C170.96,208.52 170.96,186.52 170.96,186.52 C170.96,186.52 170.96,208.52 170.96,208.52z "/><path id="_R_G_L_4_G_D_1_P_0" stroke="#343434" stroke-linecap="round" stroke-linejoin="round" fill="none" stroke-width="2" stroke-opacity="1" d=" M170.96 186.52 C170.96,186.52 170.96,208.53 170.96,208.53 "/><path id="_R_G_L_4_G_D_2_P_0" fill="#ffffff" fill-opacity="1" fill-rule="nonzero" d=" M170.96 163.77 C170.96,163.77 170.96,151.17 170.96,151.17 C170.96,146.66 167.31,143.01 162.81,143.01 C162.81,143.01 137.5,143.01 137.5,143.01 C137.5,143.01 137.5,108.33 137.5,108.33 C137.5,102.39 130.51,99.37 126.13,103.76 C126.13,103.76 75.52,165 75.52,165 C75.52,165 64.52,165 64.52,165 C64.52,165 64.52,206.57 64.52,206.57 C64.52,206.57 75.52,206.57 75.52,206.57 C75.52,206.57 97.53,225.34 97.53,225.34 C99.59,227.4 102.39,228.57 105.32,228.57 C105.32,228.57 162.82,228.57 162.82,228.57 C167.32,228.57 170.97,224.92 170.97,220.41 C170.97,220.41 170.97,163.78 170.97,163.78 C170.97,163.78 170.96,163.77 170.96,163.77z "/><path id="_R_G_L_4_G_D_3_P_0" stroke="#343434" stroke-linecap="round" stroke-linejoin="round" fill="none" stroke-width="2" stroke-opacity="1" d=" M170.96 163.77 C170.96,163.77 170.96,151.17 170.96,151.17 C170.96,146.66 167.31,143.01 162.81,143.01 C162.81,143.01 137.5,143.01 137.5,143.01 C137.5,143.01 137.5,108.33 137.5,108.33 C137.5,102.39 130.51,99.37 126.13,103.76 C126.13,103.76 75.52,165 75.52,165 C75.52,165 64.52,165 64.52,165 C64.52,165 64.52,206.57 64.52,206.57 C64.52,206.57 75.52,206.57 75.52,206.57 C75.52,206.57 97.53,225.34 97.53,225.34 C99.59,227.4 102.39,228.57 105.32,228.57 C105.32,228.57 162.82,228.57 162.82,228.57 C167.32,228.57 170.97,224.92 170.97,220.41 C170.97,220.41 170.97,163.78 170.97,163.78 C170.97,163.78 170.96,163.77 170.96,163.77z "/><path id="_R_G_L_4_G_D_4_P_0" fill="#ffffff" fill-opacity="1" fill-rule="nonzero" d=" M170.96 164.53 C170.96,164.53 170.96,186.52 170.96,186.52 C170.96,186.52 119.89,186.52 119.89,186.52 "/><path id="_R_G_L_4_G_D_5_P_0" stroke="#343434" stroke-linecap="round" stroke-linejoin="round" fill="none" stroke-width="2" stroke-opacity="1" d=" M170.96 164.53 C170.96,164.53 170.96,186.52 170.96,186.52 C170.96,186.52 119.89,186.52 119.89,186.52 "/><path id="_R_G_L_4_G_D_6_P_0" stroke="#343434" stroke-linecap="round" stroke-linejoin="round" fill="none" stroke-width="2" stroke-opacity="1" d=" M170.96 208.52 C170.96,208.52 131.94,208.52 131.94,208.52 "/><path id="_R_G_L_4_G_D_7_P_0" fill="#343434" fill-opacity="1" fill-rule="nonzero" d=" M76.38 207.32 C76.38,207.32 65.38,164.87 65.38,164.87 C65.38,164.87 64.52,207.32 64.52,207.32 C64.52,207.32 76.38,207.32 76.38,207.32z "/><path id="_R_G_L_4_G_D_8_P_0" fill="#343434" fill-opacity="1" fill-rule="nonzero" d=" M136.86 108.3 C136.86,108.3 126.16,143.73 126.16,143.73 C126.16,143.73 137.49,143.73 137.49,143.73 C137.49,143.73 136.86,108.3 136.86,108.3z "/><path id="_R_G_L_4_G_D_9_P_0" stroke="#343434" stroke-linecap="round" stroke-linejoin="round" fill="none" stroke-width="2" stroke-opacity="1" d=" M112.24 143.73 C112.24,143.73 162.81,143.73 162.81,143.73 C167.31,143.73 170.96,147.38 170.96,151.89 C170.96,151.89 170.96,164.53 170.96,164.53 C170.96,164.53 119.89,164.53 119.89,164.53 "/></g><g id="_R_G_L_3_G"><path id="_R_G_L_3_G_D_0_P_0" fill="#ffffff" fill-opacity="1" fill-rule="nonzero" d=" M-32.38 239.56 C-32.38,239.56 -32.38,151.57 -32.38,151.57 C-32.38,151.57 56.8,151.57 56.8,151.57 C61.06,151.57 64.51,155.03 64.51,159.28 C64.51,159.28 64.51,231.83 64.51,231.83 C64.51,236.1 61.05,239.55 56.8,239.55 C56.8,239.55 -32.38,239.55 -32.38,239.55 C-32.38,239.55 -32.38,239.56 -32.38,239.56z "/><path id="_R_G_L_3_G_D_1_P_0" stroke="#343434" stroke-linecap="round" stroke-linejoin="round" fill="none" stroke-width="2" stroke-opacity="1" d=" M-32.38 239.56 C-32.38,239.56 -32.38,151.57 -32.38,151.57 C-32.38,151.57 56.8,151.57 56.8,151.57 C61.06,151.57 64.51,155.03 64.51,159.28 C64.51,159.28 64.51,231.83 64.51,231.83 C64.51,236.1 61.05,239.55 56.8,239.55 C56.8,239.55 -32.38,239.55 -32.38,239.55 C-32.38,239.55 -32.38,239.56 -32.38,239.56z "/><path id="_R_G_L_3_G_D_2_P_0" fill="#ea7565" fill-opacity="1" fill-rule="nonzero" d=" M43.75 151.56 C43.75,151.56 -32.38,151.56 -32.38,151.56 C-32.38,151.56 -32.38,239.56 -32.38,239.56 C-32.38,239.56 43.75,239.56 43.75,239.56 C43.75,239.56 43.75,151.56 43.75,151.56z "/><path id="_R_G_L_3_G_D_3_P_0" stroke="#343434" stroke-linecap="round" stroke-linejoin="round" fill="none" stroke-width="2" stroke-opacity="1" d=" M-32.38 239.56 C-32.38,239.56 -32.38,151.57 -32.38,151.57 C-32.38,151.57 56.8,151.57 56.8,151.57 C61.06,151.57 64.51,155.03 64.51,159.28 C64.51,159.28 64.51,231.83 64.51,231.83 C64.51,236.1 61.05,239.55 56.8,239.55 C56.8,239.55 -32.38,239.55 -32.38,239.55 C-32.38,239.55 -32.38,239.56 -32.38,239.56z "/><path id="_R_G_L_3_G_D_4_P_0" stroke="#343434" stroke-linecap="round" stroke-linejoin="round" fill="none" stroke-width="2" stroke-opacity="1" d=" M43.75 151.56 C43.75,151.56 43.75,239.56 43.75,239.56 "/><path id="_R_G_L_3_G_D_5_P_0" fill="#72c4a7" fill-opacity="1" fill-rule="nonzero" d=" M43.75 228.56 C49.82,228.56 54.75,223.63 54.75,217.56 C54.75,211.48 49.82,206.55 43.75,206.55 C37.67,206.55 32.74,211.48 32.74,217.56 C32.74,223.63 37.67,228.56 43.75,228.56z "/><path id="_R_G_L_3_G_D_6_P_0" stroke="#343434" stroke-linecap="round" stroke-linejoin="round" fill="none" stroke-width="2" stroke-opacity="1" d=" M43.75 228.56 C49.82,228.56 54.75,223.63 54.75,217.56 C54.75,211.48 49.82,206.55 43.75,206.55 C37.67,206.55 32.74,211.48 32.74,217.56 C32.74,223.63 37.67,228.56 43.75,228.56z "/><path id="_R_G_L_3_G_D_7_P_0" fill="#343434" fill-opacity="1" fill-rule="nonzero" d=" M29.64 239.56 C29.64,239.56 1.51,151.57 1.51,151.57 C1.51,151.57 -32.02,151.67 -32.02,151.67 C-32.02,151.67 -32.68,239.56 -32.68,239.56 C-32.68,239.56 29.64,239.56 29.64,239.56z "/></g><g id="_R_G_L_2_G"><path id="_R_G_L_2_G_D_0_P_0" fill="#ffffff" fill-opacity="1" fill-rule="nonzero" d=" M180.94 208.52 C180.94,208.52 180.94,186.52 180.94,186.52 C180.94,186.52 180.94,208.52 180.94,208.52z "/><path id="_R_G_L_2_G_D_1_P_0" fill="#ffffff" fill-opacity="1" fill-rule="nonzero" d=" M179.29 163.77 C179.29,163.77 179.29,151.17 179.29,151.17 C179.29,146.66 182.94,143.01 187.45,143.01 C187.45,143.01 212.76,143.01 212.76,143.01 C212.76,143.01 212.76,108.33 212.76,108.33 C212.76,102.39 219.74,99.37 224.13,103.76 C224.13,103.76 274.73,165 274.73,165 C274.73,165 285.73,165 285.73,165 C285.73,165 285.73,206.57 285.73,206.57 C285.73,206.57 274.73,206.57 274.73,206.57 C274.73,206.57 252.73,225.34 252.73,225.34 C250.66,227.4 247.86,228.57 244.94,228.57 C244.94,228.57 187.44,228.57 187.44,228.57 C182.93,228.57 179.28,224.92 179.28,220.41 C179.28,220.41 179.28,163.78 179.28,163.78 C179.28,163.78 179.29,163.77 179.29,163.77z "/><path id="_R_G_L_2_G_D_2_P_0" stroke="#343434" stroke-linecap="round" stroke-linejoin="round" fill="none" stroke-width="2" stroke-opacity="1" d=" M179.29 163.77 C179.29,163.77 179.29,151.17 179.29,151.17 C179.29,146.66 182.94,143.01 187.45,143.01 C187.45,143.01 212.76,143.01 212.76,143.01 C212.76,143.01 212.76,108.33 212.76,108.33 C212.76,102.39 219.74,99.37 224.13,103.76 C224.13,103.76 274.73,165 274.73,165 C274.73,165 285.73,165 285.73,165 C285.73,165 285.73,206.57 285.73,206.57 C285.73,206.57 274.73,206.57 274.73,206.57 C274.73,206.57 252.73,225.34 252.73,225.34 C250.66,227.4 247.86,228.57 244.94,228.57 C244.94,228.57 187.44,228.57 187.44,228.57 C182.93,228.57 179.28,224.92 179.28,220.41 C179.28,220.41 179.28,163.78 179.28,163.78 C179.28,163.78 179.29,163.77 179.29,163.77z "/><path id="_R_G_L_2_G_D_3_P_0" fill="#ffffff" fill-opacity="1" fill-rule="nonzero" d=" M179.29 164.53 C179.29,164.53 179.29,186.52 179.29,186.52 C179.29,186.52 230.36,186.52 230.36,186.52 "/><path id="_R_G_L_2_G_D_4_P_0" stroke="#343434" stroke-linecap="round" stroke-linejoin="round" fill="none" stroke-width="2" stroke-opacity="1" d=" M179.29 164.53 C179.29,164.53 179.29,186.52 179.29,186.52 C179.29,186.52 230.36,186.52 230.36,186.52 "/><path id="_R_G_L_2_G_D_5_P_0" stroke="#343434" stroke-linecap="round" stroke-linejoin="round" fill="none" stroke-width="2" stroke-opacity="1" d=" M179.29 208.52 C179.29,208.52 218.32,208.52 218.32,208.52 "/><path id="_R_G_L_2_G_D_6_P_0" fill="#343434" fill-opacity="1" fill-rule="nonzero" d=" M273.87 207.32 C273.87,207.32 284.87,164.87 284.87,164.87 C284.87,164.87 285.73,207.32 285.73,207.32 C285.73,207.32 273.87,207.32 273.87,207.32z "/><path id="_R_G_L_2_G_D_7_P_0" fill="#343434" fill-opacity="1" fill-rule="nonzero" d=" M213.39 108.3 C213.39,108.3 224.09,143.73 224.09,143.73 C224.09,143.73 212.77,143.73 212.77,143.73 C212.77,143.73 213.39,108.3 213.39,108.3z "/><path id="_R_G_L_2_G_D_8_P_0" stroke="#343434" stroke-linecap="round" stroke-linejoin="round" fill="none" stroke-width="2" stroke-opacity="1" d=" M238.02 143.73 C238.02,143.73 187.45,143.73 187.45,143.73 C182.94,143.73 179.29,147.38 179.29,151.89 C179.29,151.89 179.29,164.53 179.29,164.53 C179.29,164.53 230.36,164.53 230.36,164.53 "/></g><g id="_R_G_L_1_G"><path id="_R_G_L_1_G_D_0_P_0" fill="#ffffff" fill-opacity="1" fill-rule="nonzero" d=" M391.89 239.56 C391.89,239.56 391.89,151.57 391.89,151.57 C391.89,151.57 293.46,151.57 293.46,151.57 C289.19,151.57 285.74,155.03 285.74,159.28 C285.74,159.28 285.74,231.83 285.74,231.83 C285.74,236.1 289.2,239.55 293.46,239.55 C293.46,239.55 391.89,239.55 391.89,239.55 C391.89,239.55 391.89,239.56 391.89,239.56z "/><path id="_R_G_L_1_G_D_1_P_0" stroke="#343434" stroke-linecap="round" stroke-linejoin="round" fill="none" stroke-width="2" stroke-opacity="1" d=" M391.89 239.56 C391.89,239.56 391.89,151.57 391.89,151.57 C391.89,151.57 293.46,151.57 293.46,151.57 C289.19,151.57 285.74,155.03 285.74,159.28 C285.74,159.28 285.74,231.83 285.74,231.83 C285.74,236.1 289.2,239.55 293.46,239.55 C293.46,239.55 391.89,239.55 391.89,239.55 C391.89,239.55 391.89,239.56 391.89,239.56z "/><path id="_R_G_L_1_G_D_2_P_0" fill="#63acde" fill-opacity="1" fill-rule="nonzero" d=" M306.51 151.56 C306.51,151.56 391.89,151.56 391.89,151.56 C391.89,151.56 391.89,239.56 391.89,239.56 C391.89,239.56 306.51,239.56 306.51,239.56 C306.51,239.56 306.51,151.56 306.51,151.56z "/><path id="_R_G_L_1_G_D_3_P_0" stroke="#343434" stroke-linecap="round" stroke-linejoin="round" fill="none" stroke-width="2" stroke-opacity="1" d=" M391.89 239.56 C391.89,239.56 391.89,151.57 391.89,151.57 C391.89,151.57 293.46,151.57 293.46,151.57 C289.19,151.57 285.74,155.03 285.74,159.28 C285.74,159.28 285.74,231.83 285.74,231.83 C285.74,236.1 289.2,239.55 293.46,239.55 C293.46,239.55 391.89,239.55 391.89,239.55 C391.89,239.55 391.89,239.56 391.89,239.56z "/><path id="_R_G_L_1_G_D_4_P_0" stroke="#343434" stroke-linecap="round" stroke-linejoin="round" fill="none" stroke-width="2" stroke-opacity="1" d=" M306.51 151.56 C306.51,151.56 306.51,239.56 306.51,239.56 "/><path id="_R_G_L_1_G_D_5_P_0" fill="#ea7565" fill-opacity="1" fill-rule="nonzero" d=" M306.51 228.56 C300.43,228.56 295.51,223.63 295.51,217.56 C295.51,211.48 300.43,206.55 306.51,206.55 C312.58,206.55 317.51,211.48 317.51,217.56 C317.51,223.63 312.58,228.56 306.51,228.56z "/><path id="_R_G_L_1_G_D_6_P_0" stroke="#343434" stroke-linecap="round" stroke-linejoin="round" fill="none" stroke-width="2" stroke-opacity="1" d=" M306.51 228.56 C300.43,228.56 295.51,223.63 295.51,217.56 C295.51,211.48 300.43,206.55 306.51,206.55 C312.58,206.55 317.51,211.48 317.51,217.56 C317.51,223.63 312.58,228.56 306.51,228.56z "/><path id="_R_G_L_1_G_D_7_P_0" fill="#343434" fill-opacity="1" fill-rule="nonzero" d=" M320.61 239.56 C320.61,239.56 346.89,151.57 346.89,151.57 C346.89,151.57 391.87,151.42 391.87,151.42 C391.87,151.42 392.19,239.56 392.19,239.56 C392.19,239.56 320.61,239.56 320.61,239.56z "/></g><g id="_R_G_L_0_G_M"><g id="_R_G_L_0_G"><path id="_R_G_L_0_G_D_0_P_0" fill="#f2b855" fill-opacity="1" fill-rule="nonzero" d=" M175.96 35.44 C175.96,35.44 185.99,62.58 185.99,62.58 C185.99,62.58 213.13,72.61 213.13,72.61 C213.13,72.61 185.99,82.65 185.99,82.65 C185.99,82.65 175.96,109.79 175.96,109.79 C175.96,109.79 165.92,82.65 165.92,82.65 C165.92,82.65 138.78,72.61 138.78,72.61 C138.78,72.61 165.92,62.58 165.92,62.58 C165.92,62.58 175.96,35.44 175.96,35.44z "/><path id="_R_G_L_0_G_D_1_P_0" stroke="#343434" stroke-linecap="round" stroke-linejoin="round" fill="none" stroke-width="2" stroke-opacity="1" d=" M175.96 35.44 C175.96,35.44 185.99,62.58 185.99,62.58 C185.99,62.58 213.13,72.61 213.13,72.61 C213.13,72.61 185.99,82.65 185.99,82.65 C185.99,82.65 175.96,109.79 175.96,109.79 C175.96,109.79 165.92,82.65 165.92,82.65 C165.92,82.65 138.78,72.61 138.78,72.61 C138.78,72.61 165.92,62.58 165.92,62.58 C165.92,62.58 175.96,35.44 175.96,35.44z "/></g></g></g><g id="time_group"/></svg>