<svg xmlns="http://www.w3.org/2000/svg" xmlns:xlink="http://www.w3.org/1999/xlink" preserveAspectRatio="xMidYMid meet" width="500" height="500" viewBox="0 0 500 500" style="width:100%;height:100%"><defs><animate repeatCount="indefinite" dur="4.004004s" begin="0s" xlink:href="#_R_G_L_1_G_D_0_P_0" fill="freeze" attributeName="d" attributeType="XML" from="M80.37 232.51 C80.37,232.51 79.62,234.03 79.62,234.03 C79.62,234.03 81.12,234.14 81.12,234.14 C81.12,234.14 81.12,234.48 81.12,234.48 C81.12,234.48 81.25,232.85 81.25,232.85 " to="M239.81 110.57 C239.81,110.57 239.43,109.82 239.43,109.82 C239.43,109.82 239.8,110.68 239.8,110.68 C239.8,110.68 239.04,110.65 239.04,110.65 C239.04,110.65 239.17,110.53 239.17,110.53 " keyTimes="0;0.15;0.3083333;0.5;0.6666666;0.7333333;0.7916666;0.85;0.9166667;1" values="M80.37 232.51 C80.37,232.51 79.62,234.03 79.62,234.03 C79.62,234.03 81.12,234.14 81.12,234.14 C81.12,234.14 81.12,234.48 81.12,234.48 C81.12,234.48 81.25,232.85 81.25,232.85 ;M80.37 232.51 C80.37,232.51 80.37,112.85 80.37,112.85 C80.37,112.85 79.98,116.74 79.98,116.74 C79.98,116.74 80.3,115.4 80.3,115.4 C80.3,115.4 80,116.27 80,116.27 ;M80.37 232.51 C80.37,232.51 80.37,112.85 80.37,112.85 C80.37,112.85 157.62,195.89 157.62,195.89 C157.62,195.89 157.48,195.47 157.48,195.47 C157.48,195.47 157.98,197.06 157.98,197.06 ;M80.37 232.51 C80.37,232.51 80.37,112.85 80.37,112.85 C80.37,112.85 157.62,195.89 157.62,195.89 C157.62,195.89 157.62,1.2 157.62,1.2 C157.62,1.2 157.75,1.09 157.75,1.09 ;M80.37 232.51 C80.37,232.51 80.37,112.85 80.37,112.85 C80.37,112.85 157.62,195.89 157.62,195.89 C157.62,195.89 157.62,1.2 157.62,1.2 C157.62,1.2 239.17,110.53 239.17,110.53 ;M80.75 113.6 C80.75,113.6 80.37,112.85 80.37,112.85 C80.37,112.85 157.62,195.89 157.62,195.89 C157.62,195.89 157.62,1.2 157.62,1.2 C157.62,1.2 239.17,110.53 239.17,110.53 ;M157.63 195.78 C157.63,195.78 157.25,195.03 157.25,195.03 C157.25,195.03 157.62,195.89 157.62,195.89 C157.62,195.89 157.62,1.2 157.62,1.2 C157.62,1.2 239.17,110.53 239.17,110.53 ;M158.39 1.13 C158.39,1.13 158.01,0.37 158.01,0.37 C158.01,0.37 158.38,1.23 158.38,1.23 C158.38,1.23 157.62,1.2 157.62,1.2 C157.62,1.2 239.17,110.53 239.17,110.53 ;M239.81 110.57 C239.81,110.57 239.43,109.82 239.43,109.82 C239.43,109.82 239.8,110.68 239.8,110.68 C239.8,110.68 239.04,110.65 239.04,110.65 C239.04,110.65 239.17,110.53 239.17,110.53 ;M239.81 110.57 C239.81,110.57 239.43,109.82 239.43,109.82 C239.43,109.82 239.8,110.68 239.8,110.68 C239.8,110.68 239.04,110.65 239.04,110.65 C239.04,110.65 239.17,110.53 239.17,110.53 " keySplines="0 0.001 0 1;1 0 1 1;0 0 0 1;1 0 1 1;0.167 0.167 0.833 0.833;0.167 0.167 0.833 0.833;0.167 0.167 0.833 0.833;0.167 0.167 0.833 0.833;0 0 0 0" calcMode="spline"/><animate repeatCount="indefinite" dur="4.004004s" begin="0s" xlink:href="#_R_G_L_1_G_M" fill="freeze" attributeName="opacity" from="0" to="0" keyTimes="0;0.0083333;0.0083342;0.9166667;0.9166667;1" values="0;0;1;1;0;0" keySplines="0 0 0 0;0 0 0 0;0 0 0 0;0 0 0 0;0 0 0 0" calcMode="spline"/><animate repeatCount="indefinite" dur="4.004004s" begin="0s" xlink:href="#_R_G_L_0_G_D_0_P_0" fill="freeze" attributeName="d" attributeType="XML" from="M260.28 83.58 C260.28,83.58 274.34,121.58 274.34,121.58 C274.34,121.58 312.34,135.64 312.34,135.64 C312.34,135.64 274.34,149.7 274.34,149.7 C274.34,149.7 260.28,187.7 260.28,187.7 C260.28,187.7 246.22,149.7 246.22,149.7 C246.22,149.7 208.22,135.64 208.22,135.64 C208.22,135.64 246.22,121.58 246.22,121.58 C246.22,121.58 260.28,83.58 260.28,83.58z " to="M260.28 83.58 C260.28,83.58 260.63,135.58 260.63,135.58 C260.63,135.58 312.34,135.64 312.34,135.64 C312.34,135.64 260.63,135.57 260.63,135.57 C260.63,135.57 260.28,187.7 260.28,187.7 C260.28,187.7 260.63,135.57 260.63,135.57 C260.63,135.57 208.22,135.64 208.22,135.64 C208.22,135.64 260.63,135.58 260.63,135.58 C260.63,135.58 260.28,83.58 260.28,83.58z " keyTimes="0;0.85;1" values="M260.28 83.58 C260.28,83.58 274.34,121.58 274.34,121.58 C274.34,121.58 312.34,135.64 312.34,135.64 C312.34,135.64 274.34,149.7 274.34,149.7 C274.34,149.7 260.28,187.7 260.28,187.7 C260.28,187.7 246.22,149.7 246.22,149.7 C246.22,149.7 208.22,135.64 208.22,135.64 C208.22,135.64 246.22,121.58 246.22,121.58 C246.22,121.58 260.28,83.58 260.28,83.58z ;M260.28 83.58 C260.28,83.58 274.34,121.58 274.34,121.58 C274.34,121.58 312.34,135.64 312.34,135.64 C312.34,135.64 274.34,149.7 274.34,149.7 C274.34,149.7 260.28,187.7 260.28,187.7 C260.28,187.7 246.22,149.7 246.22,149.7 C246.22,149.7 208.22,135.64 208.22,135.64 C208.22,135.64 246.22,121.58 246.22,121.58 C246.22,121.58 260.28,83.58 260.28,83.58z ;M260.28 83.58 C260.28,83.58 260.63,135.58 260.63,135.58 C260.63,135.58 312.34,135.64 312.34,135.64 C312.34,135.64 260.63,135.57 260.63,135.57 C260.63,135.57 260.28,187.7 260.28,187.7 C260.28,187.7 260.63,135.57 260.63,135.57 C260.63,135.57 208.22,135.64 208.22,135.64 C208.22,135.64 260.63,135.58 260.63,135.58 C260.63,135.58 260.28,83.58 260.28,83.58z " keySplines="0.167 0.167 0.833 0.833;0.167 0.167 0.833 0.833" calcMode="spline"/><animate repeatCount="indefinite" dur="4.004004s" begin="0s" xlink:href="#_R_G_L_0_G_D_1_P_0" fill="freeze" attributeName="stroke-width" from="7" to="7" keyTimes="0;0.0833333;0.6666666;0.85;1" values="7;7;2.4;2.4;7" keySplines="0.167 0.167 0.833 0.833;0.167 0.167 0.833 0.833;0.167 0.167 0.833 0.833;0.167 0.167 0.833 0.833" calcMode="spline"/><animate repeatCount="indefinite" dur="4.004004s" begin="0s" xlink:href="#_R_G_L_0_G_D_1_P_0" fill="freeze" attributeName="d" attributeType="XML" from="M260.28 83.58 C260.28,83.58 274.34,121.58 274.34,121.58 C274.34,121.58 312.34,135.64 312.34,135.64 C312.34,135.64 274.34,149.7 274.34,149.7 C274.34,149.7 260.28,187.7 260.28,187.7 C260.28,187.7 246.22,149.7 246.22,149.7 C246.22,149.7 208.22,135.64 208.22,135.64 C208.22,135.64 246.22,121.58 246.22,121.58 C246.22,121.58 260.28,83.58 260.28,83.58z " to="M260.28 83.58 C260.28,83.58 260.63,135.58 260.63,135.58 C260.63,135.58 312.34,135.64 312.34,135.64 C312.34,135.64 260.63,135.57 260.63,135.57 C260.63,135.57 260.28,187.7 260.28,187.7 C260.28,187.7 260.63,135.57 260.63,135.57 C260.63,135.57 208.22,135.64 208.22,135.64 C208.22,135.64 260.63,135.58 260.63,135.58 C260.63,135.58 260.28,83.58 260.28,83.58z " keyTimes="0;0.85;1" values="M260.28 83.58 C260.28,83.58 274.34,121.58 274.34,121.58 C274.34,121.58 312.34,135.64 312.34,135.64 C312.34,135.64 274.34,149.7 274.34,149.7 C274.34,149.7 260.28,187.7 260.28,187.7 C260.28,187.7 246.22,149.7 246.22,149.7 C246.22,149.7 208.22,135.64 208.22,135.64 C208.22,135.64 246.22,121.58 246.22,121.58 C246.22,121.58 260.28,83.58 260.28,83.58z ;M260.28 83.58 C260.28,83.58 274.34,121.58 274.34,121.58 C274.34,121.58 312.34,135.64 312.34,135.64 C312.34,135.64 274.34,149.7 274.34,149.7 C274.34,149.7 260.28,187.7 260.28,187.7 C260.28,187.7 246.22,149.7 246.22,149.7 C246.22,149.7 208.22,135.64 208.22,135.64 C208.22,135.64 246.22,121.58 246.22,121.58 C246.22,121.58 260.28,83.58 260.28,83.58z ;M260.28 83.58 C260.28,83.58 260.63,135.58 260.63,135.58 C260.63,135.58 312.34,135.64 312.34,135.64 C312.34,135.64 260.63,135.57 260.63,135.57 C260.63,135.57 260.28,187.7 260.28,187.7 C260.28,187.7 260.63,135.57 260.63,135.57 C260.63,135.57 208.22,135.64 208.22,135.64 C208.22,135.64 260.63,135.58 260.63,135.58 C260.63,135.58 260.28,83.58 260.28,83.58z " keySplines="0.167 0.167 0.833 0.833;0.167 0.167 0.833 0.833" calcMode="spline"/><animateMotion repeatCount="indefinite" dur="4.004004s" begin="0s" xlink:href="#_R_G_L_0_G" fill="freeze" keyTimes="0;0.15;0.3083333;0.5;0.6666667;1" path="M132.65 338.1 C132.65,338.1 132.68,180 132.68,180 C132.68,180 236.3,281.94 236.3,281.94 C236.3,281.94 237.45,46.63 237.45,46.63 C237.45,46.63 376,205 376,205 C376,205 376,205 376,205 " keyPoints="0;0.21;0.41;0.72;1;1" keySplines="0 0 0 1;1 0 1 1;0 0 0 1;1 0 1 1;0 0 0 0" calcMode="spline"/><animateTransform repeatCount="indefinite" dur="4.004004s" begin="0s" xlink:href="#_R_G_L_0_G" fill="freeze" attributeName="transform" from="-720" to="1080" type="rotate" additive="sum" keyTimes="0;0.6666666;1" values="-720;694.286;1080" keySplines="0.167 0.167 0.833 0.833;0.167 0.167 0.833 0.833" calcMode="spline"/><animateTransform repeatCount="indefinite" dur="4.004004s" begin="0s" xlink:href="#_R_G_L_0_G" fill="freeze" attributeName="transform" from="0.1 0.1" to="0.1 0.1" type="scale" additive="sum" keyTimes="0;0.5;0.6666666;0.85;1" values="0.1 0.1;0.9 0.9;1.35 1.35;1.35 1.35;0.1 0.1" keySplines="0.167 0.167 0.833 0.833;0.167 0.167 0.833 0.833;0.167 0.167 0.833 0.833;0.167 0.167 0.833 0.833" calcMode="spline"/><animateTransform repeatCount="indefinite" dur="4.004004s" begin="0s" xlink:href="#_R_G_L_0_G" fill="freeze" attributeName="transform" from="-260.556 -135.576" to="-260.556 -135.576" type="translate" additive="sum" keyTimes="0;1" values="-260.556 -135.576;-260.556 -135.576" keySplines="0 0 1 1" calcMode="spline"/><animate repeatCount="indefinite" dur="4.004004s" begin="0s" xlink:href="#_R_G_L_0_G_M" fill="freeze" attributeName="opacity" from="0" to="1" keyTimes="0;0.0083333;0.0083342;1" values="0;0;1;1" keySplines="0 0 0 0;0 0 0 0;0 0 0 0" calcMode="spline"/><animate attributeType="XML" attributeName="opacity" dur="4s" from="0" to="1" xlink:href="#time_group"/></defs><g id="_R_G"><g id="_R_G_L_2_G" transform=" translate(260.5, 241.936) scale(1.35, 1.35) translate(-175, -162.936)"><path id="_R_G_L_2_G_D_0_P_0" fill="#72c4a7" fill-opacity="1" fill-rule="nonzero" d=" M48.47 186.29 C48.47,186.29 154.27,186.29 154.27,186.29 C154.27,186.29 154.27,324.67 154.27,324.67 C154.27,324.67 48.47,324.67 48.47,324.67 C42.5,324.67 37.67,319.84 37.67,313.87 C37.67,313.87 37.67,197.09 37.67,197.09 C37.67,191.12 42.5,186.29 48.47,186.29z "/><path id="_R_G_L_2_G_D_1_P_0" stroke="#343434" stroke-linecap="round" stroke-linejoin="round" fill="none" stroke-width="2.292" stroke-opacity="1" d=" M48.47 186.29 C48.47,186.29 154.27,186.29 154.27,186.29 C154.27,186.29 154.27,324.67 154.27,324.67 C154.27,324.67 48.47,324.67 48.47,324.67 C42.5,324.67 37.67,319.84 37.67,313.87 C37.67,313.87 37.67,197.09 37.67,197.09 C37.67,191.12 42.5,186.29 48.47,186.29z "/><path id="_R_G_L_2_G_D_2_P_0" fill="#ffffff" fill-opacity="1" fill-rule="nonzero" d=" M49.98 300.04 C49.98,300.04 154.27,300.04 154.27,300.04 C154.27,300.04 154.27,324.67 154.27,324.67 C154.27,324.67 49.98,324.67 49.98,324.67 C43.19,324.67 37.67,319.15 37.67,312.36 C37.67,305.57 43.19,300.05 49.98,300.05 C49.98,300.05 49.98,300.04 49.98,300.04z "/><path id="_R_G_L_2_G_D_3_P_0" stroke="#343434" stroke-linecap="round" stroke-linejoin="round" fill="none" stroke-width="2.4" stroke-opacity="1" d=" M49.98 300.04 C49.98,300.04 154.27,300.04 154.27,300.04 C154.27,300.04 154.27,324.67 154.27,324.67 C154.27,324.67 49.98,324.67 49.98,324.67 C43.19,324.67 37.67,319.15 37.67,312.36 C37.67,305.57 43.19,300.05 49.98,300.05 C49.98,300.05 49.98,300.04 49.98,300.04z "/><path id="_R_G_L_2_G_D_4_P_0" stroke="#343434" stroke-linecap="round" stroke-linejoin="round" fill="none" stroke-width="2.4" stroke-opacity="1" d=" M51.97 194.23 C51.97,194.23 51.97,300.04 51.97,300.04 "/><path id="_R_G_L_2_G_D_5_P_0" stroke="#343434" stroke-linecap="round" stroke-linejoin="round" fill="none" stroke-width="2.292" stroke-opacity="1" d=" M154.27 312.36 C154.27,312.36 51.97,312.36 51.97,312.36 "/><path id="_R_G_L_2_G_D_6_P_0" fill="#ea7565" fill-opacity="1" fill-rule="nonzero" d=" M123.45 140.1 C123.45,140.1 229.26,140.1 229.26,140.1 C229.26,140.1 229.26,278.48 229.26,278.48 C229.26,278.48 123.45,278.48 123.45,278.48 C117.49,278.48 112.66,273.65 112.66,267.68 C112.66,267.68 112.66,150.9 112.66,150.9 C112.66,144.94 117.49,140.1 123.45,140.1z "/><path id="_R_G_L_2_G_D_7_P_0" stroke="#343434" stroke-linecap="round" stroke-linejoin="round" fill="none" stroke-width="2.292" stroke-opacity="1" d=" M123.45 140.1 C123.45,140.1 229.26,140.1 229.26,140.1 C229.26,140.1 229.26,278.48 229.26,278.48 C229.26,278.48 123.45,278.48 123.45,278.48 C117.49,278.48 112.66,273.65 112.66,267.68 C112.66,267.68 112.66,150.9 112.66,150.9 C112.66,144.94 117.49,140.1 123.45,140.1z "/><path id="_R_G_L_2_G_D_8_P_0" fill="#ffffff" fill-opacity="1" fill-rule="nonzero" d=" M124.98 253.85 C124.98,253.85 229.27,253.85 229.27,253.85 C229.27,253.85 229.27,278.48 229.27,278.48 C229.27,278.48 124.98,278.48 124.98,278.48 C118.19,278.48 112.67,272.96 112.67,266.17 C112.67,259.38 118.19,253.86 124.98,253.86 C124.98,253.86 124.98,253.85 124.98,253.85z "/><path id="_R_G_L_2_G_D_9_P_0" stroke="#343434" stroke-linecap="round" stroke-linejoin="round" fill="none" stroke-width="2.4" stroke-opacity="1" d=" M124.98 253.85 C124.98,253.85 229.27,253.85 229.27,253.85 C229.27,253.85 229.27,278.48 229.27,278.48 C229.27,278.48 124.98,278.48 124.98,278.48 C118.19,278.48 112.67,272.96 112.67,266.17 C112.67,259.38 118.19,253.86 124.98,253.86 C124.98,253.86 124.98,253.85 124.98,253.85z "/><path id="_R_G_L_2_G_D_10_P_0" stroke="#343434" stroke-linecap="round" stroke-linejoin="round" fill="none" stroke-width="2.4" stroke-opacity="1" d=" M126.96 179.39 C126.96,179.39 126.96,253.85 126.96,253.85 "/><path id="_R_G_L_2_G_D_11_P_0" stroke="#343434" stroke-linecap="round" stroke-linejoin="round" fill="none" stroke-width="2.292" stroke-opacity="1" d=" M229.26 266.16 C229.26,266.16 126.96,266.16 126.96,266.16 "/><path id="_R_G_L_2_G_D_12_P_0" fill="#63acde" fill-opacity="1" fill-rule="nonzero" d=" M198.21 94.14 C198.21,94.14 304.02,94.14 304.02,94.14 C304.02,94.14 304.02,232.52 304.02,232.52 C304.02,232.52 198.21,232.52 198.21,232.52 C192.25,232.52 187.41,227.69 187.41,221.72 C187.41,221.72 187.41,104.94 187.41,104.94 C187.41,98.98 192.25,94.14 198.21,94.14z "/><path id="_R_G_L_2_G_D_13_P_0" stroke="#343434" stroke-linecap="round" stroke-linejoin="round" fill="none" stroke-width="2.292" stroke-opacity="1" d=" M198.21 94.14 C198.21,94.14 304.02,94.14 304.02,94.14 C304.02,94.14 304.02,232.52 304.02,232.52 C304.02,232.52 198.21,232.52 198.21,232.52 C192.25,232.52 187.41,227.69 187.41,221.72 C187.41,221.72 187.41,104.94 187.41,104.94 C187.41,98.98 192.25,94.14 198.21,94.14z "/><path id="_R_G_L_2_G_D_14_P_0" fill="#ffffff" fill-opacity="1" fill-rule="nonzero" d=" M199.74 207.89 C199.74,207.89 304.03,207.89 304.03,207.89 C304.03,207.89 304.03,232.52 304.03,232.52 C304.03,232.52 199.74,232.52 199.74,232.52 C192.95,232.52 187.43,227 187.43,220.21 C187.43,213.42 192.95,207.9 199.74,207.9 C199.74,207.9 199.74,207.89 199.74,207.89z "/><path id="_R_G_L_2_G_D_15_P_0" stroke="#343434" stroke-linecap="round" stroke-linejoin="round" fill="none" stroke-width="2.4" stroke-opacity="1" d=" M199.74 207.89 C199.74,207.89 304.03,207.89 304.03,207.89 C304.03,207.89 304.03,232.52 304.03,232.52 C304.03,232.52 199.74,232.52 199.74,232.52 C192.95,232.52 187.43,227 187.43,220.21 C187.43,213.42 192.95,207.9 199.74,207.9 C199.74,207.9 199.74,207.89 199.74,207.89z "/><path id="_R_G_L_2_G_D_16_P_0" stroke="#343434" stroke-linecap="round" stroke-linejoin="round" fill="none" stroke-width="2.4" stroke-opacity="1" d=" M201.73 102.07 C201.73,102.07 201.73,207.89 201.73,207.89 "/><path id="_R_G_L_2_G_D_17_P_0" stroke="#343434" stroke-linecap="round" stroke-linejoin="round" fill="none" stroke-width="2.292" stroke-opacity="1" d=" M304.02 220.2 C304.02,220.2 201.73,220.2 201.73,220.2 "/><path id="_R_G_L_2_G_D_18_P_0" fill="#343434" fill-opacity="1" fill-rule="nonzero" d=" M194.61 232.51 C194.61,232.51 229.26,249.05 229.26,249.05 C229.26,249.05 229.26,232.51 229.26,232.51 C229.26,232.51 194.61,232.51 194.61,232.51z "/><path id="_R_G_L_2_G_D_19_P_0" fill="#343434" fill-opacity="1" fill-rule="nonzero" d=" M119.61 278.62 C119.61,278.62 154.26,295.14 154.26,295.14 C154.26,295.14 154.26,278.62 154.26,278.62 C154.26,278.62 119.61,278.62 119.61,278.62z "/></g><g id="_R_G_L_1_G_M"><g id="_R_G_L_1_G" transform=" translate(260.5, 241.936) scale(1.35, 1.35) translate(-175, -162.936)"><path id="_R_G_L_1_G_D_0_P_0" stroke="#343434" stroke-linecap="round" stroke-linejoin="round" fill="none" stroke-width="2.4" stroke-opacity="1" d=" M80.37 232.51 C80.37,232.51 79.62,234.03 79.62,234.03 C79.62,234.03 81.12,234.14 81.12,234.14 C81.12,234.14 81.12,234.48 81.12,234.48 C81.12,234.48 81.25,232.85 81.25,232.85 "/></g></g><g id="_R_G_L_0_G_M"><g id="_R_G_L_0_G"><path id="_R_G_L_0_G_D_0_P_0" fill="#f2b855" fill-opacity="1" fill-rule="nonzero" d=" M260.28 83.58 C260.28,83.58 274.34,121.58 274.34,121.58 C274.34,121.58 312.34,135.64 312.34,135.64 C312.34,135.64 274.34,149.7 274.34,149.7 C274.34,149.7 260.28,187.7 260.28,187.7 C260.28,187.7 246.22,149.7 246.22,149.7 C246.22,149.7 208.22,135.64 208.22,135.64 C208.22,135.64 246.22,121.58 246.22,121.58 C246.22,121.58 260.28,83.58 260.28,83.58z "/><path id="_R_G_L_0_G_D_1_P_0" stroke="#343434" stroke-linecap="round" stroke-linejoin="round" fill="none" stroke-width="7" stroke-opacity="1" d=" M260.28 83.58 C260.28,83.58 274.34,121.58 274.34,121.58 C274.34,121.58 312.34,135.64 312.34,135.64 C312.34,135.64 274.34,149.7 274.34,149.7 C274.34,149.7 260.28,187.7 260.28,187.7 C260.28,187.7 246.22,149.7 246.22,149.7 C246.22,149.7 208.22,135.64 208.22,135.64 C208.22,135.64 246.22,121.58 246.22,121.58 C246.22,121.58 260.28,83.58 260.28,83.58z "/></g></g></g><g id="time_group"/></svg>