<svg xmlns="http://www.w3.org/2000/svg" xmlns:xlink="http://www.w3.org/1999/xlink" preserveAspectRatio="xMidYMid meet" width="350" height="326" viewBox="0 0 350 326" style="width:100%;height:100%"><defs><animate repeatCount="indefinite" dur="3.003003s" begin="0s" xlink:href="#_R_G_L_3_C_0_P_0" fill="freeze" attributeName="d" attributeType="XML" from="M140.9 155.97 C116.04,157.34 98.43,175.21 98.41,199.23 C98.4,221.11 114.14,244 144.48,243.62 C169.93,243.3 187.49,218.24 186.31,198.07 C185.09,177.11 167.74,154.49 140.9,155.97z " to="M140.84 155.92 C115.98,157.29 98.37,175.16 98.35,199.18 C98.33,221.06 114.08,243.95 144.41,243.57 C169.87,243.25 187.43,218.19 186.25,198.02 C185.03,177.06 167.68,154.44 140.84,155.92z " keyTimes="0;0.0833333;0.1666667;0.25;0.3333334;0.4166667;0.5;0.5833334;0.6666667;0.7083334;0.7500001;0.7916667;0.8333334;0.8750001;0.9166667;1" values="M140.9 155.97 C116.04,157.34 98.43,175.21 98.41,199.23 C98.4,221.11 114.14,244 144.48,243.62 C169.93,243.3 187.49,218.24 186.31,198.07 C185.09,177.11 167.74,154.49 140.9,155.97z ;M135.1 151.26 C110.24,152.63 92.63,170.5 92.61,194.52 C92.59,216.4 108.34,239.29 138.67,238.91 C164.13,238.59 181.69,213.53 180.51,193.36 C179.29,172.4 161.94,149.78 135.1,151.26z ;M129.77 144.97 C104.91,146.33 87.3,164.21 87.28,188.22 C87.26,210.1 103.01,232.99 133.34,232.62 C158.79,232.3 176.36,207.24 175.18,187.06 C173.96,166.1 156.61,143.49 129.77,144.97z ;M130.14 137.26 C105.27,138.63 87.67,156.5 87.65,180.51 C87.63,202.4 103.38,225.28 133.71,224.91 C159.16,224.59 176.73,199.53 175.55,179.36 C174.33,158.39 156.98,135.78 130.14,137.26z ;M135.93 132.22 C111.07,133.59 93.46,151.46 93.44,175.47 C93.42,197.35 109.17,220.24 139.5,219.87 C164.96,219.55 182.52,194.49 181.34,174.31 C180.12,153.35 162.77,130.74 135.93,132.22z ;M148.34 129.75 C123.48,131.12 105.88,148.99 105.86,173.01 C105.84,194.89 121.58,217.78 151.92,217.4 C177.37,217.08 194.93,192.02 193.76,171.85 C192.53,150.89 175.18,128.27 148.34,129.75z ;M161.12 132.52 C136.25,133.89 118.65,151.76 118.63,175.77 C118.61,197.66 134.35,220.55 164.69,220.17 C190.14,219.85 207.7,194.79 206.53,174.62 C205.31,153.66 187.96,131.04 161.12,132.52z ;M172.54 139.31 C147.68,140.68 130.08,158.56 130.06,182.57 C130.04,204.45 145.78,227.34 176.12,226.96 C201.57,226.65 219.13,201.58 217.96,181.41 C216.73,160.45 199.38,137.84 172.54,139.31z ;M178.33 150.84 C153.46,152.21 135.86,170.08 135.84,194.1 C135.82,215.98 151.57,238.87 181.9,238.49 C207.35,238.17 224.92,213.11 223.74,192.94 C222.52,171.98 205.17,149.36 178.33,150.84z ;M176.3 155.8 C151.44,157.17 133.83,175.04 133.81,199.06 C133.79,220.94 149.54,243.83 179.87,243.45 C205.33,243.13 222.89,218.07 221.71,197.9 C220.49,176.94 203.14,154.32 176.3,155.8z ;M172.25 158.39 C147.38,159.76 129.78,177.63 129.76,201.65 C129.74,223.53 145.48,246.42 175.82,246.04 C201.27,245.72 218.83,220.66 217.66,200.49 C216.44,179.53 199.09,156.91 172.25,158.39z ;M166.97 159.29 C142.1,160.66 124.5,178.53 124.48,202.55 C124.46,224.43 140.21,247.32 170.54,246.94 C195.99,246.62 213.56,221.56 212.38,201.39 C211.16,180.43 193.81,157.81 166.97,159.29z ;M161.7 159.18 C136.83,160.55 119.23,178.42 119.21,202.43 C119.19,224.32 134.94,247.21 165.27,246.83 C190.73,246.51 208.29,221.45 207.11,201.28 C205.89,180.32 188.54,157.7 161.7,159.18z ;M156.66 159.22 C131.8,160.59 114.19,178.46 114.17,202.48 C114.15,224.36 129.9,247.25 160.23,246.87 C185.69,246.56 203.25,221.49 202.07,201.32 C200.85,180.36 183.5,157.75 156.66,159.22z ;M151.37 158.45 C126.5,159.82 108.9,177.7 108.88,201.71 C108.86,223.59 124.61,246.48 154.94,246.1 C180.39,245.79 197.95,220.73 196.78,200.55 C195.56,179.59 178.21,156.98 151.37,158.45z ;M140.84 155.92 C115.98,157.29 98.37,175.16 98.35,199.18 C98.33,221.06 114.08,243.95 144.41,243.57 C169.87,243.25 187.43,218.19 186.25,198.02 C185.03,177.06 167.68,154.44 140.84,155.92z " keySplines="0.167 0.168 0.833 0.833;0.167 0.167 0.833 0.833;0.167 0.167 0.833 0.833;0.167 0.167 0.833 0.832;0.167 0.168 0.833 0.833;0.167 0.167 0.833 0.832;0.167 0.168 0.833 0.833;0.167 0.167 0.833 0.832;0.167 0.168 0.833 0.833;0.167 0.167 0.833 0.833;0.167 0.167 0.833 0.833;0.167 0.167 0.833 0.832;0.167 0.168 0.833 0.833;0.167 0.167 0.833 0.833;0.167 0.167 0.833 0.832" calcMode="spline"/><clipPath id="_R_G_L_3_C_0"><path id="_R_G_L_3_C_0_P_0" fill-rule="nonzero"/></clipPath><animateMotion repeatCount="indefinite" dur="3.003003s" begin="0s" xlink:href="#_R_G_L_2_G" fill="freeze" keyTimes="0;0.3333334;0.6666667;1" path="M175 162.94 C160.39,153.03 151.38,141.87 168,132.27 C184.62,122.67 224.04,135.92 223.04,156.28 C222.04,176.65 175,162.94 175,162.94 " keyPoints="0;0.25;0.67;1" keySplines="0 0 1 1;0 0 1 1;0 0 1 1" calcMode="spline"/><animateTransform repeatCount="indefinite" dur="3.003003s" begin="0s" xlink:href="#_R_G_L_2_G" fill="freeze" attributeName="transform" from="-175 -162.936" to="-175 -162.936" type="translate" additive="sum" keyTimes="0;1" values="-175 -162.936;-175 -162.936" keySplines="0 0 1 1" calcMode="spline"/><animateMotion repeatCount="indefinite" dur="3.003003s" begin="0s" xlink:href="#_R_G_L_1_G" fill="freeze" keyTimes="0;0.3333334;0.6666667;1" path="M175 162.94 C160.39,153.03 151.38,141.87 168,132.27 C184.62,122.67 224.04,135.92 223.04,156.28 C222.04,176.65 175,162.94 175,162.94 " keyPoints="0;0.25;0.67;1" keySplines="0 0 1 1;0 0 1 1;0 0 1 1" calcMode="spline"/><animateTransform repeatCount="indefinite" dur="3.003003s" begin="0s" xlink:href="#_R_G_L_1_G" fill="freeze" attributeName="transform" from="-175 -162.936" to="-175 -162.936" type="translate" additive="sum" keyTimes="0;1" values="-175 -162.936;-175 -162.936" keySplines="0 0 1 1" calcMode="spline"/><animateMotion repeatCount="indefinite" dur="3.003003s" begin="0s" xlink:href="#_R_G_L_0_G" fill="freeze" keyTimes="0;0.3333334;0.6666667;1" path="M175 162.94 C160.39,153.03 151.38,141.87 168,132.27 C184.62,122.67 224.04,135.92 223.04,156.28 C222.04,176.65 175,162.94 175,162.94 " keyPoints="0;0.25;0.67;1" keySplines="0 0 1 1;0 0 1 1;0 0 1 1" calcMode="spline"/><animateTransform repeatCount="indefinite" dur="3.003003s" begin="0s" xlink:href="#_R_G_L_0_G" fill="freeze" attributeName="transform" from="-175 -162.936" to="-175 -162.936" type="translate" additive="sum" keyTimes="0;1" values="-175 -162.936;-175 -162.936" keySplines="0 0 1 1" calcMode="spline"/><animate attributeType="XML" attributeName="opacity" dur="3s" from="0" to="1" xlink:href="#time_group"/></defs><g id="_R_G"><g id="_R_G_L_4_G"><path id="_R_G_L_4_G_D_0_P_0" fill="#ffffff" fill-opacity="1" fill-rule="nonzero" d=" M312.97 256.6 C312.97,256.6 124.16,256.63 124.16,256.63 C124.16,256.63 124.16,76.89 124.16,76.89 C124.16,76.89 312.97,76.89 312.97,76.89 C312.97,76.89 312.97,256.6 312.97,256.6z "/><path id="_R_G_L_4_G_D_1_P_0" stroke="#343434" stroke-linecap="round" stroke-linejoin="round" fill="none" stroke-width="2" stroke-opacity="1" d=" M312.97 256.6 C312.97,256.6 124.16,256.63 124.16,256.63 C124.16,256.63 124.16,76.89 124.16,76.89 C124.16,76.89 312.97,76.89 312.97,76.89 C312.97,76.89 312.97,256.6 312.97,256.6z "/><path id="_R_G_L_4_G_D_2_P_0" fill="#343434" fill-opacity="1" fill-rule="nonzero" d=" M312.77 256.63 C312.77,256.63 124.16,256.63 124.16,256.63 C124.16,256.63 124.16,247.27 124.16,247.27 C124.16,247.27 312.77,247.27 312.77,247.27 C312.77,247.27 312.77,256.63 312.77,256.63z "/><path id="_R_G_L_4_G_D_3_P_0" fill="#343434" fill-opacity="1" fill-rule="nonzero" d=" M304.69 251.95 C304.69,251.95 314.05,251.95 314.05,251.95 C314.05,251.95 314.05,76.89 314.05,76.89 C314.05,76.89 304.69,76.89 304.69,76.89 C304.69,76.89 304.69,251.95 304.69,251.95z "/><path id="_R_G_L_4_G_D_4_P_0" stroke="#343434" stroke-linecap="round" stroke-linejoin="round" fill="none" stroke-width="2" stroke-opacity="1" d=" M218.62 24.98 C218.62,24.98 270.53,76.89 270.53,76.89 "/><path id="_R_G_L_4_G_D_5_P_0" stroke="#343434" stroke-linecap="round" stroke-linejoin="round" fill="none" stroke-width="2" stroke-opacity="1" d=" M218.62 24.98 C218.62,24.98 166.71,76.89 166.71,76.89 "/><path id="_R_G_L_4_G_D_6_P_0" fill="#ea7565" fill-opacity="1" fill-rule="nonzero" d=" M218.62 39.92 C226.87,39.92 233.56,33.23 233.56,24.98 C233.56,16.73 226.87,10.04 218.62,10.04 C210.37,10.04 203.68,16.73 203.68,24.98 C203.68,33.23 210.37,39.92 218.62,39.92z "/><path id="_R_G_L_4_G_D_7_P_0" stroke="#343434" stroke-linecap="round" stroke-linejoin="round" fill="none" stroke-width="2" stroke-opacity="1" d=" M218.62 39.92 C226.87,39.92 233.56,33.23 233.56,24.98 C233.56,16.73 226.87,10.04 218.62,10.04 C210.37,10.04 203.68,16.73 203.68,24.98 C203.68,33.23 210.37,39.92 218.62,39.92z "/><path id="_R_G_L_4_G_D_8_P_0" fill="#ffffff" fill-opacity="1" fill-rule="nonzero" d=" M197.76 90.52 C197.76,90.52 148.45,90.52 148.45,90.52 C143.48,90.52 139.45,94.55 139.45,99.52 C139.45,99.52 139.45,145.82 139.45,145.82 C139.45,150.79 143.48,154.82 148.45,154.82 C148.45,154.82 197.76,154.82 197.76,154.82 C202.73,154.82 206.76,150.79 206.76,145.82 C206.76,145.82 206.76,99.52 206.76,99.52 C206.76,94.55 202.73,90.52 197.76,90.52z "/><path id="_R_G_L_4_G_D_9_P_0" stroke="#343434" stroke-linecap="round" stroke-linejoin="round" fill="none" stroke-width="1.89" stroke-opacity="1" d=" M197.76 90.52 C197.76,90.52 148.45,90.52 148.45,90.52 C143.48,90.52 139.45,94.55 139.45,99.52 C139.45,99.52 139.45,145.82 139.45,145.82 C139.45,150.79 143.48,154.82 148.45,154.82 C148.45,154.82 197.76,154.82 197.76,154.82 C202.73,154.82 206.76,150.79 206.76,145.82 C206.76,145.82 206.76,99.52 206.76,99.52 C206.76,94.55 202.73,90.52 197.76,90.52z "/><path id="_R_G_L_4_G_D_10_P_0" fill="#72c4a7" fill-opacity="1" fill-rule="nonzero" d=" M173.1 129.94 C180.92,129.94 187.25,123.6 187.25,115.79 C187.25,107.97 180.92,101.64 173.1,101.64 C165.29,101.64 158.95,107.97 158.95,115.79 C158.95,123.6 165.29,129.94 173.1,129.94z "/><path id="_R_G_L_4_G_D_11_P_0" stroke="#343434" stroke-linecap="round" stroke-linejoin="round" fill="none" stroke-width="1.82" stroke-opacity="1" d=" M173.1 129.94 C180.92,129.94 187.25,123.6 187.25,115.79 C187.25,107.97 180.92,101.64 173.1,101.64 C165.29,101.64 158.95,107.97 158.95,115.79 C158.95,123.6 165.29,129.94 173.1,129.94z "/><path id="_R_G_L_4_G_D_12_P_0" fill="#72c4a7" fill-opacity="1" fill-rule="nonzero" d=" M191.82 154.82 C191.82,154.82 154.4,154.82 154.4,154.82 C154.4,144.49 162.78,136.11 173.11,136.11 C183.44,136.11 191.82,144.49 191.82,154.82z "/><path id="_R_G_L_4_G_D_13_P_0" stroke="#343434" stroke-linecap="round" stroke-linejoin="round" fill="none" stroke-width="1.82" stroke-opacity="1" d=" M191.82 154.82 C191.82,154.82 154.4,154.82 154.4,154.82 C154.4,144.49 162.78,136.11 173.11,136.11 C183.44,136.11 191.82,144.49 191.82,154.82z "/><path id="_R_G_L_4_G_D_14_P_0" fill="#ffffff" fill-opacity="1" fill-rule="nonzero" d=" M281.58 90.52 C281.58,90.52 232.27,90.52 232.27,90.52 C227.3,90.52 223.27,94.55 223.27,99.52 C223.27,99.52 223.27,145.82 223.27,145.82 C223.27,150.79 227.3,154.82 232.27,154.82 C232.27,154.82 281.58,154.82 281.58,154.82 C286.55,154.82 290.58,150.79 290.58,145.82 C290.58,145.82 290.58,99.52 290.58,99.52 C290.58,94.55 286.55,90.52 281.58,90.52z "/><path id="_R_G_L_4_G_D_15_P_0" stroke="#343434" stroke-linecap="round" stroke-linejoin="round" fill="none" stroke-width="1.89" stroke-opacity="1" d=" M281.58 90.52 C281.58,90.52 232.27,90.52 232.27,90.52 C227.3,90.52 223.27,94.55 223.27,99.52 C223.27,99.52 223.27,145.82 223.27,145.82 C223.27,150.79 227.3,154.82 232.27,154.82 C232.27,154.82 281.58,154.82 281.58,154.82 C286.55,154.82 290.58,150.79 290.58,145.82 C290.58,145.82 290.58,99.52 290.58,99.52 C290.58,94.55 286.55,90.52 281.58,90.52z "/><path id="_R_G_L_4_G_D_16_P_0" fill="#63acde" fill-opacity="1" fill-rule="nonzero" d=" M256.92 129.94 C264.73,129.94 271.07,123.6 271.07,115.79 C271.07,107.97 264.73,101.64 256.92,101.64 C249.1,101.64 242.77,107.97 242.77,115.79 C242.77,123.6 249.1,129.94 256.92,129.94z "/><path id="_R_G_L_4_G_D_17_P_0" stroke="#343434" stroke-linecap="round" stroke-linejoin="round" fill="none" stroke-width="1.82" stroke-opacity="1" d=" M256.92 129.94 C264.73,129.94 271.07,123.6 271.07,115.79 C271.07,107.97 264.73,101.64 256.92,101.64 C249.1,101.64 242.77,107.97 242.77,115.79 C242.77,123.6 249.1,129.94 256.92,129.94z "/><path id="_R_G_L_4_G_D_18_P_0" fill="#63acde" fill-opacity="1" fill-rule="nonzero" d=" M275.63 154.82 C275.63,154.82 238.21,154.82 238.21,154.82 C238.21,144.49 246.59,136.11 256.92,136.11 C267.25,136.11 275.63,144.49 275.63,154.82z "/><path id="_R_G_L_4_G_D_19_P_0" stroke="#343434" stroke-linecap="round" stroke-linejoin="round" fill="none" stroke-width="1.82" stroke-opacity="1" d=" M275.63 154.82 C275.63,154.82 238.21,154.82 238.21,154.82 C238.21,144.49 246.59,136.11 256.92,136.11 C267.25,136.11 275.63,144.49 275.63,154.82z "/><path id="_R_G_L_4_G_D_20_P_0" fill="#ffffff" fill-opacity="1" fill-rule="nonzero" d=" M197.76 170.14 C197.76,170.14 148.45,170.14 148.45,170.14 C143.48,170.14 139.45,174.17 139.45,179.14 C139.45,179.14 139.45,225.44 139.45,225.44 C139.45,230.41 143.48,234.44 148.45,234.44 C148.45,234.44 197.76,234.44 197.76,234.44 C202.73,234.44 206.76,230.41 206.76,225.44 C206.76,225.44 206.76,179.14 206.76,179.14 C206.76,174.17 202.73,170.14 197.76,170.14z "/><path id="_R_G_L_4_G_D_21_P_0" stroke="#343434" stroke-linecap="round" stroke-linejoin="round" fill="none" stroke-width="1.89" stroke-opacity="1" d=" M197.76 170.14 C197.76,170.14 148.45,170.14 148.45,170.14 C143.48,170.14 139.45,174.17 139.45,179.14 C139.45,179.14 139.45,225.44 139.45,225.44 C139.45,230.41 143.48,234.44 148.45,234.44 C148.45,234.44 197.76,234.44 197.76,234.44 C202.73,234.44 206.76,230.41 206.76,225.44 C206.76,225.44 206.76,179.14 206.76,179.14 C206.76,174.17 202.73,170.14 197.76,170.14z "/><path id="_R_G_L_4_G_D_22_P_0" fill="#72c4a7" fill-opacity="1" fill-rule="nonzero" d=" M173.1 209.56 C180.92,209.56 187.25,203.22 187.25,195.41 C187.25,187.59 180.92,181.26 173.1,181.26 C165.29,181.26 158.95,187.59 158.95,195.41 C158.95,203.22 165.29,209.56 173.1,209.56z "/><path id="_R_G_L_4_G_D_23_P_0" stroke="#343434" stroke-linecap="round" stroke-linejoin="round" fill="none" stroke-width="1.82" stroke-opacity="1" d=" M173.1 209.56 C180.92,209.56 187.25,203.22 187.25,195.41 C187.25,187.59 180.92,181.26 173.1,181.26 C165.29,181.26 158.95,187.59 158.95,195.41 C158.95,203.22 165.29,209.56 173.1,209.56z "/><path id="_R_G_L_4_G_D_24_P_0" fill="#72c4a7" fill-opacity="1" fill-rule="nonzero" d=" M191.82 234.44 C191.82,234.44 154.4,234.44 154.4,234.44 C154.4,224.11 162.78,215.73 173.11,215.73 C183.44,215.73 191.82,224.11 191.82,234.44z "/><path id="_R_G_L_4_G_D_25_P_0" stroke="#343434" stroke-linecap="round" stroke-linejoin="round" fill="none" stroke-width="1.82" stroke-opacity="1" d=" M191.82 234.44 C191.82,234.44 154.4,234.44 154.4,234.44 C154.4,224.11 162.78,215.73 173.11,215.73 C183.44,215.73 191.82,224.11 191.82,234.44z "/><path id="_R_G_L_4_G_D_26_P_0" fill="#ffffff" fill-opacity="1" fill-rule="nonzero" d=" M281.58 170.14 C281.58,170.14 232.27,170.14 232.27,170.14 C227.3,170.14 223.27,174.17 223.27,179.14 C223.27,179.14 223.27,225.44 223.27,225.44 C223.27,230.41 227.3,234.44 232.27,234.44 C232.27,234.44 281.58,234.44 281.58,234.44 C286.55,234.44 290.58,230.41 290.58,225.44 C290.58,225.44 290.58,179.14 290.58,179.14 C290.58,174.17 286.55,170.14 281.58,170.14z "/><path id="_R_G_L_4_G_D_27_P_0" stroke="#343434" stroke-linecap="round" stroke-linejoin="round" fill="none" stroke-width="1.89" stroke-opacity="1" d=" M281.58 170.14 C281.58,170.14 232.27,170.14 232.27,170.14 C227.3,170.14 223.27,174.17 223.27,179.14 C223.27,179.14 223.27,225.44 223.27,225.44 C223.27,230.41 227.3,234.44 232.27,234.44 C232.27,234.44 281.58,234.44 281.58,234.44 C286.55,234.44 290.58,230.41 290.58,225.44 C290.58,225.44 290.58,179.14 290.58,179.14 C290.58,174.17 286.55,170.14 281.58,170.14z "/><path id="_R_G_L_4_G_D_28_P_0" fill="#ea7565" fill-opacity="1" fill-rule="nonzero" d=" M256.92 209.56 C264.73,209.56 271.07,203.22 271.07,195.41 C271.07,187.59 264.73,181.26 256.92,181.26 C249.1,181.26 242.77,187.59 242.77,195.41 C242.77,203.22 249.1,209.56 256.92,209.56z "/><path id="_R_G_L_4_G_D_29_P_0" stroke="#343434" stroke-linecap="round" stroke-linejoin="round" fill="none" stroke-width="2.1" stroke-opacity="1" d=" M256.92 209.56 C264.73,209.56 271.07,203.22 271.07,195.41 C271.07,187.59 264.73,181.26 256.92,181.26 C249.1,181.26 242.77,187.59 242.77,195.41 C242.77,203.22 249.1,209.56 256.92,209.56z "/><path id="_R_G_L_4_G_D_30_P_0" fill="#ea7565" fill-opacity="1" fill-rule="nonzero" d=" M275.63 234.44 C275.63,234.44 238.21,234.44 238.21,234.44 C238.21,224.11 246.59,215.73 256.92,215.73 C267.25,215.73 275.63,224.11 275.63,234.44z "/><path id="_R_G_L_4_G_D_31_P_0" stroke="#343434" stroke-linecap="round" stroke-linejoin="round" fill="none" stroke-width="2.1" stroke-opacity="1" d=" M275.63 234.44 C275.63,234.44 238.21,234.44 238.21,234.44 C238.21,224.11 246.59,215.73 256.92,215.73 C267.25,215.73 275.63,224.11 275.63,234.44z "/></g><g id="_R_G_L_3_G" transform=" translate(175, 154.936) scale(1.3, 1.3) translate(-175, -162.936)"><g clip-path="url(#_R_G_L_3_C_0)"><g id="_R_G_L_3_G_G_0_D_0_P_0_G_0_T_0" transform=" translate(218.565, 166.756) scale(1.78, 1.78) translate(0, 0)"><path id="_R_G_L_3_G_G_0_D_0_P_0" fill="#fbaf12" fill-opacity="1" fill-rule="nonzero" opacity="0.5" d=" M94.41 89.84 C94.41,89.84 -94.4,89.87 -94.4,89.87 C-94.4,89.87 -94.4,-89.87 -94.4,-89.87 C-94.4,-89.87 94.41,-89.87 94.41,-89.87 C94.41,-89.87 94.41,89.84 94.41,89.84z "/></g><g id="_R_G_L_3_G_G_0_D_1_P_0_G_0_T_0" transform=" translate(218.565, 166.756) scale(1.78, 1.78) translate(0, 0)"><path id="_R_G_L_3_G_G_0_D_1_P_0" stroke="#343434" stroke-linecap="round" stroke-linejoin="round" fill="none" stroke-width="2" stroke-opacity="1" opacity="0.5" d=" M94.41 89.84 C94.41,89.84 -94.4,89.87 -94.4,89.87 C-94.4,89.87 -94.4,-89.87 -94.4,-89.87 C-94.4,-89.87 94.41,-89.87 94.41,-89.87 C94.41,-89.87 94.41,89.84 94.41,89.84z "/></g><path id="_R_G_L_3_G_G_0_D_2_P_0" fill="#ffffff" fill-opacity="1" fill-rule="nonzero" d=" M312.97 256.6 C312.97,256.6 124.16,256.63 124.16,256.63 C124.16,256.63 124.16,76.89 124.16,76.89 C124.16,76.89 312.97,76.89 312.97,76.89 C312.97,76.89 312.97,256.6 312.97,256.6z "/><path id="_R_G_L_3_G_G_0_D_3_P_0" stroke="#000000" stroke-linecap="round" stroke-linejoin="round" fill="none" stroke-width="2" stroke-opacity="1" d=" M312.97 256.6 C312.97,256.6 124.16,256.63 124.16,256.63 C124.16,256.63 124.16,76.89 124.16,76.89 C124.16,76.89 312.97,76.89 312.97,76.89 C312.97,76.89 312.97,256.6 312.97,256.6z "/><path id="_R_G_L_3_G_G_0_D_4_P_0" fill="#343434" fill-opacity="1" fill-rule="nonzero" d=" M312.77 256.63 C312.77,256.63 124.16,256.63 124.16,256.63 C124.16,256.63 124.16,247.27 124.16,247.27 C124.16,247.27 312.77,247.27 312.77,247.27 C312.77,247.27 312.77,256.63 312.77,256.63z "/><path id="_R_G_L_3_G_G_0_D_5_P_0" fill="#343434" fill-opacity="1" fill-rule="nonzero" d=" M304.69 251.95 C304.69,251.95 314.05,251.95 314.05,251.95 C314.05,251.95 314.05,76.89 314.05,76.89 C314.05,76.89 304.69,76.89 304.69,76.89 C304.69,76.89 304.69,251.95 304.69,251.95z "/><path id="_R_G_L_3_G_G_0_D_6_P_0" stroke="#343434" stroke-linecap="round" stroke-linejoin="round" fill="none" stroke-width="2" stroke-opacity="1" d=" M218.62 24.98 C218.62,24.98 270.53,76.89 270.53,76.89 "/><path id="_R_G_L_3_G_G_0_D_7_P_0" stroke="#343434" stroke-linecap="round" stroke-linejoin="round" fill="none" stroke-width="2" stroke-opacity="1" d=" M218.62 24.98 C218.62,24.98 166.71,76.89 166.71,76.89 "/><path id="_R_G_L_3_G_G_0_D_8_P_0" fill="#ea7565" fill-opacity="1" fill-rule="nonzero" d=" M218.62 39.92 C226.87,39.92 233.56,33.23 233.56,24.98 C233.56,16.73 226.87,10.04 218.62,10.04 C210.37,10.04 203.68,16.73 203.68,24.98 C203.68,33.23 210.37,39.92 218.62,39.92z "/><path id="_R_G_L_3_G_G_0_D_9_P_0" stroke="#343434" stroke-linecap="round" stroke-linejoin="round" fill="none" stroke-width="2" stroke-opacity="1" d=" M218.62 39.92 C226.87,39.92 233.56,33.23 233.56,24.98 C233.56,16.73 226.87,10.04 218.62,10.04 C210.37,10.04 203.68,16.73 203.68,24.98 C203.68,33.23 210.37,39.92 218.62,39.92z "/><path id="_R_G_L_3_G_G_0_D_10_P_0" fill="#ffffff" fill-opacity="1" fill-rule="nonzero" d=" M197.76 90.52 C197.76,90.52 148.45,90.52 148.45,90.52 C143.48,90.52 139.45,94.55 139.45,99.52 C139.45,99.52 139.45,145.82 139.45,145.82 C139.45,150.79 143.48,154.82 148.45,154.82 C148.45,154.82 197.76,154.82 197.76,154.82 C202.73,154.82 206.76,150.79 206.76,145.82 C206.76,145.82 206.76,99.52 206.76,99.52 C206.76,94.55 202.73,90.52 197.76,90.52z "/><path id="_R_G_L_3_G_G_0_D_11_P_0" stroke="#000000" stroke-linecap="round" stroke-linejoin="round" fill="none" stroke-width="1.89" stroke-opacity="1" d=" M197.76 90.52 C197.76,90.52 148.45,90.52 148.45,90.52 C143.48,90.52 139.45,94.55 139.45,99.52 C139.45,99.52 139.45,145.82 139.45,145.82 C139.45,150.79 143.48,154.82 148.45,154.82 C148.45,154.82 197.76,154.82 197.76,154.82 C202.73,154.82 206.76,150.79 206.76,145.82 C206.76,145.82 206.76,99.52 206.76,99.52 C206.76,94.55 202.73,90.52 197.76,90.52z "/><path id="_R_G_L_3_G_G_0_D_12_P_0" fill="#72c4a7" fill-opacity="1" fill-rule="nonzero" d=" M173.1 129.94 C180.92,129.94 187.25,123.6 187.25,115.79 C187.25,107.97 180.92,101.64 173.1,101.64 C165.29,101.64 158.95,107.97 158.95,115.79 C158.95,123.6 165.29,129.94 173.1,129.94z "/><path id="_R_G_L_3_G_G_0_D_13_P_0" stroke="#343434" stroke-linecap="round" stroke-linejoin="round" fill="none" stroke-width="1.82" stroke-opacity="1" d=" M173.1 129.94 C180.92,129.94 187.25,123.6 187.25,115.79 C187.25,107.97 180.92,101.64 173.1,101.64 C165.29,101.64 158.95,107.97 158.95,115.79 C158.95,123.6 165.29,129.94 173.1,129.94z "/><path id="_R_G_L_3_G_G_0_D_14_P_0" fill="#72c4a7" fill-opacity="1" fill-rule="nonzero" d=" M191.82 154.82 C191.82,154.82 154.4,154.82 154.4,154.82 C154.4,144.49 162.78,136.11 173.11,136.11 C183.44,136.11 191.82,144.49 191.82,154.82z "/><path id="_R_G_L_3_G_G_0_D_15_P_0" stroke="#000000" stroke-linecap="round" stroke-linejoin="round" fill="none" stroke-width="1.82" stroke-opacity="1" d=" M191.82 154.82 C191.82,154.82 154.4,154.82 154.4,154.82 C154.4,144.49 162.78,136.11 173.11,136.11 C183.44,136.11 191.82,144.49 191.82,154.82z "/><path id="_R_G_L_3_G_G_0_D_16_P_0" fill="#ffffff" fill-opacity="1" fill-rule="nonzero" d=" M281.58 90.52 C281.58,90.52 232.27,90.52 232.27,90.52 C227.3,90.52 223.27,94.55 223.27,99.52 C223.27,99.52 223.27,145.82 223.27,145.82 C223.27,150.79 227.3,154.82 232.27,154.82 C232.27,154.82 281.58,154.82 281.58,154.82 C286.55,154.82 290.58,150.79 290.58,145.82 C290.58,145.82 290.58,99.52 290.58,99.52 C290.58,94.55 286.55,90.52 281.58,90.52z "/><path id="_R_G_L_3_G_G_0_D_17_P_0" stroke="#343434" stroke-linecap="round" stroke-linejoin="round" fill="none" stroke-width="1.89" stroke-opacity="1" d=" M281.58 90.52 C281.58,90.52 232.27,90.52 232.27,90.52 C227.3,90.52 223.27,94.55 223.27,99.52 C223.27,99.52 223.27,145.82 223.27,145.82 C223.27,150.79 227.3,154.82 232.27,154.82 C232.27,154.82 281.58,154.82 281.58,154.82 C286.55,154.82 290.58,150.79 290.58,145.82 C290.58,145.82 290.58,99.52 290.58,99.52 C290.58,94.55 286.55,90.52 281.58,90.52z "/><path id="_R_G_L_3_G_G_0_D_18_P_0" fill="#63acde" fill-opacity="1" fill-rule="nonzero" d=" M256.92 129.94 C264.73,129.94 271.07,123.6 271.07,115.79 C271.07,107.97 264.73,101.64 256.92,101.64 C249.1,101.64 242.77,107.97 242.77,115.79 C242.77,123.6 249.1,129.94 256.92,129.94z "/><path id="_R_G_L_3_G_G_0_D_19_P_0" stroke="#343434" stroke-linecap="round" stroke-linejoin="round" fill="none" stroke-width="1.82" stroke-opacity="1" d=" M256.92 129.94 C264.73,129.94 271.07,123.6 271.07,115.79 C271.07,107.97 264.73,101.64 256.92,101.64 C249.1,101.64 242.77,107.97 242.77,115.79 C242.77,123.6 249.1,129.94 256.92,129.94z "/><path id="_R_G_L_3_G_G_0_D_20_P_0" fill="#63acde" fill-opacity="1" fill-rule="nonzero" d=" M275.63 154.82 C275.63,154.82 238.21,154.82 238.21,154.82 C238.21,144.49 246.59,136.11 256.92,136.11 C267.25,136.11 275.63,144.49 275.63,154.82z "/><path id="_R_G_L_3_G_G_0_D_21_P_0" stroke="#343434" stroke-linecap="round" stroke-linejoin="round" fill="none" stroke-width="1.82" stroke-opacity="1" d=" M275.63 154.82 C275.63,154.82 238.21,154.82 238.21,154.82 C238.21,144.49 246.59,136.11 256.92,136.11 C267.25,136.11 275.63,144.49 275.63,154.82z "/><path id="_R_G_L_3_G_G_0_D_22_P_0" fill="#ffffff" fill-opacity="1" fill-rule="nonzero" d=" M197.76 170.14 C197.76,170.14 148.45,170.14 148.45,170.14 C143.48,170.14 139.45,174.17 139.45,179.14 C139.45,179.14 139.45,225.44 139.45,225.44 C139.45,230.41 143.48,234.44 148.45,234.44 C148.45,234.44 197.76,234.44 197.76,234.44 C202.73,234.44 206.76,230.41 206.76,225.44 C206.76,225.44 206.76,179.14 206.76,179.14 C206.76,174.17 202.73,170.14 197.76,170.14z "/><path id="_R_G_L_3_G_G_0_D_23_P_0" stroke="#000000" stroke-linecap="round" stroke-linejoin="round" fill="none" stroke-width="1.89" stroke-opacity="1" d=" M197.76 170.14 C197.76,170.14 148.45,170.14 148.45,170.14 C143.48,170.14 139.45,174.17 139.45,179.14 C139.45,179.14 139.45,225.44 139.45,225.44 C139.45,230.41 143.48,234.44 148.45,234.44 C148.45,234.44 197.76,234.44 197.76,234.44 C202.73,234.44 206.76,230.41 206.76,225.44 C206.76,225.44 206.76,179.14 206.76,179.14 C206.76,174.17 202.73,170.14 197.76,170.14z "/><path id="_R_G_L_3_G_G_0_D_24_P_0" fill="#72c4a7" fill-opacity="1" fill-rule="nonzero" d=" M173.1 209.56 C180.92,209.56 187.25,203.22 187.25,195.41 C187.25,187.59 180.92,181.26 173.1,181.26 C165.29,181.26 158.95,187.59 158.95,195.41 C158.95,203.22 165.29,209.56 173.1,209.56z "/><path id="_R_G_L_3_G_G_0_D_25_P_0" stroke="#000000" stroke-linecap="round" stroke-linejoin="round" fill="none" stroke-width="1.82" stroke-opacity="1" d=" M173.1 209.56 C180.92,209.56 187.25,203.22 187.25,195.41 C187.25,187.59 180.92,181.26 173.1,181.26 C165.29,181.26 158.95,187.59 158.95,195.41 C158.95,203.22 165.29,209.56 173.1,209.56z "/><path id="_R_G_L_3_G_G_0_D_26_P_0" fill="#72c4a7" fill-opacity="1" fill-rule="nonzero" d=" M191.82 234.44 C191.82,234.44 154.4,234.44 154.4,234.44 C154.4,224.11 162.78,215.73 173.11,215.73 C183.44,215.73 191.82,224.11 191.82,234.44z "/><path id="_R_G_L_3_G_G_0_D_27_P_0" stroke="#000000" stroke-linecap="round" stroke-linejoin="round" fill="none" stroke-width="1.82" stroke-opacity="1" d=" M191.82 234.44 C191.82,234.44 154.4,234.44 154.4,234.44 C154.4,224.11 162.78,215.73 173.11,215.73 C183.44,215.73 191.82,224.11 191.82,234.44z "/><path id="_R_G_L_3_G_G_0_D_28_P_0" fill="#ffffff" fill-opacity="1" fill-rule="nonzero" d=" M281.58 170.14 C281.58,170.14 232.27,170.14 232.27,170.14 C227.3,170.14 223.27,174.17 223.27,179.14 C223.27,179.14 223.27,225.44 223.27,225.44 C223.27,230.41 227.3,234.44 232.27,234.44 C232.27,234.44 281.58,234.44 281.58,234.44 C286.55,234.44 290.58,230.41 290.58,225.44 C290.58,225.44 290.58,179.14 290.58,179.14 C290.58,174.17 286.55,170.14 281.58,170.14z "/><path id="_R_G_L_3_G_G_0_D_29_P_0" stroke="#343434" stroke-linecap="round" stroke-linejoin="round" fill="none" stroke-width="1.89" stroke-opacity="1" d=" M281.58 170.14 C281.58,170.14 232.27,170.14 232.27,170.14 C227.3,170.14 223.27,174.17 223.27,179.14 C223.27,179.14 223.27,225.44 223.27,225.44 C223.27,230.41 227.3,234.44 232.27,234.44 C232.27,234.44 281.58,234.44 281.58,234.44 C286.55,234.44 290.58,230.41 290.58,225.44 C290.58,225.44 290.58,179.14 290.58,179.14 C290.58,174.17 286.55,170.14 281.58,170.14z "/><path id="_R_G_L_3_G_G_0_D_30_P_0" fill="#ea7565" fill-opacity="1" fill-rule="nonzero" d=" M256.92 209.56 C264.73,209.56 271.07,203.22 271.07,195.41 C271.07,187.59 264.73,181.26 256.92,181.26 C249.1,181.26 242.77,187.59 242.77,195.41 C242.77,203.22 249.1,209.56 256.92,209.56z "/><path id="_R_G_L_3_G_G_0_D_31_P_0" stroke="#343434" stroke-linecap="round" stroke-linejoin="round" fill="none" stroke-width="2.1" stroke-opacity="1" d=" M256.92 209.56 C264.73,209.56 271.07,203.22 271.07,195.41 C271.07,187.59 264.73,181.26 256.92,181.26 C249.1,181.26 242.77,187.59 242.77,195.41 C242.77,203.22 249.1,209.56 256.92,209.56z "/><path id="_R_G_L_3_G_G_0_D_32_P_0" fill="#ea7565" fill-opacity="1" fill-rule="nonzero" d=" M275.63 234.44 C275.63,234.44 238.21,234.44 238.21,234.44 C238.21,224.11 246.59,215.73 256.92,215.73 C267.25,215.73 275.63,224.11 275.63,234.44z "/><path id="_R_G_L_3_G_G_0_D_33_P_0" stroke="#343434" stroke-linecap="round" stroke-linejoin="round" fill="none" stroke-width="2.1" stroke-opacity="1" d=" M275.63 234.44 C275.63,234.44 238.21,234.44 238.21,234.44 C238.21,224.11 246.59,215.73 256.92,215.73 C267.25,215.73 275.63,224.11 275.63,234.44z "/></g></g><g id="_R_G_L_2_G" opacity="0.5"><path id="_R_G_L_2_G_D_0_P_0" fill="#f2b855" fill-opacity="1" fill-rule="nonzero" d=" M132.97 259.99 C164.52,259.99 190.09,234.41 190.09,202.87 C190.09,171.32 164.52,145.75 132.97,145.75 C101.42,145.75 75.85,171.32 75.85,202.87 C75.85,234.41 101.42,259.99 132.97,259.99z "/><path id="_R_G_L_2_G_D_1_P_0" stroke="#343434" stroke-linecap="round" stroke-linejoin="round" fill="none" stroke-width="2" stroke-opacity="1" d=" M132.97 259.99 C164.52,259.99 190.09,234.41 190.09,202.87 C190.09,171.32 164.52,145.75 132.97,145.75 C101.42,145.75 75.85,171.32 75.85,202.87 C75.85,234.41 101.42,259.99 132.97,259.99z "/><path id="_R_G_L_2_G_D_2_P_0" stroke="#343434" stroke-linecap="round" stroke-linejoin="round" fill="none" stroke-width="2.18" stroke-opacity="1" d=" M159.57 195.83 C159.57,195.83 113.52,241.87 113.52,241.87 "/><path id="_R_G_L_2_G_D_3_P_0" stroke="#343434" stroke-linecap="round" stroke-linejoin="round" fill="none" stroke-width="2.18" stroke-opacity="1" d=" M155.84 176.07 C155.84,176.07 109.79,222.12 109.79,222.12 "/></g><g id="_R_G_L_1_G"><path id="_R_G_L_1_G_D_0_P_0" stroke="#343434" stroke-linecap="round" stroke-linejoin="round" fill="none" stroke-width="2" stroke-opacity="1" d=" M132.97 259.99 C164.52,259.99 190.09,234.41 190.09,202.87 C190.09,171.32 164.52,145.75 132.97,145.75 C101.42,145.75 75.85,171.32 75.85,202.87 C75.85,234.41 101.42,259.99 132.97,259.99z "/><path id="_R_G_L_1_G_D_1_P_0" stroke="#343434" stroke-linecap="round" stroke-linejoin="round" fill="none" stroke-width="2.18" stroke-opacity="1" d=" M159.57 195.83 C159.57,195.83 113.52,241.87 113.52,241.87 "/><path id="_R_G_L_1_G_D_2_P_0" stroke="#343434" stroke-linecap="round" stroke-linejoin="round" fill="none" stroke-width="2.18" stroke-opacity="1" d=" M155.84 176.07 C155.84,176.07 109.79,222.12 109.79,222.12 "/></g><g id="_R_G_L_0_G"><path id="_R_G_L_0_G_D_0_P_0" fill="#ffffff" fill-opacity="1" fill-rule="nonzero" d=" M77.66 235.54 C77.66,235.54 100.43,258.3 100.43,258.3 C100.43,258.3 45.77,313.21 45.77,313.21 C43.47,315.82 37.15,317.76 33.04,313.21 C33.04,313.21 23.01,303.18 23.01,303.18 C19.49,299.66 19.49,293.96 23.01,290.45 C23.01,290.45 77.66,235.54 77.66,235.54z "/><path id="_R_G_L_0_G_D_1_P_0" stroke="#343434" stroke-linecap="round" stroke-linejoin="round" fill="none" stroke-width="2" stroke-opacity="1" d=" M77.66 235.54 C77.66,235.54 100.43,258.3 100.43,258.3 C100.43,258.3 45.77,313.21 45.77,313.21 C43.47,315.82 37.15,317.76 33.04,313.21 C33.04,313.21 23.01,303.18 23.01,303.18 C19.49,299.66 19.49,293.96 23.01,290.45 C23.01,290.45 77.66,235.54 77.66,235.54z "/><path id="_R_G_L_0_G_D_2_P_0" fill="#ffffff" fill-opacity="1" fill-rule="nonzero" d=" M73.78 224 C73.78,224 111.72,263.44 111.72,263.44 C111.72,263.44 102.82,272.08 102.82,272.08 C99.31,275.59 93.61,275.59 90.09,272.08 C90.09,272.08 64.13,246.12 64.13,246.12 C60.62,242.61 60.62,236.91 64.13,233.39 C64.13,233.39 73.78,224 73.78,224z "/><path id="_R_G_L_0_G_D_3_P_0" stroke="#343434" stroke-linecap="round" stroke-linejoin="round" fill="none" stroke-width="1.91" stroke-opacity="1" d=" M73.78 224 C73.78,224 111.72,263.44 111.72,263.44 C111.72,263.44 102.82,272.08 102.82,272.08 C99.31,275.59 93.61,275.59 90.09,272.08 C90.09,272.08 64.13,246.12 64.13,246.12 C60.62,242.61 60.62,236.91 64.13,233.39 C64.13,233.39 73.78,224 73.78,224z "/><path id="_R_G_L_0_G_D_4_P_0" fill="#343434" fill-opacity="1" fill-rule="nonzero" d=" M45.28 314.03 C44.82,314.64 38.59,319.35 34.52,315.59 C29.92,310.68 27.69,308.61 27.69,308.61 C27.69,308.61 89.05,246.92 89.05,246.92 C89.05,246.92 100.43,258.3 100.43,258.3 C100.43,258.3 45.74,313.41 45.28,314.03z "/><path id="_R_G_L_0_G_D_5_P_0" fill="#343434" fill-opacity="1" fill-rule="nonzero" d=" M89.23 247.35 C89.23,247.35 117.04,257.91 117.04,257.91 C117.04,257.91 102.78,272.17 102.78,272.17 C99.3,275.65 93.66,275.65 90.18,272.17 C90.18,272.17 76.93,258.92 76.93,258.92 C76.93,258.92 89.12,246.86 89.12,246.86 C89.12,246.86 89.23,247.35 89.23,247.35z "/><path id="_R_G_L_0_G_D_6_P_0" stroke="#ffffff" stroke-linecap="round" stroke-linejoin="round" fill="none" stroke-width="10" stroke-opacity="1" d=" M132.97 265.7 C167.67,265.7 195.8,237.57 195.8,202.87 C195.8,168.16 167.67,140.03 132.97,140.03 C98.27,140.03 70.14,168.16 70.14,202.87 C70.14,237.57 98.27,265.7 132.97,265.7z "/><path id="_R_G_L_0_G_D_9_P_0" stroke="#343434" stroke-linecap="round" stroke-linejoin="round" fill="none" stroke-width="2" stroke-opacity="1" d=" M132.97 259.99 C164.52,259.99 190.09,234.41 190.09,202.87 C190.09,171.32 164.52,145.75 132.97,145.75 C101.42,145.75 75.85,171.32 75.85,202.87 C75.85,234.41 101.42,259.99 132.97,259.99z "/><path id="_R_G_L_0_G_D_10_P_0" stroke="#343434" stroke-linecap="round" stroke-linejoin="round" fill="none" stroke-width="2" stroke-opacity="1" d=" M132.97 271.41 C170.83,271.41 201.51,240.72 201.51,202.87 C201.51,165.01 170.83,134.32 132.97,134.32 C95.11,134.32 64.43,165.01 64.43,202.87 C64.43,240.72 95.11,271.41 132.97,271.41z "/></g></g><g id="time_group"/></svg>