<svg xmlns="http://www.w3.org/2000/svg" xmlns:xlink="http://www.w3.org/1999/xlink" preserveAspectRatio="xMidYMid meet" width="350" height="425" viewBox="0 0 350 425" style="width:100%;height:100%"><defs><animateMotion repeatCount="indefinite" dur="4.8048048s" begin="0s" xlink:href="#_R_G_L_7_G" fill="freeze" keyTimes="0;0.0208333;0.2430556;1" path="M32.65 -12.9 C32.65,-12.9 32.65,-12.9 32.65,-12.9 C32.65,-12.9 32.65,432.1 32.65,432.1 C32.65,432.1 32.65,432.1 32.65,432.1 " keyPoints="0;0;1;1" keySplines="0.167 0.167 0.833 0.833;0.167 0.167 0.833 0.833;0 0 0 0" calcMode="spline"/><animateTransform repeatCount="indefinite" dur="4.8048048s" begin="0s" xlink:href="#_R_G_L_7_G" fill="freeze" attributeName="transform" from="-720" to="1080" type="rotate" additive="sum" keyTimes="0;0.0138889;0.9861111;1" values="-720;-720;1080;1080" keySplines="0.167 0.167 0.833 0.833;0.167 0.167 0.833 0.833;0 0 0 0" calcMode="spline"/><animateTransform repeatCount="indefinite" dur="4.8048048s" begin="0s" xlink:href="#_R_G_L_7_G" fill="freeze" attributeName="transform" from="0.15 0.15" to="0.15 0.15" type="scale" additive="sum" keyTimes="0;1" values="0.15 0.15;0.15 0.15" keySplines="0 0 1 1" calcMode="spline"/><animateTransform repeatCount="indefinite" dur="4.8048048s" begin="0s" xlink:href="#_R_G_L_7_G" fill="freeze" attributeName="transform" from="-260.556 -135.576" to="-260.556 -135.576" type="translate" additive="sum" keyTimes="0;1" values="-260.556 -135.576;-260.556 -135.576" keySplines="0 0 1 1" calcMode="spline"/><animate repeatCount="indefinite" dur="4.8048048s" begin="0s" xlink:href="#_R_G_L_7_G_M" fill="freeze" attributeName="opacity" from="0" to="0" keyTimes="0;0.0208333;0.020834;0.3402778;0.3402778;1" values="0;0;1;1;0;0" keySplines="0 0 0 0;0 0 0 0;0 0 0 0;0 0 0 0;0 0 0 0" calcMode="spline"/><animateMotion repeatCount="indefinite" dur="4.8048048s" begin="0s" xlink:href="#_R_G_L_6_G" fill="freeze" keyTimes="0;0.1597222;0.4027778;1" path="M252.65 -7.9 C252.65,-7.9 252.65,-7.9 252.65,-7.9 C252.65,-7.9 252.65,432.1 252.65,432.1 C252.65,432.1 252.65,432.1 252.65,432.1 " keyPoints="0;0;1;1" keySplines="0.167 0.167 0.833 0.833;0.167 0.167 0.833 0.833;0 0 0 0" calcMode="spline"/><animateTransform repeatCount="indefinite" dur="4.8048048s" begin="0s" xlink:href="#_R_G_L_6_G" fill="freeze" attributeName="transform" from="-720" to="-1800" type="rotate" additive="sum" keyTimes="0;0.1527778;0.4027778;1" values="-720;-720;-1800;-1800" keySplines="0.167 0.167 0.833 0.833;0.167 0.167 0.833 0.833;0 0 0 0" calcMode="spline"/><animateTransform repeatCount="indefinite" dur="4.8048048s" begin="0s" xlink:href="#_R_G_L_6_G" fill="freeze" attributeName="transform" from="0.2 0.2" to="0.2 0.2" type="scale" additive="sum" keyTimes="0;1" values="0.2 0.2;0.2 0.2" keySplines="0 0 1 1" calcMode="spline"/><animateTransform repeatCount="indefinite" dur="4.8048048s" begin="0s" xlink:href="#_R_G_L_6_G" fill="freeze" attributeName="transform" from="-260.556 -135.576" to="-260.556 -135.576" type="translate" additive="sum" keyTimes="0;1" values="-260.556 -135.576;-260.556 -135.576" keySplines="0 0 1 1" calcMode="spline"/><animate repeatCount="indefinite" dur="4.8048048s" begin="0s" xlink:href="#_R_G_L_6_G_M" fill="freeze" attributeName="opacity" from="0" to="0" keyTimes="0;0.1597222;0.1597229;0.4097222;0.4097222;1" values="0;0;1;1;0;0" keySplines="0 0 0 0;0 0 0 0;0 0 0 0;0 0 0 0;0 0 0 0" calcMode="spline"/><animateMotion repeatCount="indefinite" dur="4.8048048s" begin="0s" xlink:href="#_R_G_L_5_G" fill="freeze" keyTimes="0;0.2777778;0.5972222;1" path="M77.65 -12.9 C77.65,-12.9 77.65,-12.9 77.65,-12.9 C77.65,-12.9 77.65,437.1 77.65,437.1 C77.65,437.1 77.65,437.1 77.65,437.1 " keyPoints="0;0;1;1" keySplines="0.167 0.167 0.833 0.833;0.167 0.167 0.833 0.833;0 0 0 0" calcMode="spline"/><animateTransform repeatCount="indefinite" dur="4.8048048s" begin="0s" xlink:href="#_R_G_L_5_G" fill="freeze" attributeName="transform" from="-720" to="1080" type="rotate" additive="sum" keyTimes="0;0.2708333;0.6736111;1" values="-720;-720;1080;1080" keySplines="0.167 0.167 0.833 0.833;0.167 0.167 0.833 0.833;0 0 0 0" calcMode="spline"/><animateTransform repeatCount="indefinite" dur="4.8048048s" begin="0s" xlink:href="#_R_G_L_5_G" fill="freeze" attributeName="transform" from="0.25 0.25" to="0.25 0.25" type="scale" additive="sum" keyTimes="0;1" values="0.25 0.25;0.25 0.25" keySplines="0 0 1 1" calcMode="spline"/><animateTransform repeatCount="indefinite" dur="4.8048048s" begin="0s" xlink:href="#_R_G_L_5_G" fill="freeze" attributeName="transform" from="-260.556 -135.576" to="-260.556 -135.576" type="translate" additive="sum" keyTimes="0;1" values="-260.556 -135.576;-260.556 -135.576" keySplines="0 0 1 1" calcMode="spline"/><animate repeatCount="indefinite" dur="4.8048048s" begin="0s" xlink:href="#_R_G_L_5_G_M" fill="freeze" attributeName="opacity" from="0" to="0" keyTimes="0;0.2777778;0.2777785;0.6041667;0.6041667;1" values="0;0;1;1;0;0" keySplines="0 0 0 0;0 0 0 0;0 0 0 0;0 0 0 0;0 0 0 0" calcMode="spline"/><animateMotion repeatCount="indefinite" dur="4.8048048s" begin="0s" xlink:href="#_R_G_L_4_G" fill="freeze" keyTimes="0;0.3888889;0.7777778;1" path="M322.65 -12.9 C322.65,-12.9 322.65,-12.9 322.65,-12.9 C322.65,-12.9 322.65,437.1 322.65,437.1 C322.65,437.1 322.65,437.1 322.65,437.1 " keyPoints="0;0;1;1" keySplines="0.167 0.167 0.833 0.833;0.167 0.167 0.833 0.833;0 0 0 0" calcMode="spline"/><animateTransform repeatCount="indefinite" dur="4.8048048s" begin="0s" xlink:href="#_R_G_L_4_G" fill="freeze" attributeName="transform" from="-720" to="1080" type="rotate" additive="sum" keyTimes="0;0.3819444;0.7847222;1" values="-720;-720;1080;1080" keySplines="0.167 0.167 0.833 0.833;0.167 0.167 0.833 0.833;0 0 0 0" calcMode="spline"/><animateTransform repeatCount="indefinite" dur="4.8048048s" begin="0s" xlink:href="#_R_G_L_4_G" fill="freeze" attributeName="transform" from="0.25 0.25" to="0.25 0.25" type="scale" additive="sum" keyTimes="0;1" values="0.25 0.25;0.25 0.25" keySplines="0 0 1 1" calcMode="spline"/><animateTransform repeatCount="indefinite" dur="4.8048048s" begin="0s" xlink:href="#_R_G_L_4_G" fill="freeze" attributeName="transform" from="-260.556 -135.576" to="-260.556 -135.576" type="translate" additive="sum" keyTimes="0;1" values="-260.556 -135.576;-260.556 -135.576" keySplines="0 0 1 1" calcMode="spline"/><animate repeatCount="indefinite" dur="4.8048048s" begin="0s" xlink:href="#_R_G_L_4_G_M" fill="freeze" attributeName="opacity" from="0" to="0" keyTimes="0;0.3888889;0.3888896;0.7986111;0.7986111;1" values="0;0;1;1;0;0" keySplines="0 0 0 0;0 0 0 0;0 0 0 0;0 0 0 0;0 0 0 0" calcMode="spline"/><animateMotion repeatCount="indefinite" dur="4.8048048s" begin="0s" xlink:href="#_R_G_L_3_G" fill="freeze" keyTimes="0;0.6458333;0.9652778;1" path="M32.65 -12.9 C32.65,-12.9 32.65,-12.9 32.65,-12.9 C32.65,-12.9 32.65,432.1 32.65,432.1 C32.65,432.1 32.65,432.1 32.65,432.1 " keyPoints="0;0;1;1" keySplines="0.167 0.167 0.833 0.833;0.167 0.167 0.833 0.833;0 0 0 0" calcMode="spline"/><animateTransform repeatCount="indefinite" dur="4.8048048s" begin="0s" xlink:href="#_R_G_L_3_G" fill="freeze" attributeName="transform" from="0" to="-720" type="rotate" additive="sum" keyTimes="0;0.6458333;0.9652778;1" values="0;0;-720;-720" keySplines="0.167 0.167 0.833 0.833;0.167 0.167 0.833 0.833;0 0 0 0" calcMode="spline"/><animateTransform repeatCount="indefinite" dur="4.8048048s" begin="0s" xlink:href="#_R_G_L_3_G" fill="freeze" attributeName="transform" from="0.15 0.15" to="0.15 0.15" type="scale" additive="sum" keyTimes="0;1" values="0.15 0.15;0.15 0.15" keySplines="0 0 1 1" calcMode="spline"/><animateTransform repeatCount="indefinite" dur="4.8048048s" begin="0s" xlink:href="#_R_G_L_3_G" fill="freeze" attributeName="transform" from="-260.556 -135.576" to="-260.556 -135.576" type="translate" additive="sum" keyTimes="0;1" values="-260.556 -135.576;-260.556 -135.576" keySplines="0 0 1 1" calcMode="spline"/><animate repeatCount="indefinite" dur="4.8048048s" begin="0s" xlink:href="#_R_G_L_3_G_M" fill="freeze" attributeName="opacity" from="0" to="0" keyTimes="0;0.6458333;0.645834;0.9722222;0.9722222;1" values="0;0;1;1;0;0" keySplines="0 0 0 0;0 0 0 0;0 0 0 0;0 0 0 0;0 0 0 0" calcMode="spline"/><animateMotion repeatCount="indefinite" dur="4.8048048s" begin="0s" xlink:href="#_R_G_L_2_G" fill="freeze" keyTimes="0;0.7361111;1" path="M272.65 -8.9 C272.65,-8.9 272.65,-8.9 272.65,-8.9 C272.65,-8.9 272.65,437.1 272.65,437.1 " keyPoints="0;0;1" keySplines="0.167 0.167 0.833 0.833;0.167 0.167 0.833 0.833" calcMode="spline"/><animateTransform repeatCount="indefinite" dur="4.8048048s" begin="0s" xlink:href="#_R_G_L_2_G" fill="freeze" attributeName="transform" from="-720" to="360" type="rotate" additive="sum" keyTimes="0;0.7291666;1;1" values="-720;-720;360;360" keySplines="0.167 0.167 0.833 0.833;0.167 0.167 0.833 0.833;0 0 0 0" calcMode="spline"/><animateTransform repeatCount="indefinite" dur="4.8048048s" begin="0s" xlink:href="#_R_G_L_2_G" fill="freeze" attributeName="transform" from="0.3 0.3" to="0.3 0.3" type="scale" additive="sum" keyTimes="0;1" values="0.3 0.3;0.3 0.3" keySplines="0 0 1 1" calcMode="spline"/><animateTransform repeatCount="indefinite" dur="4.8048048s" begin="0s" xlink:href="#_R_G_L_2_G" fill="freeze" attributeName="transform" from="-260.556 -135.576" to="-260.556 -135.576" type="translate" additive="sum" keyTimes="0;1" values="-260.556 -135.576;-260.556 -135.576" keySplines="0 0 1 1" calcMode="spline"/><animate repeatCount="indefinite" dur="4.8048048s" begin="0s" xlink:href="#_R_G_L_2_G_M" fill="freeze" attributeName="opacity" from="0" to="1" keyTimes="0;0.7361111;0.7361118;1" values="0;0;1;1" keySplines="0 0 0 0;0 0 0 0;0 0 0 0" calcMode="spline"/><animate repeatCount="indefinite" dur="4.8048048s" begin="0s" xlink:href="#_R_G_L_0_G_D_2_P_0" fill="freeze" attributeName="d" attributeType="XML" from="M175 247.56 C175,247.56 254.33,352.92 254.33,352.92 C254.33,352.92 280.04,352.92 280.04,352.92 C280.04,352.92 175,247.56 175,247.56z " to="M175 247.56 C175,247.56 254.33,352.92 254.33,352.92 C254.33,352.92 280.04,352.92 280.04,352.92 C280.04,352.92 175,247.56 175,247.56z " keyTimes="0;0.0625;0.125;0.1875;0.25;0.3125;0.375;0.4375;0.5;0.5625;0.625;0.6875;0.75;0.8125;0.875;0.9375;1;1" values="M175 247.56 C175,247.56 254.33,352.92 254.33,352.92 C254.33,352.92 280.04,352.92 280.04,352.92 C280.04,352.92 175,247.56 175,247.56z ;M175 247.56 C175,247.56 202.16,352.92 202.16,352.92 C202.16,352.92 280.04,352.92 280.04,352.92 C280.04,352.92 175,247.56 175,247.56z ;M175 247.56 C175,247.56 254.33,352.92 254.33,352.92 C254.33,352.92 280.04,352.92 280.04,352.92 C280.04,352.92 175,247.56 175,247.56z ;M175 247.56 C175,247.56 202.16,352.92 202.16,352.92 C202.16,352.92 280.04,352.92 280.04,352.92 C280.04,352.92 175,247.56 175,247.56z ;M175 247.56 C175,247.56 254.33,352.92 254.33,352.92 C254.33,352.92 280.04,352.92 280.04,352.92 C280.04,352.92 175,247.56 175,247.56z ;M175 247.56 C175,247.56 202.16,352.92 202.16,352.92 C202.16,352.92 280.04,352.92 280.04,352.92 C280.04,352.92 175,247.56 175,247.56z ;M175 247.56 C175,247.56 254.33,352.92 254.33,352.92 C254.33,352.92 280.04,352.92 280.04,352.92 C280.04,352.92 175,247.56 175,247.56z ;M175 247.56 C175,247.56 202.16,352.92 202.16,352.92 C202.16,352.92 280.04,352.92 280.04,352.92 C280.04,352.92 175,247.56 175,247.56z ;M175 247.56 C175,247.56 254.33,352.92 254.33,352.92 C254.33,352.92 280.04,352.92 280.04,352.92 C280.04,352.92 175,247.56 175,247.56z ;M175 247.56 C175,247.56 202.16,352.92 202.16,352.92 C202.16,352.92 280.04,352.92 280.04,352.92 C280.04,352.92 175,247.56 175,247.56z ;M175 247.56 C175,247.56 254.33,352.92 254.33,352.92 C254.33,352.92 280.04,352.92 280.04,352.92 C280.04,352.92 175,247.56 175,247.56z ;M175 247.56 C175,247.56 202.16,352.92 202.16,352.92 C202.16,352.92 280.04,352.92 280.04,352.92 C280.04,352.92 175,247.56 175,247.56z ;M175 247.56 C175,247.56 254.33,352.92 254.33,352.92 C254.33,352.92 280.04,352.92 280.04,352.92 C280.04,352.92 175,247.56 175,247.56z ;M175 247.56 C175,247.56 202.16,352.92 202.16,352.92 C202.16,352.92 280.04,352.92 280.04,352.92 C280.04,352.92 175,247.56 175,247.56z ;M175 247.56 C175,247.56 254.33,352.92 254.33,352.92 C254.33,352.92 280.04,352.92 280.04,352.92 C280.04,352.92 175,247.56 175,247.56z ;M175 247.56 C175,247.56 202.16,352.92 202.16,352.92 C202.16,352.92 280.04,352.92 280.04,352.92 C280.04,352.92 175,247.56 175,247.56z ;M175 247.56 C175,247.56 254.33,352.92 254.33,352.92 C254.33,352.92 280.04,352.92 280.04,352.92 C280.04,352.92 175,247.56 175,247.56z ;M175 247.56 C175,247.56 254.33,352.92 254.33,352.92 C254.33,352.92 280.04,352.92 280.04,352.92 C280.04,352.92 175,247.56 175,247.56z " keySplines="0.167 0.167 0.833 0.833;0.167 0.167 0.833 0.833;0.167 0.167 0.833 0.833;0.167 0.167 0.833 0.833;0.167 0.167 0.833 0.833;0.167 0.167 0.833 0.833;0.167 0.167 0.833 0.833;0.167 0.167 0.833 0.833;0.167 0.167 0.833 0.833;0.167 0.167 0.833 0.833;0.167 0.167 0.833 0.833;0.167 0.167 0.833 0.833;0.167 0.167 0.833 0.833;0.167 0.167 0.833 0.833;0.167 0.167 0.833 0.833;0.167 0.167 0.833 0.833;0 0 0 0" calcMode="spline"/><animate repeatCount="indefinite" dur="4.8048048s" begin="0s" xlink:href="#_R_G_L_0_G_D_3_P_0" fill="freeze" attributeName="d" attributeType="XML" from="M175.67 247.56 C175.67,247.56 96.34,352.92 96.34,352.92 C96.34,352.92 70.62,352.92 70.62,352.92 C70.62,352.92 175.67,247.56 175.67,247.56z " to="M175.67 247.56 C175.67,247.56 96.34,352.92 96.34,352.92 C96.34,352.92 70.62,352.92 70.62,352.92 C70.62,352.92 175.67,247.56 175.67,247.56z " keyTimes="0;0.0625;0.125;0.1875;0.25;0.3125;0.375;0.4375;0.5;0.5625;0.625;0.6875;0.75;0.8125;0.875;0.9375;1;1" values="M175.67 247.56 C175.67,247.56 96.34,352.92 96.34,352.92 C96.34,352.92 70.62,352.92 70.62,352.92 C70.62,352.92 175.67,247.56 175.67,247.56z ;M175.67 247.56 C175.67,247.56 148.51,352.92 148.51,352.92 C148.51,352.92 70.62,352.92 70.62,352.92 C70.62,352.92 175.67,247.56 175.67,247.56z ;M175.67 247.56 C175.67,247.56 96.34,352.92 96.34,352.92 C96.34,352.92 70.62,352.92 70.62,352.92 C70.62,352.92 175.67,247.56 175.67,247.56z ;M175.67 247.56 C175.67,247.56 148.51,352.92 148.51,352.92 C148.51,352.92 70.62,352.92 70.62,352.92 C70.62,352.92 175.67,247.56 175.67,247.56z ;M175.67 247.56 C175.67,247.56 96.34,352.92 96.34,352.92 C96.34,352.92 70.62,352.92 70.62,352.92 C70.62,352.92 175.67,247.56 175.67,247.56z ;M175.67 247.56 C175.67,247.56 148.51,352.92 148.51,352.92 C148.51,352.92 70.62,352.92 70.62,352.92 C70.62,352.92 175.67,247.56 175.67,247.56z ;M175.67 247.56 C175.67,247.56 96.34,352.92 96.34,352.92 C96.34,352.92 70.62,352.92 70.62,352.92 C70.62,352.92 175.67,247.56 175.67,247.56z ;M175.67 247.56 C175.67,247.56 148.51,352.92 148.51,352.92 C148.51,352.92 70.62,352.92 70.62,352.92 C70.62,352.92 175.67,247.56 175.67,247.56z ;M175.67 247.56 C175.67,247.56 96.34,352.92 96.34,352.92 C96.34,352.92 70.62,352.92 70.62,352.92 C70.62,352.92 175.67,247.56 175.67,247.56z ;M175.67 247.56 C175.67,247.56 148.51,352.92 148.51,352.92 C148.51,352.92 70.62,352.92 70.62,352.92 C70.62,352.92 175.67,247.56 175.67,247.56z ;M175.67 247.56 C175.67,247.56 96.34,352.92 96.34,352.92 C96.34,352.92 70.62,352.92 70.62,352.92 C70.62,352.92 175.67,247.56 175.67,247.56z ;M175.67 247.56 C175.67,247.56 148.51,352.92 148.51,352.92 C148.51,352.92 70.62,352.92 70.62,352.92 C70.62,352.92 175.67,247.56 175.67,247.56z ;M175.67 247.56 C175.67,247.56 96.34,352.92 96.34,352.92 C96.34,352.92 70.62,352.92 70.62,352.92 C70.62,352.92 175.67,247.56 175.67,247.56z ;M175.67 247.56 C175.67,247.56 148.51,352.92 148.51,352.92 C148.51,352.92 70.62,352.92 70.62,352.92 C70.62,352.92 175.67,247.56 175.67,247.56z ;M175.67 247.56 C175.67,247.56 96.34,352.92 96.34,352.92 C96.34,352.92 70.62,352.92 70.62,352.92 C70.62,352.92 175.67,247.56 175.67,247.56z ;M175.67 247.56 C175.67,247.56 148.51,352.92 148.51,352.92 C148.51,352.92 70.62,352.92 70.62,352.92 C70.62,352.92 175.67,247.56 175.67,247.56z ;M175.67 247.56 C175.67,247.56 96.34,352.92 96.34,352.92 C96.34,352.92 70.62,352.92 70.62,352.92 C70.62,352.92 175.67,247.56 175.67,247.56z ;M175.67 247.56 C175.67,247.56 96.34,352.92 96.34,352.92 C96.34,352.92 70.62,352.92 70.62,352.92 C70.62,352.92 175.67,247.56 175.67,247.56z " keySplines="0.167 0.167 0.833 0.833;0.167 0.167 0.833 0.833;0.167 0.167 0.833 0.833;0.167 0.167 0.833 0.833;0.167 0.167 0.833 0.833;0.167 0.167 0.833 0.833;0.167 0.167 0.833 0.833;0.167 0.167 0.833 0.833;0.167 0.167 0.833 0.833;0.167 0.167 0.833 0.833;0.167 0.167 0.833 0.833;0.167 0.167 0.833 0.833;0.167 0.167 0.833 0.833;0.167 0.167 0.833 0.833;0.167 0.167 0.833 0.833;0.167 0.167 0.833 0.833;0 0 0 0" calcMode="spline"/><animateTransform repeatCount="indefinite" dur="4.8048048s" begin="0s" xlink:href="#_R_G_L_0_G" fill="freeze" attributeName="transform" from="0.6 1" to="0.6 1" type="scale" additive="sum" keyTimes="0;0.0625;0.125;0.1875;0.25;0.3125;0.375;0.4375;0.5;0.5625;0.625;0.6875;0.75;0.8125;0.875;0.9375;1;1" values="0.6 1;0.98 1;0.6 1;0.98 1;0.6 1;0.98 1;0.6 1;0.98 1;0.6 1;0.98 1;0.6 1;0.98 1;0.6 1;0.98 1;0.6 1;0.98 1;0.6 1;0.6 1" keySplines="0.167 0.167 0.833 0.833;0.167 0.167 0.833 0.833;0.167 0.167 0.833 0.833;0.167 0.167 0.833 0.833;0.167 0.167 0.833 0.833;0.167 0.167 0.833 0.833;0.167 0.167 0.833 0.833;0.167 0.167 0.833 0.833;0.167 0.167 0.833 0.833;0.167 0.167 0.833 0.833;0.167 0.167 0.833 0.833;0.167 0.167 0.833 0.833;0.167 0.167 0.833 0.833;0.167 0.167 0.833 0.833;0.167 0.167 0.833 0.833;0.167 0.167 0.833 0.833;0 0 0 0" calcMode="spline"/><animateTransform repeatCount="indefinite" dur="4.8048048s" begin="0s" xlink:href="#_R_G_L_0_G" fill="freeze" attributeName="transform" from="-175 -178.402" to="-175 -178.402" type="translate" additive="sum" keyTimes="0;1" values="-175 -178.402;-175 -178.402" keySplines="0 0 1 1" calcMode="spline"/><animate attributeType="XML" attributeName="opacity" dur="5s" from="0" to="1" xlink:href="#time_group"/></defs><g id="_R_G"><g id="_R_G_L_7_G_M"><g id="_R_G_L_7_G"><path id="_R_G_L_7_G_D_0_P_0" fill="#f2b855" fill-opacity="1" fill-rule="nonzero" d=" M260.28 83.58 C260.28,83.58 274.34,121.58 274.34,121.58 C274.34,121.58 312.34,135.64 312.34,135.64 C312.34,135.64 274.34,149.7 274.34,149.7 C274.34,149.7 260.28,187.7 260.28,187.7 C260.28,187.7 246.22,149.7 246.22,149.7 C246.22,149.7 208.22,135.64 208.22,135.64 C208.22,135.64 246.22,121.58 246.22,121.58 C246.22,121.58 260.28,83.58 260.28,83.58z "/><path id="_R_G_L_7_G_D_1_P_0" stroke="#343434" stroke-linecap="round" stroke-linejoin="round" fill="none" stroke-width="7" stroke-opacity="1" d=" M260.28 83.58 C260.28,83.58 274.34,121.58 274.34,121.58 C274.34,121.58 312.34,135.64 312.34,135.64 C312.34,135.64 274.34,149.7 274.34,149.7 C274.34,149.7 260.28,187.7 260.28,187.7 C260.28,187.7 246.22,149.7 246.22,149.7 C246.22,149.7 208.22,135.64 208.22,135.64 C208.22,135.64 246.22,121.58 246.22,121.58 C246.22,121.58 260.28,83.58 260.28,83.58z "/></g></g><g id="_R_G_L_6_G_M"><g id="_R_G_L_6_G"><path id="_R_G_L_6_G_D_0_P_0" fill="#f2b855" fill-opacity="1" fill-rule="nonzero" d=" M260.28 83.58 C260.28,83.58 274.34,121.58 274.34,121.58 C274.34,121.58 312.34,135.64 312.34,135.64 C312.34,135.64 274.34,149.7 274.34,149.7 C274.34,149.7 260.28,187.7 260.28,187.7 C260.28,187.7 246.22,149.7 246.22,149.7 C246.22,149.7 208.22,135.64 208.22,135.64 C208.22,135.64 246.22,121.58 246.22,121.58 C246.22,121.58 260.28,83.58 260.28,83.58z "/><path id="_R_G_L_6_G_D_1_P_0" stroke="#343434" stroke-linecap="round" stroke-linejoin="round" fill="none" stroke-width="9" stroke-opacity="1" d=" M260.28 83.58 C260.28,83.58 274.34,121.58 274.34,121.58 C274.34,121.58 312.34,135.64 312.34,135.64 C312.34,135.64 274.34,149.7 274.34,149.7 C274.34,149.7 260.28,187.7 260.28,187.7 C260.28,187.7 246.22,149.7 246.22,149.7 C246.22,149.7 208.22,135.64 208.22,135.64 C208.22,135.64 246.22,121.58 246.22,121.58 C246.22,121.58 260.28,83.58 260.28,83.58z "/></g></g><g id="_R_G_L_5_G_M"><g id="_R_G_L_5_G"><path id="_R_G_L_5_G_D_0_P_0" fill="#f2b855" fill-opacity="1" fill-rule="nonzero" d=" M260.28 83.58 C260.28,83.58 274.34,121.58 274.34,121.58 C274.34,121.58 312.34,135.64 312.34,135.64 C312.34,135.64 274.34,149.7 274.34,149.7 C274.34,149.7 260.28,187.7 260.28,187.7 C260.28,187.7 246.22,149.7 246.22,149.7 C246.22,149.7 208.22,135.64 208.22,135.64 C208.22,135.64 246.22,121.58 246.22,121.58 C246.22,121.58 260.28,83.58 260.28,83.58z "/><path id="_R_G_L_5_G_D_1_P_0" stroke="#343434" stroke-linecap="round" stroke-linejoin="round" fill="none" stroke-width="7" stroke-opacity="1" d=" M260.28 83.58 C260.28,83.58 274.34,121.58 274.34,121.58 C274.34,121.58 312.34,135.64 312.34,135.64 C312.34,135.64 274.34,149.7 274.34,149.7 C274.34,149.7 260.28,187.7 260.28,187.7 C260.28,187.7 246.22,149.7 246.22,149.7 C246.22,149.7 208.22,135.64 208.22,135.64 C208.22,135.64 246.22,121.58 246.22,121.58 C246.22,121.58 260.28,83.58 260.28,83.58z "/></g></g><g id="_R_G_L_4_G_M"><g id="_R_G_L_4_G"><path id="_R_G_L_4_G_D_0_P_0" fill="#f2b855" fill-opacity="1" fill-rule="nonzero" d=" M260.28 83.58 C260.28,83.58 274.34,121.58 274.34,121.58 C274.34,121.58 312.34,135.64 312.34,135.64 C312.34,135.64 274.34,149.7 274.34,149.7 C274.34,149.7 260.28,187.7 260.28,187.7 C260.28,187.7 246.22,149.7 246.22,149.7 C246.22,149.7 208.22,135.64 208.22,135.64 C208.22,135.64 246.22,121.58 246.22,121.58 C246.22,121.58 260.28,83.58 260.28,83.58z "/><path id="_R_G_L_4_G_D_1_P_0" stroke="#343434" stroke-linecap="round" stroke-linejoin="round" fill="none" stroke-width="7" stroke-opacity="1" d=" M260.28 83.58 C260.28,83.58 274.34,121.58 274.34,121.58 C274.34,121.58 312.34,135.64 312.34,135.64 C312.34,135.64 274.34,149.7 274.34,149.7 C274.34,149.7 260.28,187.7 260.28,187.7 C260.28,187.7 246.22,149.7 246.22,149.7 C246.22,149.7 208.22,135.64 208.22,135.64 C208.22,135.64 246.22,121.58 246.22,121.58 C246.22,121.58 260.28,83.58 260.28,83.58z "/></g></g><g id="_R_G_L_3_G_M"><g id="_R_G_L_3_G"><path id="_R_G_L_3_G_D_0_P_0" fill="#f2b855" fill-opacity="1" fill-rule="nonzero" d=" M260.28 83.58 C260.28,83.58 274.34,121.58 274.34,121.58 C274.34,121.58 312.34,135.64 312.34,135.64 C312.34,135.64 274.34,149.7 274.34,149.7 C274.34,149.7 260.28,187.7 260.28,187.7 C260.28,187.7 246.22,149.7 246.22,149.7 C246.22,149.7 208.22,135.64 208.22,135.64 C208.22,135.64 246.22,121.58 246.22,121.58 C246.22,121.58 260.28,83.58 260.28,83.58z "/><path id="_R_G_L_3_G_D_1_P_0" stroke="#343434" stroke-linecap="round" stroke-linejoin="round" fill="none" stroke-width="9" stroke-opacity="1" d=" M260.28 83.58 C260.28,83.58 274.34,121.58 274.34,121.58 C274.34,121.58 312.34,135.64 312.34,135.64 C312.34,135.64 274.34,149.7 274.34,149.7 C274.34,149.7 260.28,187.7 260.28,187.7 C260.28,187.7 246.22,149.7 246.22,149.7 C246.22,149.7 208.22,135.64 208.22,135.64 C208.22,135.64 246.22,121.58 246.22,121.58 C246.22,121.58 260.28,83.58 260.28,83.58z "/></g></g><g id="_R_G_L_2_G_M"><g id="_R_G_L_2_G"><path id="_R_G_L_2_G_D_0_P_0" fill="#f2b855" fill-opacity="1" fill-rule="nonzero" d=" M260.28 83.58 C260.28,83.58 274.34,121.58 274.34,121.58 C274.34,121.58 312.34,135.64 312.34,135.64 C312.34,135.64 274.34,149.7 274.34,149.7 C274.34,149.7 260.28,187.7 260.28,187.7 C260.28,187.7 246.22,149.7 246.22,149.7 C246.22,149.7 208.22,135.64 208.22,135.64 C208.22,135.64 246.22,121.58 246.22,121.58 C246.22,121.58 260.28,83.58 260.28,83.58z "/><path id="_R_G_L_2_G_D_1_P_0" stroke="#343434" stroke-linecap="round" stroke-linejoin="round" fill="none" stroke-width="7" stroke-opacity="1" d=" M260.28 83.58 C260.28,83.58 274.34,121.58 274.34,121.58 C274.34,121.58 312.34,135.64 312.34,135.64 C312.34,135.64 274.34,149.7 274.34,149.7 C274.34,149.7 260.28,187.7 260.28,187.7 C260.28,187.7 246.22,149.7 246.22,149.7 C246.22,149.7 208.22,135.64 208.22,135.64 C208.22,135.64 246.22,121.58 246.22,121.58 C246.22,121.58 260.28,83.58 260.28,83.58z "/></g></g><g id="_R_G_L_1_G" transform=" translate(175, 212.402) translate(-175, -178.402)"><path id="_R_G_L_1_G_D_0_P_0" fill="#ffffff" fill-opacity="1" fill-rule="nonzero" d=" M219.11 59.17 C219.11,59.17 131.77,59.17 131.77,59.17 C131.77,59.17 131.77,84.9 131.77,84.9 C131.77,84.9 219.11,84.9 219.11,84.9 C219.11,84.9 219.11,59.17 219.11,59.17z "/><path id="_R_G_L_1_G_D_1_P_0" stroke="#343434" stroke-linecap="round" stroke-linejoin="round" fill="none" stroke-width="2" stroke-opacity="1" d=" M219.11 59.17 C219.11,59.17 131.77,59.17 131.77,59.17 C131.77,59.17 131.77,84.9 131.77,84.9 C131.77,84.9 219.11,84.9 219.11,84.9 C219.11,84.9 219.11,59.17 219.11,59.17z "/><path id="_R_G_L_1_G_D_2_P_0" fill="#63acde" fill-opacity="1" fill-rule="nonzero" d=" M219.11 81.69 C219.11,81.69 131.77,81.69 131.77,81.69 C131.77,81.69 131.77,234.19 131.77,234.19 C131.77,234.19 219.11,234.19 219.11,234.19 C219.11,234.19 219.11,81.69 219.11,81.69z "/><path id="_R_G_L_1_G_D_3_P_0" stroke="#343434" stroke-linecap="round" stroke-linejoin="round" fill="none" stroke-width="1.82" stroke-opacity="1" d=" M219.11 81.69 C219.11,81.69 131.77,81.69 131.77,81.69 C131.77,81.69 131.77,234.19 131.77,234.19 C131.77,234.19 219.11,234.19 219.11,234.19 C219.11,234.19 219.11,81.69 219.11,81.69z "/><path id="_R_G_L_1_G_D_4_P_0" fill="#d5e05e" fill-opacity="1" fill-rule="nonzero" d=" M131.77 234.03 C131.77,234.03 88.91,276.95 88.91,276.95 C88.91,276.95 88.91,197.46 88.91,197.46 C88.91,197.46 131.77,151.01 131.77,151.01 C131.77,151.01 131.77,234.03 131.77,234.03z "/><path id="_R_G_L_1_G_D_5_P_0" stroke="#343434" stroke-linecap="round" stroke-linejoin="round" fill="none" stroke-width="2" stroke-opacity="1" d=" M131.77 234.03 C131.77,234.03 88.91,276.95 88.91,276.95 C88.91,276.95 88.91,197.46 88.91,197.46 C88.91,197.46 131.77,151.01 131.77,151.01 C131.77,151.01 131.77,234.03 131.77,234.03z "/><path id="_R_G_L_1_G_D_6_P_0" fill="#d5e05e" fill-opacity="1" fill-rule="nonzero" d=" M219.11 234.03 C219.11,234.03 261.96,276.95 261.96,276.95 C261.96,276.95 261.96,197.46 261.96,197.46 C261.96,197.46 219.11,151.01 219.11,151.01 C219.11,151.01 219.11,234.03 219.11,234.03z "/><path id="_R_G_L_1_G_D_7_P_0" stroke="#343434" stroke-linecap="round" stroke-linejoin="round" fill="none" stroke-width="2" stroke-opacity="1" d=" M219.11 234.03 C219.11,234.03 261.96,276.95 261.96,276.95 C261.96,276.95 261.96,197.46 261.96,197.46 C261.96,197.46 219.11,151.01 219.11,151.01 C219.11,151.01 219.11,234.03 219.11,234.03z "/><path id="_R_G_L_1_G_D_8_P_0" fill="#ea7565" fill-opacity="1" fill-rule="nonzero" d=" M131.77 59.17 C131.77,59.17 175.44,5.83 175.44,5.83 C175.44,5.83 219.11,59.17 219.11,59.17 C219.11,59.17 131.77,59.17 131.77,59.17z "/><path id="_R_G_L_1_G_D_9_P_0" stroke="#343434" stroke-linecap="round" stroke-linejoin="round" fill="none" stroke-width="2" stroke-opacity="1" d=" M131.77 59.17 C131.77,59.17 175.44,5.83 175.44,5.83 C175.44,5.83 219.11,59.17 219.11,59.17 C219.11,59.17 131.77,59.17 131.77,59.17z "/><path id="_R_G_L_1_G_D_10_P_0" stroke="#343434" stroke-linecap="round" stroke-linejoin="round" fill="none" stroke-width="2" stroke-opacity="1" d=" M175.44 81.69 C175.44,81.69 175.44,234.2 175.44,234.2 "/><path id="_R_G_L_1_G_D_11_P_0" fill="#ffffff" fill-opacity="1" fill-rule="nonzero" d=" M175.44 136.05 C185.38,136.05 193.45,127.97 193.45,118 C193.45,108.03 185.38,99.96 175.44,99.96 C165.5,99.96 157.43,108.03 157.43,118 C157.43,127.97 165.5,136.05 175.44,136.05z "/><path id="_R_G_L_1_G_D_12_P_0" stroke="#343434" stroke-linecap="round" stroke-linejoin="round" fill="none" stroke-width="2" stroke-opacity="1" d=" M175.44 136.05 C185.38,136.05 193.45,127.97 193.45,118 C193.45,108.03 185.38,99.96 175.44,99.96 C165.5,99.96 157.43,108.03 157.43,118 C157.43,127.97 165.5,136.05 175.44,136.05z "/><path id="_R_G_L_1_G_D_13_P_0" fill="#ffffff" fill-opacity="1" fill-rule="nonzero" d=" M175.44 201.86 C183.33,201.86 189.72,195.45 189.72,187.54 C189.72,179.64 183.33,173.23 175.44,173.23 C167.55,173.23 161.16,179.64 161.16,187.54 C161.16,195.45 167.55,201.86 175.44,201.86z "/><path id="_R_G_L_1_G_D_14_P_0" stroke="#343434" stroke-linecap="round" stroke-linejoin="round" fill="none" stroke-width="2" stroke-opacity="1" d=" M175.44 201.86 C183.33,201.86 189.72,195.45 189.72,187.54 C189.72,179.64 183.33,173.23 175.44,173.23 C167.55,173.23 161.16,179.64 161.16,187.54 C161.16,195.45 167.55,201.86 175.44,201.86z "/><path id="_R_G_L_1_G_D_15_P_0" fill="#343434" fill-opacity="1" fill-rule="nonzero" d=" M115.96 168.15 C115.96,168.15 131.77,234.2 131.77,234.2 C131.77,234.2 131.77,151.01 131.77,151.01 C131.77,151.01 115.96,168.15 115.96,168.15z "/><path id="_R_G_L_1_G_D_16_P_0" fill="#343434" fill-opacity="1" fill-rule="nonzero" d=" M235.21 168.15 C235.21,168.15 219.4,234.2 219.4,234.2 C219.4,234.2 219.4,151.01 219.4,151.01 C219.4,151.01 235.21,168.15 235.21,168.15z "/></g><g id="_R_G_L_0_G" transform=" translate(175, 212.402)"><path id="_R_G_L_0_G_D_0_P_0" fill="#f2b855" fill-opacity="1" fill-rule="nonzero" d=" M175 247.56 C175,247.56 69.96,352.92 69.96,352.92 C69.96,352.92 280.05,352.92 280.05,352.92 C280.05,352.92 175,247.56 175,247.56z "/><path id="_R_G_L_0_G_D_1_P_0" stroke="#343434" stroke-linecap="round" stroke-linejoin="round" fill="none" stroke-width="2" stroke-opacity="1" d=" M175 247.56 C175,247.56 69.96,352.92 69.96,352.92 C69.96,352.92 280.05,352.92 280.05,352.92 C280.05,352.92 175,247.56 175,247.56z "/><path id="_R_G_L_0_G_D_2_P_0" fill="#343434" fill-opacity="1" fill-rule="nonzero" d=" M175 247.56 C175,247.56 254.33,352.92 254.33,352.92 C254.33,352.92 280.04,352.92 280.04,352.92 C280.04,352.92 175,247.56 175,247.56z "/><path id="_R_G_L_0_G_D_3_P_0" fill="#343434" fill-opacity="1" fill-rule="nonzero" d=" M175.67 247.56 C175.67,247.56 96.34,352.92 96.34,352.92 C96.34,352.92 70.62,352.92 70.62,352.92 C70.62,352.92 175.67,247.56 175.67,247.56z "/></g></g><g id="time_group"/></svg>