<svg xmlns="http://www.w3.org/2000/svg" xmlns:xlink="http://www.w3.org/1999/xlink" preserveAspectRatio="xMidYMid meet" width="500" height="500" viewBox="0 0 500 500" style="width:100%;height:100%"><defs><animateTransform repeatCount="indefinite" dur="5.005005s" begin="0s" xlink:href="#_R_G_L_3_G_D_21_P_0_G_0_T_0" fill="freeze" attributeName="transform" from="-1080" to="360" type="rotate" additive="sum" keyTimes="0;0.9933333;1" values="-1080;360;360" keySplines="0.167 0.167 0.833 0.833;0 0 0 0" calcMode="spline"/><animateTransform repeatCount="indefinite" dur="5.005005s" begin="0s" xlink:href="#_R_G_L_3_G_D_21_P_0_G_0_T_0" fill="freeze" attributeName="transform" from="-19.536 -7.626" to="-19.536 -7.626" type="translate" additive="sum" keyTimes="0;1" values="-19.536 -7.626;-19.536 -7.626" keySplines="0 0 1 1" calcMode="spline"/><animateTransform repeatCount="indefinite" dur="5.005005s" begin="0s" xlink:href="#_R_G_L_3_G_D_22_P_0_G_0_T_0" fill="freeze" attributeName="transform" from="0" to="360" type="rotate" additive="sum" keyTimes="0;0.9933333;1" values="0;360;360" keySplines="0.167 0.167 0.833 0.833;0 0 0 0" calcMode="spline"/><animateTransform repeatCount="indefinite" dur="5.005005s" begin="0s" xlink:href="#_R_G_L_3_G_D_22_P_0_G_0_T_0" fill="freeze" attributeName="transform" from="-19.536 -7.626" to="-19.536 -7.626" type="translate" additive="sum" keyTimes="0;1" values="-19.536 -7.626;-19.536 -7.626" keySplines="0 0 1 1" calcMode="spline"/><animate repeatCount="indefinite" dur="5.005005s" begin="0s" xlink:href="#_R_G_L_2_G_D_0_P_0" fill="freeze" attributeName="d" attributeType="XML" from="M23.01 51.26 C23.01,51.26 23.01,51.26 23.01,51.26 " to="M71.65 87.34 C71.65,87.34 71.13,87.87 71.13,87.87 " keyTimes="0;0.1333333;0.2266667;0.94;0.9666667;1" values="M23.01 51.26 C23.01,51.26 23.01,51.26 23.01,51.26 ;M23.01 51.26 C23.01,51.26 23.01,51.26 23.01,51.26 ;M23.01 51.26 C23.01,51.26 71.13,87.87 71.13,87.87 ;M23.01 51.26 C23.01,51.26 71.13,87.87 71.13,87.87 ;M71.65 87.34 C71.65,87.34 71.13,87.87 71.13,87.87 ;M71.65 87.34 C71.65,87.34 71.13,87.87 71.13,87.87 " keySplines="0.767 0 1 1;0.767 0 1 1;0.167 0.167 0.833 0.833;0.167 0.167 0.833 0.833;0 0 0 0" calcMode="spline"/><animate repeatCount="indefinite" dur="5.005005s" begin="0s" xlink:href="#_R_G_L_2_G_D_1_P_0" fill="freeze" attributeName="d" attributeType="XML" from="M23.01 51.26 C23.01,51.26 23.01,51.26 23.01,51.26 " to="M71.65 87.34 C71.65,87.34 71.13,87.87 71.13,87.87 " keyTimes="0;0.1333333;0.2266667;0.94;0.9666667;1" values="M23.01 51.26 C23.01,51.26 23.01,51.26 23.01,51.26 ;M23.01 51.26 C23.01,51.26 23.01,51.26 23.01,51.26 ;M23.01 51.26 C23.01,51.26 71.13,87.87 71.13,87.87 ;M23.01 51.26 C23.01,51.26 71.13,87.87 71.13,87.87 ;M71.65 87.34 C71.65,87.34 71.13,87.87 71.13,87.87 ;M71.65 87.34 C71.65,87.34 71.13,87.87 71.13,87.87 " keySplines="0.767 0 1 1;0.767 0 1 1;0.167 0.167 0.833 0.833;0.167 0.167 0.833 0.833;0 0 0 0" calcMode="spline"/><animate repeatCount="indefinite" dur="5.005005s" begin="0s" xlink:href="#_R_G_L_2_G_M" fill="freeze" attributeName="opacity" from="0" to="0" keyTimes="0;0.1333333;0.133334;0.9666667;0.9666667;1" values="0;0;1;1;0;0" keySplines="0 0 0 0;0 0 0 0;0 0 0 0;0 0 0 0;0 0 0 0" calcMode="spline"/><animate repeatCount="indefinite" dur="5.005005s" begin="0s" xlink:href="#_R_G_L_1_G_D_0_P_0" fill="freeze" attributeName="d" attributeType="XML" from="M23.01 86.82 C23.01,86.82 70.87,51.78 70.87,51.78 " to="M71.13 51.78 C71.13,51.78 70.87,51.78 70.87,51.78 " keyTimes="0;0.34;0.4466666;0.9666666;0.9933333;1" values="M23.01 86.82 C23.01,86.82 70.87,51.78 70.87,51.78 ;M23.01 86.82 C23.01,86.82 70.87,51.78 70.87,51.78 ;M23.01 86.82 C23.01,86.82 70.87,51.78 70.87,51.78 ;M23.01 86.82 C23.01,86.82 70.87,51.78 70.87,51.78 ;M71.13 51.78 C71.13,51.78 70.87,51.78 70.87,51.78 ;M71.13 51.78 C71.13,51.78 70.87,51.78 70.87,51.78 " keySplines="0.167 0.167 1 1;0.167 0.167 1 1;0.167 0.167 0.833 0.833;0.167 0.167 0.833 0.833;0 0 0 0" calcMode="spline"/><animate repeatCount="indefinite" dur="5.005005s" begin="0s" xlink:href="#_R_G_L_1_G_D_1_P_0" fill="freeze" attributeName="d" attributeType="XML" from="M23.01 86.82 C23.01,86.82 70.87,51.78 70.87,51.78 " to="M71.13 51.78 C71.13,51.78 70.87,51.78 70.87,51.78 " keyTimes="0;0.34;0.4466666;0.9666666;0.9933333;1" values="M23.01 86.82 C23.01,86.82 70.87,51.78 70.87,51.78 ;M23.01 86.82 C23.01,86.82 70.87,51.78 70.87,51.78 ;M23.01 86.82 C23.01,86.82 70.87,51.78 70.87,51.78 ;M23.01 86.82 C23.01,86.82 70.87,51.78 70.87,51.78 ;M71.13 51.78 C71.13,51.78 70.87,51.78 70.87,51.78 ;M71.13 51.78 C71.13,51.78 70.87,51.78 70.87,51.78 " keySplines="0.167 0.167 1 1;0.167 0.167 1 1;0.167 0.167 0.833 0.833;0.167 0.167 0.833 0.833;0 0 0 0" calcMode="spline"/><animate repeatCount="indefinite" dur="5.005005s" begin="0s" xlink:href="#_R_G_L_1_G_M" fill="freeze" attributeName="opacity" from="0" to="0" keyTimes="0;0.34;0.3400007;0.9933333;0.9933333;1" values="0;0;1;1;0;0" keySplines="0 0 0 0;0 0 0 0;0 0 0 0;0 0 0 0;0 0 0 0" calcMode="spline"/><animateMotion repeatCount="indefinite" dur="5.005005s" begin="0s" xlink:href="#_R_G_L_0_G" fill="freeze" keyTimes="0;0.0666667;0.1333333;0.1533333;0.2266667;0.2466667;0.2933333;0.34;0.36;0.4466666;0.5666666;0.8;0.9333333;1" path="M273.5 225 C273.5,225 273.5,225 273.5,225 C273.5,225 228.26,232.45 228.26,232.45 C228.26,232.45 233.26,237.45 233.26,237.45 C233.26,237.45 274.58,268.31 274.58,268.31 C274.58,268.31 274.58,268.31 274.58,268.31 C274.58,268.31 251.12,260.92 251.12,260.92 C251.12,260.92 231.66,266.64 231.66,266.64 C231.66,266.64 231.66,266.64 231.66,266.64 C231.66,266.64 273.5,235 273.5,235 C273.5,235 273.5,225 273.5,225 C273.5,225 273.5,225 273.5,225 C273.5,225 273.5,225 273.5,225 C273.5,225 273.5,225 273.5,225 " keyPoints="0;0;0.22;0.25;0.49;0.49;0.61;0.71;0.71;0.95;1;1;1;1" keySplines="0.717 0 1 1;0.717 0 1 1;0 0 1 1;0.61 0 1 1;0 0 1 1;0 0 0.283 1;0.927 0 1 1;0.333 0.333 0.667 0.667;0.628 0 1 1;0.717 0 0.283 1;0.333 0.333 0.667 0.667;0.717 0.717 0.283 0.283;0 0 0 0" calcMode="spline"/><animateTransform repeatCount="indefinite" dur="5.005005s" begin="0s" xlink:href="#_R_G_L_0_G" fill="freeze" attributeName="transform" from="1.45 1.45" to="1.45 1.45" type="scale" additive="sum" keyTimes="0;1" values="1.45 1.45;1.45 1.45" keySplines="0 0 1 1" calcMode="spline"/><animateTransform repeatCount="indefinite" dur="5.005005s" begin="0s" xlink:href="#_R_G_L_0_G" fill="freeze" attributeName="transform" from="-175 -137.5" to="-175 -137.5" type="translate" additive="sum" keyTimes="0;1" values="-175 -137.5;-175 -137.5" keySplines="0 0 1 1" calcMode="spline"/><animate attributeType="XML" attributeName="opacity" dur="5s" from="0" to="1" xlink:href="#time_group"/></defs><g id="_R_G"><g id="_R_G_L_3_G" transform=" translate(250, 250) scale(1.45, 1.45) translate(-175, -137.5)"><path id="_R_G_L_3_G_D_0_P_0" fill="#63acde" fill-opacity="1" fill-rule="nonzero" d=" M92.41 27.6 C92.41,27.6 270.61,27.6 270.61,27.6 C275.22,27.6 278.97,31.35 278.97,35.96 C278.97,35.96 278.97,64.31 278.97,64.31 C278.97,64.31 84.05,64.31 84.05,64.31 C84.05,64.31 84.05,35.96 84.05,35.96 C84.05,31.35 87.8,27.6 92.41,27.6z "/><path id="_R_G_L_3_G_D_1_P_0" stroke="#343434" stroke-linecap="round" stroke-linejoin="round" fill="none" stroke-width="2" stroke-opacity="1" d=" M269.96 27.6 C269.96,27.6 92.17,27.6 92.17,27.6 C87.19,27.6 83.16,31.63 83.16,36.61 C83.16,36.61 83.16,177.68 83.16,177.68 C83.16,182.66 87.19,186.69 92.17,186.69 C92.17,186.69 269.96,186.69 269.96,186.69 C274.94,186.69 278.97,182.66 278.97,177.68 C278.97,177.68 278.97,36.61 278.97,36.61 C278.97,31.63 274.94,27.6 269.96,27.6z "/><path id="_R_G_L_3_G_D_2_P_0" fill="#ffffff" fill-opacity="1" fill-rule="nonzero" d=" M278.97 223.86 C278.97,223.86 83.16,223.89 83.16,223.89 C83.16,223.89 83.16,64.32 83.16,64.32 C83.16,64.32 278.97,64.32 278.97,64.32 C278.97,64.32 278.97,223.86 278.97,223.86z "/><path id="_R_G_L_3_G_D_3_P_0" stroke="#343434" stroke-linecap="round" stroke-linejoin="round" fill="none" stroke-width="2" stroke-opacity="1" d=" M278.97 223.86 C278.97,223.86 83.16,223.89 83.16,223.89 C83.16,223.89 83.16,64.32 83.16,64.32 C83.16,64.32 278.97,64.32 278.97,64.32 C278.97,64.32 278.97,223.86 278.97,223.86z "/><path id="_R_G_L_3_G_D_4_P_0" stroke="#343434" stroke-linecap="round" stroke-linejoin="round" fill="none" stroke-width="2" stroke-opacity="1" d=" M110.55 164.33 C110.55,164.33 260.47,164.33 260.47,164.33 "/><path id="_R_G_L_3_G_D_5_P_0" stroke="#343434" stroke-linecap="round" stroke-linejoin="round" fill="none" stroke-width="2" stroke-opacity="1" d=" M98.05 115.19 C98.05,115.19 261.57,115.19 261.57,115.19 "/><path id="_R_G_L_3_G_D_6_P_0" stroke="#343434" stroke-linecap="round" stroke-linejoin="round" fill="none" stroke-width="2" stroke-opacity="1" d=" M232.84 82.48 C232.84,82.48 232.84,197.04 232.84,197.04 "/><path id="_R_G_L_3_G_D_7_P_0" stroke="#343434" stroke-linecap="round" stroke-linejoin="round" fill="none" stroke-width="2" stroke-opacity="1" d=" M180.92 82.48 C180.92,82.48 180.92,197.04 180.92,197.04 "/><path id="_R_G_L_3_G_D_8_P_0" stroke="#343434" stroke-linecap="round" stroke-linejoin="round" fill="none" stroke-width="2" stroke-opacity="1" d=" M129 82.48 C129,82.48 129,197.04 129,197.04 "/><path id="_R_G_L_3_G_D_9_P_0" fill="#ffffff" fill-opacity="1" fill-rule="nonzero" d=" M83.02 260.89 C119.78,260.89 149.57,231.09 149.57,194.34 C149.57,157.59 119.78,127.79 83.02,127.79 C46.26,127.79 16.47,157.59 16.47,194.34 C16.47,231.09 46.26,260.89 83.02,260.89z "/><path id="_R_G_L_3_G_D_10_P_0" stroke="#343434" stroke-linecap="round" stroke-linejoin="round" fill="none" stroke-width="2" stroke-opacity="1" d=" M83.02 260.89 C119.78,260.89 149.57,231.09 149.57,194.34 C149.57,157.59 119.78,127.79 83.02,127.79 C46.26,127.79 16.47,157.59 16.47,194.34 C16.47,231.09 46.26,260.89 83.02,260.89z "/><path id="_R_G_L_3_G_D_11_P_0" fill="#343434" fill-opacity="1" fill-rule="nonzero" d=" M142.41 27.6 C142.41,27.6 278.97,48.47 278.97,48.47 C278.97,48.47 278.97,36.46 278.97,36.46 C278.97,31.57 275,27.6 270.11,27.6 C270.11,27.6 142.41,27.6 142.41,27.6z "/><path id="_R_G_L_3_G_D_12_P_0" fill="#ea7565" fill-opacity="1" fill-rule="nonzero" d=" M230.02 39.84 C236.78,39.84 242.26,34.36 242.26,27.6 C242.26,20.84 236.78,15.36 230.02,15.36 C223.26,15.36 217.78,20.84 217.78,27.6 C217.78,34.36 223.26,39.84 230.02,39.84z "/><path id="_R_G_L_3_G_D_13_P_0" stroke="#343434" stroke-linecap="round" stroke-linejoin="round" fill="none" stroke-width="2" stroke-opacity="1" d=" M230.02 39.84 C236.78,39.84 242.26,34.36 242.26,27.6 C242.26,20.84 236.78,15.36 230.02,15.36 C223.26,15.36 217.78,20.84 217.78,27.6 C217.78,34.36 223.26,39.84 230.02,39.84z "/><path id="_R_G_L_3_G_D_14_P_0" fill="#f26c5f" fill-opacity="1" fill-rule="nonzero" d=" M132.11 39.84 C138.87,39.84 144.35,34.36 144.35,27.6 C144.35,20.84 138.87,15.36 132.11,15.36 C125.35,15.36 119.87,20.84 119.87,27.6 C119.87,34.36 125.35,39.84 132.11,39.84z "/><path id="_R_G_L_3_G_D_15_P_0" stroke="#343434" stroke-linecap="round" stroke-linejoin="round" fill="none" stroke-width="2" stroke-opacity="1" d=" M132.11 39.84 C138.87,39.84 144.35,34.36 144.35,27.6 C144.35,20.84 138.87,15.36 132.11,15.36 C125.35,15.36 119.87,20.84 119.87,27.6 C119.87,34.36 125.35,39.84 132.11,39.84z "/><path id="_R_G_L_3_G_D_16_P_0" fill="#343434" fill-opacity="1" fill-rule="nonzero" d=" M278.77 224.21 C278.77,224.21 142.41,224.21 142.41,224.21 C142.41,224.21 146.41,214.85 146.41,214.85 C146.41,214.85 278.77,214.85 278.77,214.85 C278.77,214.85 278.77,224.21 278.77,224.21z "/><path id="_R_G_L_3_G_D_17_P_0" fill="#343434" fill-opacity="1" fill-rule="nonzero" d=" M270.69 218.83 C270.69,218.83 280.05,218.83 280.05,218.83 C280.05,218.83 280.05,64.31 280.05,64.31 C280.05,64.31 270.69,64.31 270.69,64.31 C270.69,64.31 270.69,218.83 270.69,218.83z "/><path id="_R_G_L_3_G_D_18_P_0" fill="#343434" fill-opacity="1" fill-rule="nonzero" d=" M83.02 127.79 C83.02,127.79 116.56,251.83 116.56,251.83 C116.56,251.83 144.56,235.68 149.57,200.38 C153.6,172.43 132.93,148.07 123.58,141.58 C115.07,135.67 99.65,127.11 83.02,127.79z "/><path id="_R_G_L_3_G_D_19_P_0" fill="#f2b855" fill-opacity="1" fill-rule="nonzero" d=" M83.02 251.46 C114.57,251.46 140.14,225.89 140.14,194.34 C140.14,162.79 114.57,137.22 83.02,137.22 C51.47,137.22 25.9,162.79 25.9,194.34 C25.9,225.89 51.47,251.46 83.02,251.46z "/><path id="_R_G_L_3_G_D_20_P_0" stroke="#343434" stroke-linecap="round" stroke-linejoin="round" fill="none" stroke-width="2" stroke-opacity="1" d=" M83.02 251.46 C114.57,251.46 140.14,225.89 140.14,194.34 C140.14,162.79 114.57,137.22 83.02,137.22 C51.47,137.22 25.9,162.79 25.9,194.34 C25.9,225.89 51.47,251.46 83.02,251.46z "/><g id="_R_G_L_3_G_D_21_P_0_G_0_T_0" transform=" translate(84.016, 192.876)"><path id="_R_G_L_3_G_D_21_P_0" stroke="#343434" stroke-linecap="round" stroke-linejoin="round" fill="none" stroke-width="2" stroke-opacity="1" d=" M19.54 7.62 C19.54,7.62 -19.54,34.33 -19.54,34.33 "/></g><g id="_R_G_L_3_G_D_22_P_0_G_0_T_0" transform=" translate(84.016, 192.876)"><path id="_R_G_L_3_G_D_22_P_0" stroke="#343434" stroke-linecap="round" stroke-linejoin="round" fill="none" stroke-width="2" stroke-opacity="1" d=" M19.54 -34.33 C19.54,-34.33 19.54,7.62 19.54,7.62 "/></g></g><g id="_R_G_L_2_G_M"><g id="_R_G_L_2_G" transform=" translate(250, 250) translate(0, 0)"><path id="_R_G_L_2_G_D_0_P_0" fill="#ffd780" fill-opacity="1" fill-rule="nonzero" d=" M23.01 51.26 C23.01,51.26 23.01,51.26 23.01,51.26 "/><path id="_R_G_L_2_G_D_1_P_0" stroke="#343434" stroke-linecap="round" stroke-linejoin="round" fill="none" stroke-width="3" stroke-opacity="1" d=" M23.01 51.26 C23.01,51.26 23.01,51.26 23.01,51.26 "/></g></g><g id="_R_G_L_1_G_M"><g id="_R_G_L_1_G" transform=" translate(250, 250) translate(0, 0)"><path id="_R_G_L_1_G_D_0_P_0" fill="#ffd780" fill-opacity="1" fill-rule="nonzero" d=" M23.01 86.82 C23.01,86.82 70.87,51.78 70.87,51.78 "/><path id="_R_G_L_1_G_D_1_P_0" stroke="#343434" stroke-linecap="round" stroke-linejoin="round" fill="none" stroke-width="3" stroke-opacity="1" d=" M23.01 86.82 C23.01,86.82 70.87,51.78 70.87,51.78 "/></g></g><g id="_R_G_L_0_G"><path id="_R_G_L_0_G_D_0_P_0" fill="#72c4a7" fill-opacity="1" fill-rule="nonzero" d=" M237.75 179.27 C237.75,179.27 331.02,86 331.02,86 C331.02,86 305.06,60.04 305.06,60.04 C305.06,60.04 211.79,153.31 211.79,153.31 C211.79,153.31 205.54,185.52 205.54,185.52 C205.54,185.52 237.75,179.27 237.75,179.27z "/><path id="_R_G_L_0_G_D_1_P_0" stroke="#343434" stroke-linecap="round" stroke-linejoin="round" fill="none" stroke-width="2" stroke-opacity="1" d=" M237.75 179.27 C237.75,179.27 331.02,86 331.02,86 C331.02,86 305.06,60.04 305.06,60.04 C305.06,60.04 211.79,153.31 211.79,153.31 C211.79,153.31 205.54,185.52 205.54,185.52 C205.54,185.52 237.75,179.27 237.75,179.27z "/><path id="_R_G_L_0_G_D_2_P_0" fill="#343434" fill-opacity="1" fill-rule="nonzero" d=" M236.14 179.27 C236.14,179.27 316.28,71.88 316.28,71.88 C316.28,71.88 329.4,86 329.4,86 C329.4,86 237.75,179.27 237.75,179.27 C237.75,179.27 236.14,179.27 236.14,179.27z "/></g></g><g id="time_group"/></svg>