<svg xmlns="http://www.w3.org/2000/svg" xmlns:xlink="http://www.w3.org/1999/xlink" preserveAspectRatio="xMidYMid meet" width="350" height="350" viewBox="0 0 350 350" style="width:100%;height:100%"><defs><animateTransform repeatCount="indefinite" dur="3.003003s" begin="0s" xlink:href="#_R_G_L_3_G" fill="freeze" attributeName="transform" from="0" to="360" type="rotate" additive="sum" keyTimes="0;1" values="0;360" keySplines="0.167 0.167 0.833 0.833" calcMode="spline"/><animateTransform repeatCount="indefinite" dur="3.003003s" begin="0s" xlink:href="#_R_G_L_3_G" fill="freeze" attributeName="transform" from="-240 -84" to="-240 -84" type="translate" additive="sum" keyTimes="0;1" values="-240 -84;-240 -84" keySplines="0 0 1 1" calcMode="spline"/><animate repeatCount="indefinite" dur="3.003003s" begin="0s" xlink:href="#_R_G_L_2_G_D_0_P_0" fill="freeze" attributeName="fill" from="#ffffff" to="#ffffff" keyTimes="0;0.2361111;0.25;0.7361112;0.75;1" values="#ffffff;#ffffff;#f2b855;#f2b855;#ffffff;#ffffff" keySplines="0.167 0.167 0.833 0.833;0.167 0.167 0.833 0.833;0.167 0.167 0.833 0.833;0.167 0.167 0.833 0.833;0 0 0 0" calcMode="spline"/><animateMotion repeatCount="indefinite" dur="3.003003s" begin="0s" xlink:href="#_R_G_L_0_G" fill="freeze" keyTimes="0;0.1666667;0.2777778;0.3333334;0.6666667;0.7777778;0.8333333;1" path="M249 229.25 C249,229.25 249,229.25 249,229.25 C249,229.25 249,236.75 249,236.75 C249,236.75 249,229.25 249,229.25 C249,229.25 249,229.25 249,229.25 C249,229.25 249,236.75 249,236.75 C249,236.75 249,229.25 249,229.25 C249,229.25 249,229.25 249,229.25 " keyPoints="0;0;0.25;0.5;0.5;0.75;1;1" keySplines="0.333 0 0.667 1;0.333 0 0.667 1;0 0 1 1;0.333 0.333 0.833 0.833;0.333 0 0.667 1;0 0 1 1;0 0 0 0" calcMode="spline"/><animateTransform repeatCount="indefinite" dur="3.003003s" begin="0s" xlink:href="#_R_G_L_0_G" fill="freeze" attributeName="transform" from="1 1" to="1 1" type="scale" additive="sum" keyTimes="0;0.1666667;0.2777778;0.3333334;0.6666667;0.7777778;0.8333333;1" values="1 1;1 1;0.9 0.9;1 1;1 1;0.9 0.9;1 1;1 1" keySplines="0.333 0 0.833 1;0.333 0 0.833 1;0.04 0 0.975 1;0.333 0 0.833 1;0.333 0 0.833 1;0.04 0 0.975 1;0 0 0 0" calcMode="spline"/><animateTransform repeatCount="indefinite" dur="3.003003s" begin="0s" xlink:href="#_R_G_L_0_G" fill="freeze" attributeName="transform" from="-249 -212.75" to="-249 -212.75" type="translate" additive="sum" keyTimes="0;1" values="-249 -212.75;-249 -212.75" keySplines="0 0 1 1" calcMode="spline"/><animate attributeType="XML" attributeName="opacity" dur="3s" from="0" to="1" xlink:href="#time_group"/></defs><g id="_R_G"><g id="_R_G_L_3_G" transform=" translate(240, 100.5)"><path id="_R_G_L_3_G_D_0_P_0" fill="#63acde" fill-opacity="1" fill-rule="nonzero" d=" M253.38 32.82 C258.2,34.06 262.75,35.97 266.93,38.44 C266.93,38.44 286.68,18.69 286.68,18.69 C286.68,18.69 305.26,37.27 305.26,37.27 C305.26,37.27 285.51,57.02 285.51,57.02 C287.98,61.2 289.89,65.75 291.13,70.58 C291.13,70.58 319.06,70.58 319.06,70.58 C319.06,70.58 319.06,96.85 319.06,96.85 C319.06,96.85 291.13,96.85 291.13,96.85 C289.89,101.67 287.98,106.22 285.52,110.4 C285.52,110.4 305.27,130.16 305.27,130.16 C305.27,130.16 286.7,148.73 286.7,148.73 C286.7,148.73 266.94,128.98 266.94,128.98 C262.76,131.45 258.2,133.36 253.38,134.6 C253.38,134.6 253.38,162.53 253.38,162.53 C253.38,162.53 227.11,162.53 227.11,162.53 C227.11,162.53 227.11,134.6 227.11,134.6 C222.28,133.36 217.73,131.45 213.55,128.98 C213.55,128.98 193.79,148.74 193.79,148.74 C193.79,148.74 175.22,130.16 175.22,130.16 C175.22,130.16 194.97,110.4 194.97,110.4 C192.5,106.22 190.59,101.67 189.35,96.85 C189.35,96.85 161.42,96.85 161.42,96.85 C161.42,96.85 161.42,70.58 161.42,70.58 C161.42,70.58 189.35,70.58 189.35,70.58 C190.59,65.75 192.5,61.2 194.98,57.01 C194.98,57.01 175.23,37.27 175.23,37.27 C175.23,37.27 193.81,18.69 193.81,18.69 C193.81,18.69 213.56,38.44 213.56,38.44 C217.73,35.97 222.29,34.06 227.11,32.82 C227.11,32.82 227.11,4.89 227.11,4.89 C227.11,4.89 253.38,4.89 253.38,4.89 C253.38,4.89 253.38,32.82 253.38,32.82z  M240.24 64.01 C229.36,64.01 220.54,72.83 220.54,83.71 C220.54,94.6 229.36,103.42 240.24,103.42 C251.12,103.42 259.95,94.6 259.95,83.71 C259.95,72.83 251.12,64.01 240.24,64.01z "/><path id="_R_G_L_3_G_D_1_P_0" fill="#343434" fill-opacity="1" fill-rule="nonzero" d=" M253.38 32.82 C253.38,32.82 252.5,32.82 252.5,32.82 C252.5,32.82 252.5,33.5 252.5,33.5 C252.5,33.5 253.16,33.67 253.16,33.67 C253.16,33.67 253.38,32.82 253.38,32.82z  M266.93 38.44 C266.93,38.44 266.49,39.19 266.49,39.19 C266.49,39.19 267.07,39.54 267.07,39.54 C267.07,39.54 267.55,39.06 267.55,39.06 C267.55,39.06 266.93,38.44 266.93,38.44z  M286.68 18.69 C286.68,18.69 287.3,18.07 287.3,18.07 C287.3,18.07 286.68,17.45 286.68,17.45 C286.68,17.45 286.06,18.07 286.06,18.07 C286.06,18.07 286.68,18.69 286.68,18.69z  M305.26 37.27 C305.26,37.27 305.88,37.89 305.88,37.89 C305.88,37.89 306.5,37.27 306.5,37.27 C306.5,37.27 305.88,36.65 305.88,36.65 C305.88,36.65 305.26,37.27 305.26,37.27z  M285.51 57.02 C285.51,57.02 284.89,56.4 284.89,56.4 C284.89,56.4 284.41,56.88 284.41,56.88 C284.41,56.88 284.76,57.46 284.76,57.46 C284.76,57.46 285.51,57.02 285.51,57.02z  M291.13 70.58 C291.13,70.58 290.28,70.79 290.28,70.79 C290.28,70.79 290.45,71.45 290.45,71.45 C290.45,71.45 291.13,71.45 291.13,71.45 C291.13,71.45 291.13,70.58 291.13,70.58z  M319.06 70.58 C319.06,70.58 319.94,70.58 319.94,70.58 C319.94,70.58 319.94,69.7 319.94,69.7 C319.94,69.7 319.06,69.7 319.06,69.7 C319.06,69.7 319.06,70.58 319.06,70.58z    M319.06 97.72 C319.06,97.72 319.94,97.72 319.94,97.72 C319.94,97.72 319.94,96.85 319.94,96.85 C319.94,96.85 319.06,96.85 319.06,96.85 C319.06,96.85 319.06,97.72 319.06,97.72z  M291.13 96.85 C291.13,96.85 291.13,95.97 291.13,95.97 C291.13,95.97 290.45,95.97 290.45,95.97 C290.45,95.97 290.28,96.63 290.28,96.63 C290.28,96.63 291.13,96.85 291.13,96.85z  M285.52 110.4 C285.52,110.4 284.76,109.95 284.76,109.95 C284.76,109.95 284.42,110.54 284.42,110.54 C284.42,110.54 284.9,111.02 284.9,111.02 C284.9,111.02 285.52,110.4 285.52,110.4z  M305.27 130.16 C305.27,130.16 305.89,130.78 305.89,130.78 C305.89,130.78 306.51,130.16 306.51,130.16 C306.51,130.16 305.89,129.54 305.89,129.54 C305.89,129.54 305.27,130.16 305.27,130.16z  M286.7 148.73 C286.7,148.73 286.08,149.35 286.08,149.35 C286.08,149.35 286.7,149.97 286.7,149.97 C286.7,149.97 287.31,149.35 287.31,149.35 C287.31,149.35 286.7,148.73 286.7,148.73z  M266.94 128.98 C266.94,128.98 267.56,128.36 267.56,128.36 C267.56,128.36 267.08,127.88 267.08,127.88 C267.08,127.88 266.5,128.22 266.5,128.22 C266.5,128.22 266.94,128.98 266.94,128.98z  M253.38 134.6 C253.38,134.6 253.16,133.75 253.16,133.75 C253.16,133.75 252.5,133.92 252.5,133.92 C252.5,133.92 252.5,134.6 252.5,134.6 C252.5,134.6 253.38,134.6 253.38,134.6z    M253.38 163.41 C253.38,163.41 254.25,163.41 254.25,163.41 C254.25,163.41 254.25,162.53 254.25,162.53 C254.25,162.53 253.38,162.53 253.38,162.53 C253.38,162.53 253.38,163.41 253.38,163.41z  M227.11 162.53 C227.11,162.53 226.23,162.53 226.23,162.53 C226.23,162.53 226.23,163.41 226.23,163.41 C226.23,163.41 227.11,163.41 227.11,163.41 C227.11,163.41 227.11,162.53 227.11,162.53z  M227.11 134.6 C227.11,134.6 227.98,134.6 227.98,134.6 C227.98,134.6 227.98,133.92 227.98,133.92 C227.98,133.92 227.32,133.75 227.32,133.75 C227.32,133.75 227.11,134.6 227.11,134.6z  M213.55 128.98 C213.55,128.98 213.99,128.23 213.99,128.23 C213.99,128.23 213.41,127.88 213.41,127.88 C213.41,127.88 212.93,128.36 212.93,128.36 C212.93,128.36 213.55,128.98 213.55,128.98z  M193.79 148.74 C193.79,148.74 193.17,149.35 193.17,149.35 C193.17,149.35 193.79,149.97 193.79,149.97 C193.79,149.97 194.41,149.35 194.41,149.35 C194.41,149.35 193.79,148.74 193.79,148.74z  M175.22 130.16 C175.22,130.16 174.6,129.54 174.6,129.54 C174.6,129.54 173.98,130.16 173.98,130.16 C173.98,130.16 174.6,130.78 174.6,130.78 C174.6,130.78 175.22,130.16 175.22,130.16z  M194.97 110.4 C194.97,110.4 195.59,111.02 195.59,111.02 C195.59,111.02 196.07,110.54 196.07,110.54 C196.07,110.54 195.72,109.96 195.72,109.96 C195.72,109.96 194.97,110.4 194.97,110.4z  M189.35 96.85 C189.35,96.85 190.2,96.63 190.2,96.63 C190.2,96.63 190.03,95.97 190.03,95.97 C190.03,95.97 189.35,95.97 189.35,95.97 C189.35,95.97 189.35,96.85 189.35,96.85z  M161.42 96.85 C161.42,96.85 160.55,96.85 160.55,96.85 C160.55,96.85 160.55,97.72 160.55,97.72 C160.55,97.72 161.42,97.72 161.42,97.72 C161.42,97.72 161.42,96.85 161.42,96.85z    M161.42 69.7 C161.42,69.7 160.55,69.7 160.55,69.7 C160.55,69.7 160.55,70.58 160.55,70.58 C160.55,70.58 161.42,70.58 161.42,70.58 C161.42,70.58 161.42,69.7 161.42,69.7z  M189.35 70.58 C189.35,70.58 189.35,71.45 189.35,71.45 C189.35,71.45 190.03,71.45 190.03,71.45 C190.03,71.45 190.2,70.79 190.2,70.79 C190.2,70.79 189.35,70.58 189.35,70.58z  M194.98 57.01 C194.98,57.01 195.73,57.46 195.73,57.46 C195.73,57.46 196.07,56.87 196.07,56.87 C196.07,56.87 195.59,56.39 195.59,56.39 C195.59,56.39 194.98,57.01 194.98,57.01z  M175.23 37.27 C175.23,37.27 174.61,36.65 174.61,36.65 C174.61,36.65 173.99,37.27 173.99,37.27 C173.99,37.27 174.61,37.89 174.61,37.89 C174.61,37.89 175.23,37.27 175.23,37.27z  M193.81 18.69 C193.81,18.69 194.43,18.07 194.43,18.07 C194.43,18.07 193.81,17.45 193.81,17.45 C193.81,17.45 193.19,18.07 193.19,18.07 C193.19,18.07 193.81,18.69 193.81,18.69z  M213.56 38.44 C213.56,38.44 212.94,39.06 212.94,39.06 C212.94,39.06 213.42,39.54 213.42,39.54 C213.42,39.54 214,39.19 214,39.19 C214,39.19 213.56,38.44 213.56,38.44z  M227.11 32.82 C227.11,32.82 227.32,33.67 227.32,33.67 C227.32,33.67 227.98,33.5 227.98,33.5 C227.98,33.5 227.98,32.82 227.98,32.82 C227.98,32.82 227.11,32.82 227.11,32.82z    M227.11 4.02 C227.11,4.02 226.23,4.02 226.23,4.02 C226.23,4.02 226.23,4.89 226.23,4.89 C226.23,4.89 227.11,4.89 227.11,4.89 C227.11,4.89 227.11,4.02 227.11,4.02z  M253.38 4.89 C253.38,4.89 254.25,4.89 254.25,4.89 C254.25,4.89 254.25,4.02 254.25,4.02 C254.25,4.02 253.38,4.02 253.38,4.02 C253.38,4.02 253.38,4.89 253.38,4.89z  M240.24 64.01 C240.24,64.01 240.24,63.13 240.24,63.13 C240.24,63.13 240.24,64.01 240.24,64.01z  M220.54 83.71 C220.54,83.71 219.66,83.71 219.66,83.71 C219.66,83.71 220.54,83.71 220.54,83.71z  M240.24 103.42 C240.24,103.42 240.24,104.29 240.24,104.29 C240.24,104.29 240.24,103.42 240.24,103.42z  M259.95 83.71 C259.95,83.71 260.82,83.71 260.82,83.71 C260.82,83.71 259.95,83.71 259.95,83.71z  M253.38 32.82 C253.38,32.82 253.16,33.67 253.16,33.67 C257.9,34.89 262.37,36.77 266.49,39.19 C266.49,39.19 266.93,38.44 266.93,38.44 C266.93,38.44 267.38,37.69 267.38,37.69 C263.13,35.17 258.5,33.24 253.6,31.97 C253.6,31.97 253.38,32.82 253.38,32.82z  M266.93 38.44 C266.93,38.44 267.55,39.06 267.55,39.06 C267.55,39.06 287.3,19.31 287.3,19.31 C287.3,19.31 286.68,18.69 286.68,18.69 C286.68,18.69 286.06,18.07 286.06,18.07 C286.06,18.07 266.31,37.82 266.31,37.82 C266.31,37.82 266.93,38.44 266.93,38.44z  M286.68 18.69 C286.68,18.69 286.06,19.31 286.06,19.31 C286.06,19.31 304.64,37.89 304.64,37.89 C304.64,37.89 305.26,37.27 305.26,37.27 C305.26,37.27 305.88,36.65 305.88,36.65 C305.88,36.65 287.3,18.07 287.3,18.07 C287.3,18.07 286.68,18.69 286.68,18.69z  M305.26 37.27 C305.26,37.27 304.64,36.65 304.64,36.65 C304.64,36.65 284.89,56.4 284.89,56.4 C284.89,56.4 285.51,57.02 285.51,57.02 C285.51,57.02 286.13,57.64 286.13,57.64 C286.13,57.64 305.88,37.89 305.88,37.89 C305.88,37.89 305.26,37.27 305.26,37.27z  M285.51 57.02 C285.51,57.02 284.76,57.46 284.76,57.46 C287.19,61.57 289.06,66.05 290.28,70.79 C290.28,70.79 291.13,70.58 291.13,70.58 C291.13,70.58 291.98,70.36 291.98,70.36 C290.72,65.45 288.78,60.82 286.26,56.57 C286.26,56.57 285.51,57.02 285.51,57.02z  M291.13 70.58 C291.13,70.58 291.13,71.45 291.13,71.45 C291.13,71.45 319.06,71.45 319.06,71.45 C319.06,71.45 319.06,70.58 319.06,70.58 C319.06,70.58 319.06,69.7 319.06,69.7 C319.06,69.7 291.13,69.7 291.13,69.7 C291.13,69.7 291.13,70.58 291.13,70.58z  M319.06 70.58 C319.06,70.58 318.18,70.58 318.18,70.58 C318.18,70.58 318.18,96.85 318.18,96.85 C318.18,96.85 319.06,96.85 319.06,96.85 C319.06,96.85 319.94,96.85 319.94,96.85 C319.94,96.85 319.94,70.58 319.94,70.58 C319.94,70.58 319.06,70.58 319.06,70.58z  M319.06 96.85 C319.06,96.85 319.06,95.97 319.06,95.97 C319.06,95.97 291.13,95.97 291.13,95.97 C291.13,95.97 291.13,96.85 291.13,96.85 C291.13,96.85 291.13,97.72 291.13,97.72 C291.13,97.72 319.06,97.72 319.06,97.72 C319.06,97.72 319.06,96.85 319.06,96.85z  M291.13 96.85 C291.13,96.85 290.28,96.63 290.28,96.63 C289.06,101.37 287.19,105.84 284.76,109.95 C284.76,109.95 285.52,110.4 285.52,110.4 C285.52,110.4 286.27,110.84 286.27,110.84 C288.78,106.59 290.72,101.97 291.98,97.07 C291.98,97.07 291.13,96.85 291.13,96.85z  M285.52 110.4 C285.52,110.4 284.9,111.02 284.9,111.02 C284.9,111.02 304.65,130.78 304.65,130.78 C304.65,130.78 305.27,130.16 305.27,130.16 C305.27,130.16 305.89,129.54 305.89,129.54 C305.89,129.54 286.14,109.78 286.14,109.78 C286.14,109.78 285.52,110.4 285.52,110.4z  M305.27 130.16 C305.27,130.16 304.65,129.54 304.65,129.54 C304.65,129.54 286.08,148.11 286.08,148.11 C286.08,148.11 286.7,148.73 286.7,148.73 C286.7,148.73 287.31,149.35 287.31,149.35 C287.31,149.35 305.89,130.78 305.89,130.78 C305.89,130.78 305.27,130.16 305.27,130.16z  M286.7 148.73 C286.7,148.73 287.31,148.11 287.31,148.11 C287.31,148.11 267.56,128.36 267.56,128.36 C267.56,128.36 266.94,128.98 266.94,128.98 C266.94,128.98 266.32,129.6 266.32,129.6 C266.32,129.6 286.08,149.35 286.08,149.35 C286.08,149.35 286.7,148.73 286.7,148.73z  M266.94 128.98 C266.94,128.98 266.5,128.22 266.5,128.22 C262.38,130.66 257.9,132.53 253.16,133.75 C253.16,133.75 253.38,134.6 253.38,134.6 C253.38,134.6 253.6,135.45 253.6,135.45 C258.5,134.19 263.13,132.25 267.39,129.73 C267.39,129.73 266.94,128.98 266.94,128.98z  M253.38 134.6 C253.38,134.6 252.5,134.6 252.5,134.6 C252.5,134.6 252.5,162.53 252.5,162.53 C252.5,162.53 253.38,162.53 253.38,162.53 C253.38,162.53 254.25,162.53 254.25,162.53 C254.25,162.53 254.25,134.6 254.25,134.6 C254.25,134.6 253.38,134.6 253.38,134.6z  M253.38 162.53 C253.38,162.53 253.38,161.66 253.38,161.66 C253.38,161.66 227.11,161.66 227.11,161.66 C227.11,161.66 227.11,162.53 227.11,162.53 C227.11,162.53 227.11,163.41 227.11,163.41 C227.11,163.41 253.38,163.41 253.38,163.41 C253.38,163.41 253.38,162.53 253.38,162.53z  M227.11 162.53 C227.11,162.53 227.98,162.53 227.98,162.53 C227.98,162.53 227.98,134.6 227.98,134.6 C227.98,134.6 227.11,134.6 227.11,134.6 C227.11,134.6 226.23,134.6 226.23,134.6 C226.23,134.6 226.23,162.53 226.23,162.53 C226.23,162.53 227.11,162.53 227.11,162.53z  M227.11 134.6 C227.11,134.6 227.32,133.75 227.32,133.75 C222.58,132.53 218.1,130.66 213.99,128.23 C213.99,128.23 213.55,128.98 213.55,128.98 C213.55,128.98 213.1,129.73 213.1,129.73 C217.35,132.25 221.98,134.19 226.89,135.45 C226.89,135.45 227.11,134.6 227.11,134.6z  M213.55 128.98 C213.55,128.98 212.93,128.36 212.93,128.36 C212.93,128.36 193.17,148.12 193.17,148.12 C193.17,148.12 193.79,148.74 193.79,148.74 C193.79,148.74 194.41,149.35 194.41,149.35 C194.41,149.35 214.17,129.6 214.17,129.6 C214.17,129.6 213.55,128.98 213.55,128.98z  M193.79 148.74 C193.79,148.74 194.41,148.12 194.41,148.12 C194.41,148.12 175.83,129.54 175.83,129.54 C175.83,129.54 175.22,130.16 175.22,130.16 C175.22,130.16 174.6,130.78 174.6,130.78 C174.6,130.78 193.17,149.35 193.17,149.35 C193.17,149.35 193.79,148.74 193.79,148.74z  M175.22 130.16 C175.22,130.16 175.83,130.78 175.83,130.78 C175.83,130.78 195.59,111.02 195.59,111.02 C195.59,111.02 194.97,110.4 194.97,110.4 C194.97,110.4 194.35,109.78 194.35,109.78 C194.35,109.78 174.6,129.54 174.6,129.54 C174.6,129.54 175.22,130.16 175.22,130.16z  M194.97 110.4 C194.97,110.4 195.72,109.96 195.72,109.96 C193.29,105.85 191.42,101.37 190.2,96.63 C190.2,96.63 189.35,96.85 189.35,96.85 C189.35,96.85 188.5,97.07 188.5,97.07 C189.77,101.97 191.7,106.6 194.22,110.85 C194.22,110.85 194.97,110.4 194.97,110.4z  M189.35 96.85 C189.35,96.85 189.35,95.97 189.35,95.97 C189.35,95.97 161.42,95.97 161.42,95.97 C161.42,95.97 161.42,96.85 161.42,96.85 C161.42,96.85 161.42,97.72 161.42,97.72 C161.42,97.72 189.35,97.72 189.35,97.72 C189.35,97.72 189.35,96.85 189.35,96.85z  M161.42 96.85 C161.42,96.85 162.3,96.85 162.3,96.85 C162.3,96.85 162.3,70.58 162.3,70.58 C162.3,70.58 161.42,70.58 161.42,70.58 C161.42,70.58 160.55,70.58 160.55,70.58 C160.55,70.58 160.55,96.85 160.55,96.85 C160.55,96.85 161.42,96.85 161.42,96.85z  M161.42 70.58 C161.42,70.58 161.42,71.45 161.42,71.45 C161.42,71.45 189.35,71.45 189.35,71.45 C189.35,71.45 189.35,70.58 189.35,70.58 C189.35,70.58 189.35,69.7 189.35,69.7 C189.35,69.7 161.42,69.7 161.42,69.7 C161.42,69.7 161.42,70.58 161.42,70.58z  M189.35 70.58 C189.35,70.58 190.2,70.79 190.2,70.79 C191.42,66.05 193.3,61.57 195.73,57.46 C195.73,57.46 194.98,57.01 194.98,57.01 C194.98,57.01 194.22,56.57 194.22,56.57 C191.71,60.82 189.77,65.45 188.5,70.36 C188.5,70.36 189.35,70.58 189.35,70.58z  M194.98 57.01 C194.98,57.01 195.59,56.39 195.59,56.39 C195.59,56.39 175.85,36.65 175.85,36.65 C175.85,36.65 175.23,37.27 175.23,37.27 C175.23,37.27 174.61,37.89 174.61,37.89 C174.61,37.89 194.36,57.63 194.36,57.63 C194.36,57.63 194.98,57.01 194.98,57.01z  M175.23 37.27 C175.23,37.27 175.85,37.89 175.85,37.89 C175.85,37.89 194.43,19.31 194.43,19.31 C194.43,19.31 193.81,18.69 193.81,18.69 C193.81,18.69 193.19,18.07 193.19,18.07 C193.19,18.07 174.61,36.65 174.61,36.65 C174.61,36.65 175.23,37.27 175.23,37.27z  M193.81 18.69 C193.81,18.69 193.19,19.31 193.19,19.31 C193.19,19.31 212.94,39.06 212.94,39.06 C212.94,39.06 213.56,38.44 213.56,38.44 C213.56,38.44 214.17,37.82 214.17,37.82 C214.17,37.82 194.43,18.07 194.43,18.07 C194.43,18.07 193.81,18.69 193.81,18.69z  M213.56 38.44 C213.56,38.44 214,39.19 214,39.19 C218.11,36.76 222.59,34.89 227.32,33.67 C227.32,33.67 227.11,32.82 227.11,32.82 C227.11,32.82 226.89,31.97 226.89,31.97 C221.99,33.24 217.36,35.17 213.11,37.68 C213.11,37.68 213.56,38.44 213.56,38.44z  M227.11 32.82 C227.11,32.82 227.98,32.82 227.98,32.82 C227.98,32.82 227.98,4.89 227.98,4.89 C227.98,4.89 227.11,4.89 227.11,4.89 C227.11,4.89 226.23,4.89 226.23,4.89 C226.23,4.89 226.23,32.82 226.23,32.82 C226.23,32.82 227.11,32.82 227.11,32.82z  M227.11 4.89 C227.11,4.89 227.11,5.77 227.11,5.77 C227.11,5.77 253.38,5.77 253.38,5.77 C253.38,5.77 253.38,4.89 253.38,4.89 C253.38,4.89 253.38,4.02 253.38,4.02 C253.38,4.02 227.11,4.02 227.11,4.02 C227.11,4.02 227.11,4.89 227.11,4.89z  M253.38 4.89 C253.38,4.89 252.5,4.89 252.5,4.89 C252.5,4.89 252.5,32.82 252.5,32.82 C252.5,32.82 253.38,32.82 253.38,32.82 C253.38,32.82 254.25,32.82 254.25,32.82 C254.25,32.82 254.25,4.89 254.25,4.89 C254.25,4.89 253.38,4.89 253.38,4.89z  M240.24 64.01 C240.24,64.01 240.24,63.13 240.24,63.13 C228.88,63.13 219.66,72.35 219.66,83.71 C219.66,83.71 220.54,83.71 220.54,83.71 C220.54,83.71 221.41,83.71 221.41,83.71 C221.41,73.31 229.84,64.88 240.24,64.88 C240.24,64.88 240.24,64.01 240.24,64.01z  M220.54 83.71 C220.54,83.71 219.66,83.71 219.66,83.71 C219.66,95.08 228.88,104.29 240.24,104.29 C240.24,104.29 240.24,103.42 240.24,103.42 C240.24,103.42 240.24,102.54 240.24,102.54 C229.84,102.54 221.41,94.11 221.41,83.71 C221.41,83.71 220.54,83.71 220.54,83.71z  M240.24 103.42 C240.24,103.42 240.24,104.29 240.24,104.29 C251.61,104.29 260.82,95.08 260.82,83.71 C260.82,83.71 259.95,83.71 259.95,83.71 C259.95,83.71 259.07,83.71 259.07,83.71 C259.07,94.11 250.64,102.54 240.24,102.54 C240.24,102.54 240.24,103.42 240.24,103.42z  M259.95 83.71 C259.95,83.71 260.82,83.71 260.82,83.71 C260.82,72.35 251.61,63.13 240.24,63.13 C240.24,63.13 240.24,64.01 240.24,64.01 C240.24,64.01 240.24,64.88 240.24,64.88 C250.64,64.88 259.07,73.31 259.07,83.71 C259.07,83.71 259.95,83.71 259.95,83.71z "/></g><g id="_R_G_L_2_G" transform=" translate(175, 175) translate(-175, -158.5)"><path id="_R_G_L_2_G_D_0_P_0" fill="#ffffff" fill-opacity="1" fill-rule="nonzero" d=" M205.21 118.74 C205.21,171.29 152.67,188.8 152.67,223.83 C152.67,233.51 144.82,241.35 135.15,241.35 C135.15,241.35 100.12,241.35 100.12,241.35 C90.45,241.35 82.61,233.51 82.61,223.83 C82.61,188.8 30.06,171.29 30.06,118.74 C30.06,70.38 69.27,31.17 117.64,31.17 C166,31.17 205.21,70.38 205.21,118.74z "/><path id="_R_G_L_2_G_D_1_P_0" stroke="#343434" stroke-linecap="round" stroke-linejoin="round" fill="none" stroke-width="1.752" stroke-opacity="1" d=" M205.21 118.74 C205.21,171.29 152.67,188.8 152.67,223.83 C152.67,233.51 144.82,241.35 135.15,241.35 C135.15,241.35 100.12,241.35 100.12,241.35 C90.45,241.35 82.61,233.51 82.61,223.83 C82.61,188.8 30.06,171.29 30.06,118.74 C30.06,70.38 69.27,31.17 117.64,31.17 C166,31.17 205.21,70.38 205.21,118.74z "/></g><g id="_R_G_L_1_G" transform=" translate(175, 175) translate(-175, -158.5)"><path id="_R_G_L_1_G_D_0_P_0" fill="#343434" fill-opacity="1" fill-rule="nonzero" d=" M192.31 72.98 C200.49,86.29 205.21,101.97 205.21,118.74 C205.21,171.29 152.67,188.8 152.67,223.83 C152.67,233.51 144.83,241.35 135.15,241.35 C135.15,241.35 100.12,241.35 100.12,241.35 C98.75,241.35 97.42,241.19 96.14,240.89 C96.14,240.89 126.44,240.89 126.44,240.89 C136.12,240.89 143.96,233.05 143.96,223.38 C143.96,223.38 143.96,222.23 143.96,222.23 C143.96,184.89 200.06,166.23 200.06,110.23 C200.06,96.99 197.3,84.39 192.31,72.98z "/><path id="_R_G_L_1_G_D_1_P_0" fill="#ffffff" fill-opacity="1" fill-rule="nonzero" d=" M100.12 293.89 C100.12,293.89 135.15,293.89 135.15,293.89 C135.15,303.57 127.31,311.41 117.64,311.41 C107.96,311.41 100.12,303.57 100.12,293.89z "/><path id="_R_G_L_1_G_D_2_P_0" stroke="#343434" stroke-linecap="round" stroke-linejoin="round" fill="none" stroke-width="1.752" stroke-opacity="1" d=" M100.12 293.89 C100.12,293.89 135.15,293.89 135.15,293.89 C135.15,303.57 127.31,311.41 117.64,311.41 C107.96,311.41 100.12,303.57 100.12,293.89z "/><path id="_R_G_L_1_G_D_3_P_0" fill="#343434" fill-opacity="1" fill-rule="nonzero" d=" M135.15 293.89 C135.15,303.57 127.31,311.41 117.64,311.41 C115.99,311.41 114.39,311.18 112.88,310.75 C120.24,308.68 125.63,301.92 125.63,293.89 C125.63,293.89 135.15,293.89 135.15,293.89z "/><path id="_R_G_L_1_G_D_4_P_0" fill="#ffffff" fill-opacity="1" fill-rule="nonzero" d=" M91.36 241.35 C91.36,241.35 143.9,241.35 143.9,241.35 C148.74,241.35 152.66,245.27 152.66,250.11 C152.66,254.94 148.74,258.87 143.9,258.87 C143.9,258.87 91.36,258.87 91.36,258.87 C86.52,258.87 82.6,254.94 82.6,250.11 C82.6,245.27 86.52,241.35 91.36,241.35z "/><path id="_R_G_L_1_G_D_5_P_0" stroke="#343434" stroke-linecap="round" stroke-linejoin="round" fill="none" stroke-width="1.752" stroke-opacity="1" d=" M91.36 241.35 C91.36,241.35 143.9,241.35 143.9,241.35 C148.74,241.35 152.66,245.27 152.66,250.11 C152.66,254.94 148.74,258.87 143.9,258.87 C143.9,258.87 91.36,258.87 91.36,258.87 C86.52,258.87 82.6,254.94 82.6,250.11 C82.6,245.27 86.52,241.35 91.36,241.35z "/><path id="_R_G_L_1_G_D_6_P_0" fill="#343434" fill-opacity="1" fill-rule="nonzero" d=" M143.91 241.35 C148.74,241.35 152.67,245.27 152.67,250.11 C152.67,254.94 148.74,258.86 143.91,258.86 C143.91,258.86 135.15,258.86 135.15,258.86 C135.15,258.86 135.6,258.85 135.6,258.85 C140.23,258.62 143.91,254.79 143.91,250.11 C143.91,245.27 139.99,241.35 135.15,241.35 C135.15,241.35 143.91,241.35 143.91,241.35z "/><path id="_R_G_L_1_G_D_7_P_0" fill="#ffffff" fill-opacity="1" fill-rule="nonzero" d=" M91.36 258.86 C91.36,258.86 143.9,258.86 143.9,258.86 C148.74,258.86 152.66,262.79 152.66,267.62 C152.66,272.46 148.74,276.38 143.9,276.38 C143.9,276.38 91.36,276.38 91.36,276.38 C86.52,276.38 82.6,272.46 82.6,267.62 C82.6,262.79 86.52,258.86 91.36,258.86z "/><path id="_R_G_L_1_G_D_8_P_0" stroke="#343434" stroke-linecap="round" stroke-linejoin="round" fill="none" stroke-width="1.752" stroke-opacity="1" d=" M91.36 258.86 C91.36,258.86 143.9,258.86 143.9,258.86 C148.74,258.86 152.66,262.79 152.66,267.62 C152.66,272.46 148.74,276.38 143.9,276.38 C143.9,276.38 91.36,276.38 91.36,276.38 C86.52,276.38 82.6,272.46 82.6,267.62 C82.6,262.79 86.52,258.86 91.36,258.86z "/><path id="_R_G_L_1_G_D_9_P_0" fill="#343434" fill-opacity="1" fill-rule="nonzero" d=" M143.91 258.86 C148.74,258.86 152.67,262.78 152.67,267.62 C152.67,272.46 148.74,276.38 143.91,276.38 C143.91,276.38 135.15,276.38 135.15,276.38 C135.15,276.38 135.6,276.37 135.6,276.37 C140.23,276.13 143.91,272.31 143.91,267.62 C143.91,262.78 139.99,258.86 135.15,258.86 C135.15,258.86 143.91,258.86 143.91,258.86z "/><path id="_R_G_L_1_G_D_10_P_0" fill="#ffffff" fill-opacity="1" fill-rule="nonzero" d=" M91.36 276.38 C91.36,276.38 143.9,276.38 143.9,276.38 C148.74,276.38 152.66,280.3 152.66,285.14 C152.66,289.97 148.74,293.9 143.9,293.9 C143.9,293.9 91.36,293.9 91.36,293.9 C86.52,293.9 82.6,289.97 82.6,285.14 C82.6,280.3 86.52,276.38 91.36,276.38z "/><path id="_R_G_L_1_G_D_11_P_0" stroke="#343434" stroke-linecap="round" stroke-linejoin="round" fill="none" stroke-width="1.752" stroke-opacity="1" d=" M91.36 276.38 C91.36,276.38 143.9,276.38 143.9,276.38 C148.74,276.38 152.66,280.3 152.66,285.14 C152.66,289.97 148.74,293.9 143.9,293.9 C143.9,293.9 91.36,293.9 91.36,293.9 C86.52,293.9 82.6,289.97 82.6,285.14 C82.6,280.3 86.52,276.38 91.36,276.38z "/><path id="_R_G_L_1_G_D_12_P_0" fill="#343434" fill-opacity="1" fill-rule="nonzero" d=" M143.91 276.38 C148.74,276.38 152.67,280.3 152.67,285.14 C152.67,289.97 148.74,293.89 143.91,293.9 C143.91,293.9 135.15,293.9 135.15,293.9 C135.15,293.9 135.6,293.88 135.6,293.88 C140.23,293.65 143.91,289.82 143.91,285.14 C143.91,280.3 139.99,276.38 135.15,276.38 C135.15,276.38 143.91,276.38 143.91,276.38z "/><path id="_R_G_L_1_G_D_13_P_0" stroke="#343434" stroke-linecap="round" stroke-linejoin="round" fill="none" stroke-width="1.752" stroke-opacity="1" d=" M135.15 127.5 C135.15,127.5 100.12,153.77 100.12,153.77 C100.12,153.77 135.15,153.77 135.15,153.77 C135.15,153.77 100.12,180.05 100.12,180.05 C100.12,180.05 135.15,180.05 135.15,180.05 C135.15,180.05 100.12,206.32 100.12,206.32 "/></g><g id="_R_G_L_0_G"><path id="_R_G_L_0_G_D_0_P_0" fill="#d5e05e" fill-opacity="1" fill-rule="nonzero" d=" M298.98 212.51 C298.98,212.51 286.6,200.13 286.6,200.13 C284.95,198.48 282.73,197.56 280.4,197.56 C280.4,197.56 217.6,197.56 217.6,197.56 C215.27,197.56 213.05,198.48 211.4,200.13 C211.4,200.13 199.02,212.51 199.02,212.51 C197.38,214.15 196.45,216.38 196.45,218.7 C196.45,218.7 196.45,267.62 196.45,267.62 C196.45,272.46 200.38,276.38 205.21,276.38 C205.21,276.38 292.79,276.38 292.79,276.38 C297.62,276.38 301.55,272.46 301.55,267.62 C301.55,267.62 301.55,218.7 301.55,218.7 C301.55,216.38 300.62,214.15 298.98,212.51z "/><path id="_R_G_L_0_G_D_1_P_0" stroke="#343434" stroke-linecap="round" stroke-linejoin="round" fill="none" stroke-width="1.752" stroke-opacity="1" d=" M298.98 212.51 C298.98,212.51 286.6,200.13 286.6,200.13 C284.95,198.48 282.73,197.56 280.4,197.56 C280.4,197.56 217.6,197.56 217.6,197.56 C215.27,197.56 213.05,198.48 211.4,200.13 C211.4,200.13 199.02,212.51 199.02,212.51 C197.38,214.15 196.45,216.38 196.45,218.7 C196.45,218.7 196.45,267.62 196.45,267.62 C196.45,272.46 200.38,276.38 205.21,276.38 C205.21,276.38 292.79,276.38 292.79,276.38 C297.62,276.38 301.55,272.46 301.55,267.62 C301.55,267.62 301.55,218.7 301.55,218.7 C301.55,216.38 300.62,214.15 298.98,212.51z "/><path id="_R_G_L_0_G_D_2_P_0" fill="#343434" fill-opacity="1" fill-rule="nonzero" d=" M298.98 212.51 C298.98,212.51 286.6,200.13 286.6,200.13 C284.95,198.48 282.73,197.56 280.4,197.56 C280.4,197.56 222.73,197.56 222.73,197.56 C217.89,197.56 213.97,201.48 213.97,206.32 C213.97,206.32 213.97,255.24 213.97,255.24 C213.97,257.56 213.05,259.79 211.4,261.43 C211.4,261.43 203.28,269.55 203.28,269.55 C200.76,272.07 202.55,276.38 206.11,276.38 C206.11,276.38 292.79,276.38 292.79,276.38 C297.62,276.38 301.55,272.46 301.55,267.62 C301.55,267.62 301.55,218.7 301.55,218.7 C301.55,216.38 300.62,214.15 298.98,212.51z "/><path id="_R_G_L_0_G_D_3_P_0" stroke="#343434" stroke-linecap="round" stroke-linejoin="round" fill="none" stroke-width="1.752" stroke-opacity="1" d=" M298.98 212.51 C298.98,212.51 286.6,200.13 286.6,200.13 C284.95,198.48 282.73,197.56 280.4,197.56 C280.4,197.56 222.73,197.56 222.73,197.56 C217.89,197.56 213.97,201.48 213.97,206.32 C213.97,206.32 213.97,255.24 213.97,255.24 C213.97,257.56 213.05,259.79 211.4,261.43 C211.4,261.43 203.28,269.55 203.28,269.55 C200.76,272.07 202.55,276.38 206.11,276.38 C206.11,276.38 292.79,276.38 292.79,276.38 C297.62,276.38 301.55,272.46 301.55,267.62 C301.55,267.62 301.55,218.7 301.55,218.7 C301.55,216.38 300.62,214.15 298.98,212.51z "/><path id="_R_G_L_0_G_D_4_P_0" fill="#ffffff" fill-opacity="1" fill-rule="nonzero" d=" M222.73 197.56 C222.73,197.56 275.27,197.56 275.27,197.56 C280.11,197.56 284.03,201.48 284.03,206.32 C284.03,206.32 284.03,250.11 284.03,250.11 C284.03,254.94 280.11,258.87 275.27,258.87 C275.27,258.87 222.73,258.87 222.73,258.87 C217.89,258.87 213.97,254.94 213.97,250.11 C213.97,250.11 213.97,206.32 213.97,206.32 C213.97,201.48 217.89,197.56 222.73,197.56z "/><path id="_R_G_L_0_G_D_5_P_0" stroke="#343434" stroke-linecap="round" stroke-linejoin="round" fill="none" stroke-width="1.752" stroke-opacity="1" d=" M222.73 197.56 C222.73,197.56 275.27,197.56 275.27,197.56 C280.11,197.56 284.03,201.48 284.03,206.32 C284.03,206.32 284.03,250.11 284.03,250.11 C284.03,254.94 280.11,258.87 275.27,258.87 C275.27,258.87 222.73,258.87 222.73,258.87 C217.89,258.87 213.97,254.94 213.97,250.11 C213.97,250.11 213.97,206.32 213.97,206.32 C213.97,201.48 217.89,197.56 222.73,197.56z "/><path id="_R_G_L_0_G_D_6_P_0" stroke="#343434" stroke-linecap="round" stroke-linejoin="round" fill="none" stroke-width="1.752" stroke-opacity="1" d=" M233.52 243.69 C233.52,243.69 264.48,212.73 264.48,212.73  M264.48 212.73 C264.48,212.73 239.71,212.73 239.71,212.73  M264.48 212.73 C264.48,212.73 264.48,237.5 264.48,237.5 "/></g></g><g id="time_group"/></svg>