<svg xmlns="http://www.w3.org/2000/svg" xmlns:xlink="http://www.w3.org/1999/xlink" preserveAspectRatio="xMidYMid meet" width="350" height="350" viewBox="0 0 350 350" style="width:100%;height:100%"><defs><animateMotion repeatCount="indefinite" dur="2.2666667s" begin="0s" xlink:href="#_R_G_L_4_G" fill="freeze" keyTimes="0;0.1104118;0.2208088;0.3312059;0.4416176;0.5520147;0.6624265;0.7728382;0.8832433;1" path="M0 16.06 C0,16.06 -7.5,10.23 -7.5,10.23 C-7.5,10.23 0,16.06 0,16.06 C0,16.06 0,16.06 0,16.06 C0,16.06 -7.5,10.23 -7.5,10.23 C-7.5,10.23 0,16.06 0,16.06 C0,16.06 0,16.06 0,16.06 C0,16.06 -7.5,10.23 -7.5,10.23 C-7.5,10.23 0,16.06 0,16.06 C0,16.06 0,16.06 0,16.06 " keyPoints="0;0.17;0.33;0.33;0.5;0.67;0.67;0.83;1;1" keySplines="0 0 0.247 1;0.753 0 1 1;0.333 0.333 0.667 0.667;0 0 0.247 1;0.753 0 1 1;0.333 0.333 0.667 0.667;0 0 0.247 1;0.753 0 1 1;0 0 0 0" calcMode="spline"/><animateTransform repeatCount="indefinite" dur="2.2666667s" begin="0s" xlink:href="#_R_G_L_4_G" fill="freeze" attributeName="transform" from="-175 -158.061" to="-175 -158.061" type="translate" additive="sum" keyTimes="0;1" values="-175 -158.061;-175 -158.061" keySplines="0 0 1 1" calcMode="spline"/><animateMotion repeatCount="indefinite" dur="2.2666667s" begin="0s" xlink:href="#_R_G_L_3_G" fill="freeze" keyTimes="0;0.1470588;0.2205882;0.4264706;1" path="M67.5 15.06 C67.5,15.06 67.5,15.06 67.5,15.06 C67.5,15.06 57.5,25.06 57.5,25.06 C57.5,25.06 157.5,-139.94 157.5,-139.94 C157.5,-139.94 157.5,-139.94 157.5,-139.94 " keyPoints="0;0;0.07;1;1" keySplines="0.444 0.444 0.833 0.833;0.444 0 0.833 1;0.444 0 0.833 1;0 0 0 0" calcMode="spline"/><animateTransform repeatCount="indefinite" dur="2.2666667s" begin="0s" xlink:href="#_R_G_L_3_G" fill="freeze" attributeName="transform" from="1 1" to="0.09 0.09" type="scale" additive="sum" keyTimes="0;0.2941176;0.4264706;1" values="1 1;1 1;0.09 0.09;0.09 0.09" keySplines="0.167 0 0.667 1;0.333 0 0.833 1;0 0 0 0" calcMode="spline"/><animateTransform repeatCount="indefinite" dur="2.2666667s" begin="0s" xlink:href="#_R_G_L_3_G" fill="freeze" attributeName="transform" from="-242.5 -157.061" to="-242.5 -157.061" type="translate" additive="sum" keyTimes="0;1" values="-242.5 -157.061;-242.5 -157.061" keySplines="0 0 1 1" calcMode="spline"/><animate repeatCount="indefinite" dur="2.2666667s" begin="0s" xlink:href="#_R_G_L_3_G_N_1_T_0_M" fill="freeze" attributeName="opacity" from="1" to="0" keyTimes="0;0.5;0.5;1" values="1;1;0;0" keySplines="0 0 0 0;0 0 0 0;0 0 0 0" calcMode="spline"/><animate repeatCount="indefinite" dur="2.2666667s" begin="0s" xlink:href="#_R_G_L_2_G_D_0_P_0" fill="freeze" attributeName="d" attributeType="XML" from="M260.28 83.58 C260.28,83.58 274.34,121.58 274.34,121.58 C274.34,121.58 312.34,135.64 312.34,135.64 C312.34,135.64 274.34,149.7 274.34,149.7 C274.34,149.7 260.28,187.7 260.28,187.7 C260.28,187.7 246.22,149.7 246.22,149.7 C246.22,149.7 208.22,135.64 208.22,135.64 C208.22,135.64 246.22,121.58 246.22,121.58 C246.22,121.58 260.28,83.58 260.28,83.58z " to="M260.28 83.58 C260.28,83.58 263.44,133.59 263.44,133.59 C263.44,133.59 312.34,135.64 312.34,135.64 C312.34,135.64 263.04,139.64 263.04,139.64 C263.04,139.64 260.28,187.7 260.28,187.7 C260.28,187.7 258.29,139.09 258.29,139.09 C258.29,139.09 208.22,135.64 208.22,135.64 C208.22,135.64 258.09,134.03 258.09,134.03 C258.09,134.03 260.28,83.58 260.28,83.58z " keyTimes="0;0.5441176;0.6911765;1" values="M260.28 83.58 C260.28,83.58 274.34,121.58 274.34,121.58 C274.34,121.58 312.34,135.64 312.34,135.64 C312.34,135.64 274.34,149.7 274.34,149.7 C274.34,149.7 260.28,187.7 260.28,187.7 C260.28,187.7 246.22,149.7 246.22,149.7 C246.22,149.7 208.22,135.64 208.22,135.64 C208.22,135.64 246.22,121.58 246.22,121.58 C246.22,121.58 260.28,83.58 260.28,83.58z ;M260.28 83.58 C260.28,83.58 274.34,121.58 274.34,121.58 C274.34,121.58 312.34,135.64 312.34,135.64 C312.34,135.64 274.34,149.7 274.34,149.7 C274.34,149.7 260.28,187.7 260.28,187.7 C260.28,187.7 246.22,149.7 246.22,149.7 C246.22,149.7 208.22,135.64 208.22,135.64 C208.22,135.64 246.22,121.58 246.22,121.58 C246.22,121.58 260.28,83.58 260.28,83.58z ;M260.28 83.58 C260.28,83.58 263.44,133.59 263.44,133.59 C263.44,133.59 312.34,135.64 312.34,135.64 C312.34,135.64 263.04,139.64 263.04,139.64 C263.04,139.64 260.28,187.7 260.28,187.7 C260.28,187.7 258.29,139.09 258.29,139.09 C258.29,139.09 208.22,135.64 208.22,135.64 C208.22,135.64 258.09,134.03 258.09,134.03 C258.09,134.03 260.28,83.58 260.28,83.58z ;M260.28 83.58 C260.28,83.58 263.44,133.59 263.44,133.59 C263.44,133.59 312.34,135.64 312.34,135.64 C312.34,135.64 263.04,139.64 263.04,139.64 C263.04,139.64 260.28,187.7 260.28,187.7 C260.28,187.7 258.29,139.09 258.29,139.09 C258.29,139.09 208.22,135.64 208.22,135.64 C208.22,135.64 258.09,134.03 258.09,134.03 C258.09,134.03 260.28,83.58 260.28,83.58z " keySplines="0.167 0.167 0.833 0.833;0.167 0.167 0.833 0.833;0 0 0 0" calcMode="spline"/><animate repeatCount="indefinite" dur="2.2666667s" begin="0s" xlink:href="#_R_G_L_2_G_D_1_P_0" fill="freeze" attributeName="stroke-width" from="10" to="10" keyTimes="0;0.4264706;0.5441176;0.6911765;1" values="10;10;3;10;10" keySplines="0.167 0.167 0.833 0.833;0.167 0.167 0.833 0.833;0.167 0.167 0.833 0.833;0 0 0 0" calcMode="spline"/><animate repeatCount="indefinite" dur="2.2666667s" begin="0s" xlink:href="#_R_G_L_2_G_D_1_P_0" fill="freeze" attributeName="d" attributeType="XML" from="M260.28 83.58 C260.28,83.58 274.34,121.58 274.34,121.58 C274.34,121.58 312.34,135.64 312.34,135.64 C312.34,135.64 274.34,149.7 274.34,149.7 C274.34,149.7 260.28,187.7 260.28,187.7 C260.28,187.7 246.22,149.7 246.22,149.7 C246.22,149.7 208.22,135.64 208.22,135.64 C208.22,135.64 246.22,121.58 246.22,121.58 C246.22,121.58 260.28,83.58 260.28,83.58z " to="M260.28 83.58 C260.28,83.58 263.44,133.59 263.44,133.59 C263.44,133.59 312.34,135.64 312.34,135.64 C312.34,135.64 263.04,139.64 263.04,139.64 C263.04,139.64 260.28,187.7 260.28,187.7 C260.28,187.7 258.29,139.09 258.29,139.09 C258.29,139.09 208.22,135.64 208.22,135.64 C208.22,135.64 258.09,134.03 258.09,134.03 C258.09,134.03 260.28,83.58 260.28,83.58z " keyTimes="0;0.5441176;0.6911765;1" values="M260.28 83.58 C260.28,83.58 274.34,121.58 274.34,121.58 C274.34,121.58 312.34,135.64 312.34,135.64 C312.34,135.64 274.34,149.7 274.34,149.7 C274.34,149.7 260.28,187.7 260.28,187.7 C260.28,187.7 246.22,149.7 246.22,149.7 C246.22,149.7 208.22,135.64 208.22,135.64 C208.22,135.64 246.22,121.58 246.22,121.58 C246.22,121.58 260.28,83.58 260.28,83.58z ;M260.28 83.58 C260.28,83.58 274.34,121.58 274.34,121.58 C274.34,121.58 312.34,135.64 312.34,135.64 C312.34,135.64 274.34,149.7 274.34,149.7 C274.34,149.7 260.28,187.7 260.28,187.7 C260.28,187.7 246.22,149.7 246.22,149.7 C246.22,149.7 208.22,135.64 208.22,135.64 C208.22,135.64 246.22,121.58 246.22,121.58 C246.22,121.58 260.28,83.58 260.28,83.58z ;M260.28 83.58 C260.28,83.58 263.44,133.59 263.44,133.59 C263.44,133.59 312.34,135.64 312.34,135.64 C312.34,135.64 263.04,139.64 263.04,139.64 C263.04,139.64 260.28,187.7 260.28,187.7 C260.28,187.7 258.29,139.09 258.29,139.09 C258.29,139.09 208.22,135.64 208.22,135.64 C208.22,135.64 258.09,134.03 258.09,134.03 C258.09,134.03 260.28,83.58 260.28,83.58z ;M260.28 83.58 C260.28,83.58 263.44,133.59 263.44,133.59 C263.44,133.59 312.34,135.64 312.34,135.64 C312.34,135.64 263.04,139.64 263.04,139.64 C263.04,139.64 260.28,187.7 260.28,187.7 C260.28,187.7 258.29,139.09 258.29,139.09 C258.29,139.09 208.22,135.64 208.22,135.64 C208.22,135.64 258.09,134.03 258.09,134.03 C258.09,134.03 260.28,83.58 260.28,83.58z " keySplines="0.167 0.167 0.833 0.833;0.167 0.167 0.833 0.833;0 0 0 0" calcMode="spline"/><animateTransform repeatCount="indefinite" dur="2.2666667s" begin="0s" xlink:href="#_R_G_L_2_G" fill="freeze" attributeName="transform" from="0" to="360" type="rotate" additive="sum" keyTimes="0;0.4264706;0.6911765;1" values="0;0;360;360" keySplines="0.167 0.167 0.833 0.833;0.167 0.167 0.833 0.833;0 0 0 0" calcMode="spline"/><animateTransform repeatCount="indefinite" dur="2.2666667s" begin="0s" xlink:href="#_R_G_L_2_G" fill="freeze" attributeName="transform" from="0.08 0.08" to="0.1 0.1" type="scale" additive="sum" keyTimes="0;0.4264706;0.5441176;0.6929429;1" values="0.08 0.08;0.08 0.08;0.44441 0.44441;0.1 0.1;0.1 0.1" keySplines="0.167 0.167 0.833 0.833;0.167 0.167 0.833 0.833;0.167 0.167 0.833 0.833;0 0 0 0" calcMode="spline"/><animateTransform repeatCount="indefinite" dur="2.2666667s" begin="0s" xlink:href="#_R_G_L_2_G" fill="freeze" attributeName="transform" from="-260.556 -135.576" to="-260.556 -135.576" type="translate" additive="sum" keyTimes="0;1" values="-260.556 -135.576;-260.556 -135.576" keySplines="0 0 1 1" calcMode="spline"/><animate repeatCount="indefinite" dur="2.2666667s" begin="0s" xlink:href="#_R_G_L_2_G_N_1_T_0_M" fill="freeze" attributeName="opacity" from="0" to="0" keyTimes="0;0.4264706;0.4264721;0.6911765;0.6911765;1" values="0;0;1;1;0;0" keySplines="0 0 0 0;0 0 0 0;0 0 0 0;0 0 0 0;0 0 0 0" calcMode="spline"/><animateMotion repeatCount="indefinite" dur="2.2666667s" begin="0s" xlink:href="#_R_G_L_1_G" fill="freeze" keyTimes="0;0.5882353;0.6956176;0.9348145;1" path="M10 36.06 C10,36.06 10,36.06 10,36.06 C10,36.06 0,16.06 0,16.06 C0,16.06 0,16.06 0,16.06 C0,16.06 0,16.06 0,16.06 " keyPoints="0;0;1;1;1" keySplines="0 0 1 1;0 0 1 1;0.753 0.753 0.247 0.247;0 0 0 0" calcMode="spline"/><animateTransform repeatCount="indefinite" dur="2.2666667s" begin="0s" xlink:href="#_R_G_L_1_G" fill="freeze" attributeName="transform" from="0.05 0.05" to="1 1" type="scale" additive="sum" keyTimes="0;0.5882353;0.6956141;1" values="0.05 0.05;0.05 0.05;1 1;1 1" keySplines="0.167 0.167 0.833 0.833;0.167 0.167 0.833 0.833;0 0 0 0" calcMode="spline"/><animateTransform repeatCount="indefinite" dur="2.2666667s" begin="0s" xlink:href="#_R_G_L_1_G" fill="freeze" attributeName="transform" from="-175 -158.061" to="-175 -158.061" type="translate" additive="sum" keyTimes="0;1" values="-175 -158.061;-175 -158.061" keySplines="0 0 1 1" calcMode="spline"/><animate repeatCount="indefinite" dur="2.2666667s" begin="0s" xlink:href="#_R_G_L_1_G_N_1_T_0_M" fill="freeze" attributeName="opacity" from="0" to="1" keyTimes="0;0.5882353;0.5882368;1" values="0;0;1;1" keySplines="0 0 0 0;0 0 0 0;0 0 0 0" calcMode="spline"/><animateMotion repeatCount="indefinite" dur="2.2666667s" begin="0s" xlink:href="#_R_G_L_0_G" fill="freeze" keyTimes="0;0.2208088;0.4416176;0.6624265;0.8832433;1" path="M0 16.06 C0,16.06 0,9.39 0,9.39 C0,9.39 0,16.06 0,16.06 C0,16.06 0,9.39 0,9.39 C0,9.39 0,16.06 0,16.06 C0,16.06 0,16.06 0,16.06 " keyPoints="0;0.25;0.5;0.75;1;1" keySplines="0.333 0 0.667 1;0.333 0 0.667 1;0.333 0 0.667 1;0.333 0 0.667 1;0 0 0 0" calcMode="spline"/><animateTransform repeatCount="indefinite" dur="2.2666667s" begin="0s" xlink:href="#_R_G_L_0_G" fill="freeze" attributeName="transform" from="-175 -158.061" to="-175 -158.061" type="translate" additive="sum" keyTimes="0;1" values="-175 -158.061;-175 -158.061" keySplines="0 0 1 1" calcMode="spline"/><animate attributeType="XML" attributeName="opacity" dur="2s" from="0" to="1" xlink:href="#time_group"/></defs><g id="_R_G"><g id="_R_G_L_5_G_N_1_T_0" transform=" translate(168.333, 175) translate(0, 0)"><g id="_R_G_L_5_G" transform=" translate(0, 16.061) translate(-175, -158.061)"><path id="_R_G_L_5_G_D_0_P_0" fill="#343434" fill-opacity="1" fill-rule="nonzero" d=" M257.2 289.54 C257.2,289.54 136.13,289.54 136.13,289.54 C124.35,289.54 105.48,275.98 105.48,264.2 C105.48,264.2 114.8,34.73 114.8,34.73 C114.8,22.95 124.35,13.4 136.13,13.4 C136.13,13.4 251.32,4.01 251.32,4.01 C263.09,4.01 278.52,22.95 278.52,34.73 C278.52,34.73 278.52,268.22 278.52,268.22 C278.52,280 268.98,289.54 257.2,289.54z "/><path id="_R_G_L_5_G_D_1_P_0" fill="#ffffff" fill-opacity="1" fill-rule="nonzero" d=" M247.46 279.8 C247.46,279.8 126.38,279.8 126.38,279.8 C114.61,279.8 105.06,270.25 105.06,258.48 C105.06,258.48 105.06,24.99 105.06,24.99 C105.06,13.21 114.61,3.66 126.38,3.66 C126.38,3.66 247.46,3.66 247.46,3.66 C259.23,3.66 268.78,13.21 268.78,24.99 C268.78,24.99 268.78,258.48 268.78,258.48 C268.78,270.25 259.23,279.8 247.46,279.8z "/><path id="_R_G_L_5_G_D_2_P_0" stroke="#343434" stroke-linecap="round" stroke-linejoin="round" fill="none" stroke-width="2" stroke-opacity="1" d=" M247.46 279.8 C247.46,279.8 126.38,279.8 126.38,279.8 C114.61,279.8 105.06,270.25 105.06,258.48 C105.06,258.48 105.06,24.99 105.06,24.99 C105.06,13.21 114.61,3.66 126.38,3.66 C126.38,3.66 247.46,3.66 247.46,3.66 C259.23,3.66 268.78,13.21 268.78,24.99 C268.78,24.99 268.78,258.48 268.78,258.48 C268.78,270.25 259.23,279.8 247.46,279.8z "/><path id="_R_G_L_5_G_D_3_P_0" fill="#343434" fill-opacity="1" fill-rule="nonzero" d=" M190.89 19.19 C190.89,22.31 188.37,24.84 185.25,24.84 C182.13,24.84 179.6,22.31 179.6,19.19 C179.6,16.07 182.13,13.54 185.25,13.54 C188.37,13.54 190.89,16.07 190.89,19.19z "/></g></g><g id="_R_G_L_4_G_N_1_T_0" transform=" translate(168.333, 175) translate(0, 0)"><g id="_R_G_L_4_G"><path id="_R_G_L_4_G_D_0_P_0" fill="#f26c5f" fill-opacity="1" fill-rule="nonzero" d=" M157.26 143.24 C157.26,143.24 66.86,143.24 66.86,143.24 C56.48,143.24 48.06,134.82 48.06,124.44 C48.06,124.44 48.06,66.8 48.06,66.8 C48.06,56.42 56.48,48 66.86,48 C66.86,48 157.26,48 157.26,48 C167.65,48 176.07,56.42 176.07,66.8 C176.07,66.8 176.07,124.44 176.07,124.44 C176.07,134.82 167.65,143.24 157.26,143.24z "/><path id="_R_G_L_4_G_D_1_P_0" stroke="#343434" stroke-linecap="round" stroke-linejoin="round" fill="none" stroke-width="2" stroke-opacity="1" d=" M157.26 143.24 C157.26,143.24 66.86,143.24 66.86,143.24 C56.48,143.24 48.06,134.82 48.06,124.44 C48.06,124.44 48.06,66.8 48.06,66.8 C48.06,56.42 56.48,48 66.86,48 C66.86,48 157.26,48 157.26,48 C167.65,48 176.07,56.42 176.07,66.8 C176.07,66.8 176.07,124.44 176.07,124.44 C176.07,134.82 167.65,143.24 157.26,143.24z "/><path id="_R_G_L_4_G_D_2_P_0" fill="#ffffff" fill-opacity="1" fill-rule="nonzero" d=" M149.67 83.18 C149.67,72.63 141.12,64.08 130.57,64.08 C120.02,64.08 111.47,72.63 111.47,83.18 C111.47,83.75 111.5,84.31 111.55,84.87 C111.55,84.87 111.4,84.86 111.4,84.86 C111.44,84.31 111.47,83.75 111.47,83.18 C111.47,72.63 102.92,64.08 92.37,64.08 C81.82,64.08 73.27,72.63 73.27,83.18 C73.27,86.37 73.72,89.64 74.6,92.29 C78.22,103.44 88.35,122.15 111.12,132.7 C111.12,132.7 145.25,116.78 149.49,86.54 C149.49,86.54 149.37,86.54 149.37,86.54 C149.56,85.45 149.67,84.32 149.67,83.18z "/><path id="_R_G_L_4_G_D_3_P_0" stroke="#343434" stroke-linecap="round" stroke-linejoin="round" fill="none" stroke-width="2" stroke-opacity="1" d=" M149.67 83.18 C149.67,72.63 141.12,64.08 130.57,64.08 C120.02,64.08 111.47,72.63 111.47,83.18 C111.47,83.75 111.5,84.31 111.55,84.87 C111.55,84.87 111.4,84.86 111.4,84.86 C111.44,84.31 111.47,83.75 111.47,83.18 C111.47,72.63 102.92,64.08 92.37,64.08 C81.82,64.08 73.27,72.63 73.27,83.18 C73.27,86.37 73.72,89.64 74.6,92.29 C78.22,103.44 88.35,122.15 111.12,132.7 C111.12,132.7 145.25,116.78 149.49,86.54 C149.49,86.54 149.37,86.54 149.37,86.54 C149.56,85.45 149.67,84.32 149.67,83.18z "/></g></g><g id="_R_G_L_3_G_N_1_T_0_M"><g id="_R_G_L_3_G_N_1_T_0" transform=" translate(168.333, 175) translate(0, 0)"><g id="_R_G_L_3_G"><path id="_R_G_L_3_G_D_0_P_0" fill="#63acde" fill-opacity="1" fill-rule="nonzero" d=" M284 203.06 C284,203.06 214.24,203.06 214.24,203.06 C204.33,203.06 196.29,195.02 196.29,185.11 C196.29,185.11 196.29,115.96 196.29,115.96 C196.29,106.05 204.33,98.02 214.24,98.02 C214.24,98.02 284,98.02 284,98.02 C293.91,98.02 301.95,106.05 301.95,115.96 C301.95,115.96 301.95,185.11 301.95,185.11 C301.95,195.02 293.91,203.06 284,203.06z "/><path id="_R_G_L_3_G_D_1_P_0" stroke="#343434" stroke-linecap="round" stroke-linejoin="round" fill="none" stroke-width="2" stroke-opacity="1" d=" M284 203.06 C284,203.06 214.24,203.06 214.24,203.06 C204.33,203.06 196.29,195.02 196.29,185.11 C196.29,185.11 196.29,115.96 196.29,115.96 C196.29,106.05 204.33,98.02 214.24,98.02 C214.24,98.02 284,98.02 284,98.02 C293.91,98.02 301.95,106.05 301.95,115.96 C301.95,115.96 301.95,185.11 301.95,185.11 C301.95,195.02 293.91,203.06 284,203.06z "/><path id="_R_G_L_3_G_D_2_P_0" fill="#ffffff" fill-opacity="1" fill-rule="nonzero" d=" M277.75 121.22 C277.75,121.22 243.13,157.83 243.13,157.83 C243.13,157.83 255.75,185.96 255.75,185.96 C255.75,185.96 277.75,121.22 277.75,121.22z "/><path id="_R_G_L_3_G_D_3_P_0" stroke="#343434" stroke-linecap="round" stroke-linejoin="round" fill="none" stroke-width="2" stroke-opacity="1" d=" M277.75 121.22 C277.75,121.22 243.13,157.83 243.13,157.83 C243.13,157.83 255.75,185.96 255.75,185.96 C255.75,185.96 277.75,121.22 277.75,121.22z "/><path id="_R_G_L_3_G_D_4_P_0" fill="#ffffff" fill-opacity="1" fill-rule="nonzero" d=" M277.75 121.22 C277.75,121.22 243.13,157.83 243.13,157.83 C243.13,157.83 214.34,146.79 214.34,146.79 C214.34,146.79 277.75,121.22 277.75,121.22z "/><path id="_R_G_L_3_G_D_5_P_0" stroke="#343434" stroke-linecap="round" stroke-linejoin="round" fill="none" stroke-width="2" stroke-opacity="1" d=" M277.75 121.22 C277.75,121.22 243.13,157.83 243.13,157.83 C243.13,157.83 214.34,146.79 214.34,146.79 C214.34,146.79 277.75,121.22 277.75,121.22z "/></g></g></g><g id="_R_G_L_2_G_N_1_T_0_M"><g id="_R_G_L_2_G_N_1_T_0" transform=" translate(168.333, 175) translate(0, 0)"><g id="_R_G_L_2_G" transform=" translate(159, -141.5)"><path id="_R_G_L_2_G_D_0_P_0" fill="#f2b855" fill-opacity="1" fill-rule="nonzero" d=" M260.28 83.58 C260.28,83.58 274.34,121.58 274.34,121.58 C274.34,121.58 312.34,135.64 312.34,135.64 C312.34,135.64 274.34,149.7 274.34,149.7 C274.34,149.7 260.28,187.7 260.28,187.7 C260.28,187.7 246.22,149.7 246.22,149.7 C246.22,149.7 208.22,135.64 208.22,135.64 C208.22,135.64 246.22,121.58 246.22,121.58 C246.22,121.58 260.28,83.58 260.28,83.58z "/><path id="_R_G_L_2_G_D_1_P_0" stroke="#343434" stroke-linecap="round" stroke-linejoin="round" fill="none" stroke-width="10" stroke-opacity="1" d=" M260.28 83.58 C260.28,83.58 274.34,121.58 274.34,121.58 C274.34,121.58 312.34,135.64 312.34,135.64 C312.34,135.64 274.34,149.7 274.34,149.7 C274.34,149.7 260.28,187.7 260.28,187.7 C260.28,187.7 246.22,149.7 246.22,149.7 C246.22,149.7 208.22,135.64 208.22,135.64 C208.22,135.64 246.22,121.58 246.22,121.58 C246.22,121.58 260.28,83.58 260.28,83.58z "/></g></g></g><g id="_R_G_L_1_G_N_1_T_0_M"><g id="_R_G_L_1_G_N_1_T_0" transform=" translate(168.333, 175) translate(0, 0)"><g id="_R_G_L_1_G"><path id="_R_G_L_1_G_D_0_P_0" fill="#63acde" fill-opacity="1" fill-rule="nonzero" d=" M284 203.06 C284,203.06 214.24,203.06 214.24,203.06 C204.33,203.06 196.29,195.02 196.29,185.11 C196.29,185.11 196.29,115.96 196.29,115.96 C196.29,106.05 204.33,98.02 214.24,98.02 C214.24,98.02 284,98.02 284,98.02 C293.91,98.02 301.95,106.05 301.95,115.96 C301.95,115.96 301.95,185.11 301.95,185.11 C301.95,195.02 293.91,203.06 284,203.06z "/><path id="_R_G_L_1_G_D_1_P_0" stroke="#343434" stroke-linecap="round" stroke-linejoin="round" fill="none" stroke-width="2" stroke-opacity="1" d=" M284 203.06 C284,203.06 214.24,203.06 214.24,203.06 C204.33,203.06 196.29,195.02 196.29,185.11 C196.29,185.11 196.29,115.96 196.29,115.96 C196.29,106.05 204.33,98.02 214.24,98.02 C214.24,98.02 284,98.02 284,98.02 C293.91,98.02 301.95,106.05 301.95,115.96 C301.95,115.96 301.95,185.11 301.95,185.11 C301.95,195.02 293.91,203.06 284,203.06z "/><path id="_R_G_L_1_G_D_2_P_0" fill="#ffffff" fill-opacity="1" fill-rule="nonzero" d=" M277.75 121.22 C277.75,121.22 243.13,157.83 243.13,157.83 C243.13,157.83 255.75,185.96 255.75,185.96 C255.75,185.96 277.75,121.22 277.75,121.22z "/><path id="_R_G_L_1_G_D_3_P_0" stroke="#343434" stroke-linecap="round" stroke-linejoin="round" fill="none" stroke-width="2" stroke-opacity="1" d=" M277.75 121.22 C277.75,121.22 243.13,157.83 243.13,157.83 C243.13,157.83 255.75,185.96 255.75,185.96 C255.75,185.96 277.75,121.22 277.75,121.22z "/><path id="_R_G_L_1_G_D_4_P_0" fill="#ffffff" fill-opacity="1" fill-rule="nonzero" d=" M277.75 121.22 C277.75,121.22 243.13,157.83 243.13,157.83 C243.13,157.83 214.34,146.79 214.34,146.79 C214.34,146.79 277.75,121.22 277.75,121.22z "/><path id="_R_G_L_1_G_D_5_P_0" stroke="#343434" stroke-linecap="round" stroke-linejoin="round" fill="none" stroke-width="2" stroke-opacity="1" d=" M277.75 121.22 C277.75,121.22 243.13,157.83 243.13,157.83 C243.13,157.83 214.34,146.79 214.34,146.79 C214.34,146.79 277.75,121.22 277.75,121.22z "/></g></g></g><g id="_R_G_L_0_G_N_1_T_0" transform=" translate(168.333, 175) translate(0, 0)"><g id="_R_G_L_0_G"><path id="_R_G_L_0_G_D_0_P_0" fill="#f2b855" fill-opacity="1" fill-rule="nonzero" d=" M173.74 207.24 C173.74,207.24 90.35,207.24 90.35,207.24 C80.77,207.24 73.01,215.01 73.01,224.58 C73.01,224.58 73.01,277.75 73.01,277.75 C73.01,287.33 80.77,295.09 90.35,295.09 C90.35,295.09 151.14,295.09 151.14,295.09 C151.14,295.09 175.14,312.46 175.14,312.46 C175.14,312.46 177.49,294.68 177.49,294.68 C185.27,292.96 191.09,286.04 191.09,277.75 C191.09,277.75 191.09,224.58 191.09,224.58 C191.09,215.01 183.32,207.24 173.74,207.24z "/><path id="_R_G_L_0_G_D_1_P_0" stroke="#343434" stroke-linecap="round" stroke-linejoin="round" fill="none" stroke-width="2" stroke-opacity="1" d=" M173.74 207.24 C173.74,207.24 90.35,207.24 90.35,207.24 C80.77,207.24 73.01,215.01 73.01,224.58 C73.01,224.58 73.01,277.75 73.01,277.75 C73.01,287.33 80.77,295.09 90.35,295.09 C90.35,295.09 151.14,295.09 151.14,295.09 C151.14,295.09 175.14,312.46 175.14,312.46 C175.14,312.46 177.49,294.68 177.49,294.68 C185.27,292.96 191.09,286.04 191.09,277.75 C191.09,277.75 191.09,224.58 191.09,224.58 C191.09,215.01 183.32,207.24 173.74,207.24z "/><path id="_R_G_L_0_G_D_2_P_0" fill="#f2b855" fill-opacity="1" fill-rule="nonzero" d=" M93.4 232.65 C93.4,232.65 170.69,232.65 170.69,232.65 "/><path id="_R_G_L_0_G_D_3_P_0" stroke="#343434" stroke-linecap="round" stroke-linejoin="round" fill="none" stroke-width="2" stroke-opacity="1" d=" M93.4 232.65 C93.4,232.65 170.69,232.65 170.69,232.65 "/><path id="_R_G_L_0_G_D_4_P_0" fill="#f2b855" fill-opacity="1" fill-rule="nonzero" d=" M93.4 251.97 C93.4,251.97 170.69,251.97 170.69,251.97 "/><path id="_R_G_L_0_G_D_5_P_0" stroke="#343434" stroke-linecap="round" stroke-linejoin="round" fill="none" stroke-width="2" stroke-opacity="1" d=" M93.4 251.97 C93.4,251.97 170.69,251.97 170.69,251.97 "/><path id="_R_G_L_0_G_D_6_P_0" fill="#f2b855" fill-opacity="1" fill-rule="nonzero" d=" M93.4 271.72 C93.4,271.72 170.69,271.72 170.69,271.72 "/><path id="_R_G_L_0_G_D_7_P_0" stroke="#343434" stroke-linecap="round" stroke-linejoin="round" fill="none" stroke-width="2" stroke-opacity="1" d=" M93.4 271.72 C93.4,271.72 170.69,271.72 170.69,271.72 "/></g></g></g><g id="time_group"/></svg>